<?xml version="1.0" encoding="utf-8"?>
<!-- Generator: Adobe Illustrator 23.0.0, SVG Export Plug-In . SVG Version: 6.00 Build 0)  -->
<svg version="1.1" id="Capa_1" xmlns="http://www.w3.org/2000/svg" xmlns:xlink="http://www.w3.org/1999/xlink" x="0px" y="0px"
	 viewBox="0 0 170.2 170.2" style="enable-background:new 0 0 170.2 170.2;" xml:space="preserve">
<style type="text/css">
	.st0{fill-rule:evenodd;clip-rule:evenodd;fill:#343C4A;}
</style>
<path class="st0" d="M154.9,162.1H15.3c-4,0-7.2-3.2-7.2-7.2V34.6c0-4,3.2-7.2,7.2-7.2h14.4v7.2c0,9.3,7.5,16.8,16.8,16.8
	c9.3,0,16.8-7.5,16.8-16.8v-7.2h43.3v7.2c0,9.3,7.5,16.8,16.8,16.8c9.3,0,16.8-7.5,16.8-16.8v-7.2h14.4c4,0,7.2,3.2,7.2,7.2v120.3
	C162.1,158.9,158.9,162.1,154.9,162.1 M147.7,65.9H22.5v81.8h125.1V65.9z M61,99.5c2,0,3.8,0.8,5.1,2.1l11.7,11.7l28.6-28.6
	c1.3-1.3,3.1-2.1,5.1-2.1c4,0,7.2,3.2,7.2,7.2c0,2-0.8,3.8-2.1,5.1L83,128.7c-1.3,1.3-3.1,2.1-5.1,2.1c-2,0-3.8-0.8-5.1-2.1
	l-16.8-16.8c-1.3-1.3-2.1-3.1-2.1-5.1C53.8,102.8,57.1,99.5,61,99.5 M123.6,41.8c-4,0-7.2-3.2-7.2-7.2V15.3c0-4,3.2-7.2,7.2-7.2
	c4,0,7.2,3.2,7.2,7.2v19.3C130.8,38.6,127.6,41.8,123.6,41.8 M46.6,41.8c-4,0-7.2-3.2-7.2-7.2V15.3c0-4,3.2-7.2,7.2-7.2
	c4,0,7.2,3.2,7.2,7.2v19.3C53.8,38.6,50.6,41.8,46.6,41.8"/>
</svg>
