<?xml version="1.0" encoding="utf-8"?>
<!-- Generator: Adobe Illustrator 23.0.0, SVG Export Plug-In . SVG Version: 6.00 Build 0)  -->
<svg version="1.1" id="Capa_1" xmlns="http://www.w3.org/2000/svg" xmlns:xlink="http://www.w3.org/1999/xlink" x="0px" y="0px"
	 viewBox="0 0 300 300" style="enable-background:new 0 0 300 300;" xml:space="preserve">
<style type="text/css">
	.st0{fill:#20252D;}
</style>
<g>
	<path class="st0" d="M271.2,87.3c-3.6-6.2-7.9-11.9-12.7-17.1c-3.6-6.1-7.8-11.9-12.6-17.2c-4.8-5.3-10.2-10.1-16.1-14.2
		c-5.8-4.2-12.1-7.7-18.7-10.6c-6.6-2.8-13.4-5.1-20.4-6.4c-6.5-2.8-13.3-5.1-20.3-6.5c-7-1.4-14.2-2.1-21.4-2.1
		c-7.2,0.1-14.3,0.9-21.3,2.4c-7,1.5-13.8,3.9-20.2,6.8c-7,1.4-13.7,3.8-20.3,6.7c-6.5,2.9-12.8,6.6-18.5,10.9
		c-5.8,4.3-11.1,9.1-15.8,14.5c-4.7,5.4-8.9,11.2-12.3,17.4C35.7,77,31.6,82.9,28,89.1c-3.5,6.2-6.5,12.8-8.6,19.7
		c-2.1,6.9-3.6,13.9-4.3,21c-0.6,7.1-0.5,14.3,0.2,21.3c-0.7,7.1-0.7,14.2,0.1,21.3c0.8,7.1,2.4,14.2,4.6,21
		c2.2,6.8,5.3,13.4,8.9,19.5c3.6,6.2,7.9,11.9,12.7,17.1c3.6,6.1,7.8,11.9,12.6,17.2c4.8,5.3,10.2,10.1,16.1,14.2
		c5.8,4.2,12.1,7.7,18.7,10.6c6.6,2.8,13.4,5.1,20.4,6.4c6.5,2.8,13.3,5.1,20.3,6.5c7,1.4,14.2,2.1,21.4,2.1
		c7.2-0.1,14.3-0.9,21.3-2.4c7-1.5,13.8-3.9,20.2-6.8c7-1.4,13.7-3.8,20.3-6.7c6.5-2.9,12.8-6.6,18.5-10.9
		c5.8-4.3,11.1-9.1,15.8-14.5c4.7-5.4,8.9-11.2,12.3-17.4c4.8-5.3,8.9-11.1,12.5-17.3c3.5-6.2,6.5-12.8,8.6-19.7
		c2.1-6.9,3.6-13.9,4.3-21c0.6-7.1,0.5-14.3-0.2-21.3c0.7-7.1,0.7-14.2-0.1-21.3c-0.8-7.1-2.4-14.2-4.6-21
		C277.9,100,274.8,93.4,271.2,87.3 M280.1,149.1c-3,27.3-11,52.6-24.3,76.6c-4.6,5.1-9.4,9.9-14.4,14.4c-5,4.5-10.2,8.7-15.6,12.7
		c-5.3,4-11,7.7-16.7,11.1c-5.8,3.4-11.7,6.7-18,9.5c-6.7,1.4-13.4,2.5-20.1,3.2c-6.7,0.7-13.4,1-20.1,1.1c-6.7,0-13.4-0.3-20.1-0.8
		c-6.7-0.6-13.4-1.6-20.1-2.9c-6.3-2.7-12.3-5.9-18.1-9.3c-5.8-3.4-11.5-6.9-16.9-10.9c-5.4-3.9-10.7-8.1-15.8-12.5
		c-5-4.5-9.9-9.2-14.6-14.2c-13.6-23.8-22-49-25.4-76.2c3-27.3,11-52.6,24.3-76.6c4.6-5.1,9.4-9.9,14.4-14.4
		c5-4.5,10.2-8.7,15.6-12.7c5.3-4,11-7.7,16.7-11.1c5.8-3.4,11.7-6.7,18-9.5c6.7-1.4,13.4-2.5,20.1-3.2c6.7-0.7,13.4-1,20.1-1.1
		c6.7,0,13.4,0.3,20.1,0.8c6.7,0.6,13.4,1.6,20.1,2.9c6.3,2.7,12.3,5.9,18.1,9.3c5.8,3.4,11.5,6.9,16.9,10.9
		c5.4,3.9,10.7,8.1,15.8,12.5c5,4.5,9.9,9.2,14.6,14.2C268.3,96.7,276.7,121.9,280.1,149.1"/>
	<path class="st0" d="M299.8,162c-0.7,8.4-2,16.7-4,24.9c-2.1,8.2-4.9,16.1-8.3,23.8c-6.8,15.4-16.2,29.6-27.7,41.8
		c-22.9,24.6-54.4,41-87.6,45.7c-2.5,0.3-4.8,0.5-6.4,0.4c-1.6-0.1-2.6-0.4-2.5-0.8c0-0.4,1-0.8,2.6-1.2c1.5-0.4,3.6-0.9,5.9-1.2
		c32.5-4.9,63.1-21.2,85.3-45.4c11.2-12,20.3-25.9,26.9-40.9c3.3-7.5,6-15.3,8-23.2c2-8,3.2-16.1,3.9-24.2c0.1-1.7,0.3-3.4,0.5-4.9
		c0.1-1.5,0.3-2.9,0.5-4c0.4-2.3,0.9-3.7,1.5-3.8c0.5,0,1,1.4,1.3,3.7c0.2,1.2,0.3,2.5,0.4,4.1c0,1.5-0.1,3.2-0.2,5L299.8,162z"/>
	<path class="st0" d="M139.3,299.6c-8.9-0.3-17.7-1.6-26.3-3.8c-8.6-2.2-17-5.2-24.9-9.2c-5-2.5-7.4-4.9-5.7-5
		c1.2-0.1,3.8,0.9,7,2.1c8,3.3,16.2,6.2,24.6,8.2c8.4,2.2,16.9,3.5,25.5,4.5c5.4,0.7,8.6,1.4,7.2,2.3c-0.5,0.3-1.5,0.5-2.8,0.7
		C142.6,299.6,141,299.6,139.3,299.6"/>
	<path class="st0" d="M66,274.2c-2.2-1.1-4.2-2.4-6.1-3.9c-1.9-1.5-3.8-3-5.4-4.8c-3.7-4.2-2.8-5.3,1.8-2.5c0,0,0.1,0.1,0.2,0.1
		c2,1.3,3.9,2.6,5.8,4c1.8,1.5,3.8,2.8,5.5,4.5c2,1.9,2.9,3,2.6,3.6c-0.2,0.5-1.7,0.3-4.2-0.9C66.1,274.3,66,274.2,66,274.2"/>
	<path class="st0" d="M295.6,136.4c-1.9-20.3-8-40.2-18-58c-10-17.8-23.7-33.4-40-45.7c-16.3-12.3-35.2-21-55.1-25.6
		c-19.9-4.6-40.8-4.9-60.9-1.1c-4.9,0.9-8.8,1.3-8.9,0.5c-0.1-0.7,3.6-2.4,8.3-3.3c20.4-4.1,41.8-3.9,62.1,0.7
		c20.4,4.5,39.8,13.4,56.6,25.9c16.8,12.5,30.9,28.5,41.2,46.7c10.4,18.2,16.7,38.6,18.6,59.5c0.2,1.8,0.2,3.5,0.3,5
		c0,1.5-0.1,2.9-0.3,4.1c-0.3,2.3-0.7,3.8-1.3,3.8c-0.5,0-1.1-1.4-1.5-3.6c-0.2-1.1-0.4-2.5-0.6-4
		C296,139.9,295.8,138.2,295.6,136.4L295.6,136.4z"/>
	<path class="st0" d="M92.9,15c-2,1.2-4.1,2.3-6.3,3.3c-2.2,1-4.2,2.1-6.5,2.8c-5.1,1.9-6,0.8-1.6-2.6c0,0,0.1-0.1,0.2-0.1
		c2-1.4,4.1-2.6,6.2-3.7c2.2-0.9,4.4-2,6.8-2.6c5.5-1.3,6,0,1.4,2.7C93,14.9,92.9,15,92.9,15"/>
	<path class="st0" d="M54.2,39.1c-1.5,1.8-3.3,3.4-4.9,5.1c-1.7,1.6-3.5,3.2-5.3,4.7c-4.3,3.4-5.5,2.6-2.4-2c0,0,0.1-0.1,0.1-0.2
		c1.3-2,3.1-3.7,4.8-5.4c1.7-1.7,3.6-3.2,5.7-4.5c2.3-1.5,3.8-1.9,4.2-1.5c0.4,0.4-0.3,1.6-2,3.7C54.3,39,54.2,39.1,54.2,39.1"/>
	<path class="st0" d="M24.7,73.9c-1,2.2-2,4.3-3.1,6.3c-1.2,2-2.2,4.1-3.6,6.1c-1.6,2.2-2.6,3.3-3.1,3.1c-0.5-0.2-0.5-1.7,0.3-4.3
		c0,0,0-0.1,0.1-0.2c0.8-2.3,1.8-4.5,2.9-6.6c1.3-2.1,2.4-4.2,4-6c3.7-4.3,4.8-3.5,2.7,1.4C24.8,73.7,24.8,73.8,24.7,73.9"/>
	<path class="st0" d="M5.3,126.6c-2.7,18.9-2,38.3,2.4,56.8c4.3,18.6,12.2,36.2,23.1,52c3,4.5,5,7.9,3.9,8c-0.9,0-3.7-2.5-6.4-6.2
		c-11.7-15.7-19.9-33.8-24.4-52.9c-4.4-19.1-5-39-1.5-58.2c0.9-5.5,2.7-9.1,3.4-8.3c0.3,0.4,0.4,1.5,0.3,3
		C5.8,122.3,5.6,124.4,5.3,126.6"/>
	<path class="st0" d="M173,150c0.1,12.6-10.1,23-22.7,23.1c-12.6,0.1-23-10.1-23.1-22.7c-0.1-12.6,10.1-23,22.7-23.1
		C162.5,127.1,172.9,137.3,173,150"/>
	<path class="st0" d="M169,130.9c-4.7-5.3-11.9-8.4-19.1-8.3c-7.2,0-14.4,3.3-19,8.6c-4.7,5.3-6.9,12.5-6,19.1
		c-0.8,6.6,1.5,13.8,6.3,19c4.7,5.3,11.9,8.4,19.1,8.3c7.2,0,14.4-3.3,19-8.6c4.7-5.3,6.9-12.5,6-19.1
		C176.1,143.3,173.8,136.1,169,130.9 M163.5,163.3c-3.7,3.2-8.5,5-13.3,5c-4.8,0-9.5-1.6-13.3-4.8c-3.8-3.2-6.5-7.8-7.4-13.2
		c0.7-5.4,3.4-10.1,7.2-13.3c3.7-3.2,8.5-5,13.3-5c4.8,0,9.5,1.6,13.3,4.8c3.8,3.2,6.5,7.8,7.4,13.2
		C169.9,155.4,167.2,160.1,163.5,163.3"/>
	<path class="st0" d="M160.8,59.4l-7.2,0.1c-0.3,0-0.6,0-1,0.1c-0.8,0.1-1.4,0.7-1.4,1.5c0,0.6,0.3,1.3,1.3,1.4
		c0.4,0.1,0.8,0.1,1.1,0.1c0.2,0,0.5,0,0.9,0c0.3,0,0.6,0,0.9,0.1c0.1,0,0.2,0,0.3,0.1l0.2,21.3l-0.8-1.4c-0.7-1.1-1.4-2.4-2.2-3.7
		c-0.8-1.3-1.6-2.7-2.4-4.1c-0.8-1.4-1.7-2.8-2.5-4.2c-0.8-1.4-1.6-2.7-2.3-3.9c-0.7-1.2-1.4-2.3-1.9-3.3c-0.6-1-1-1.7-1.3-2.3
		c-0.5-0.9-0.8-1.2-0.9-1.4c-0.3-0.3-0.7-0.6-1.5-0.6l-4.5,0c-0.3,0-0.5,0-0.8,0.1c-0.3,0.1-0.5,0.1-0.7,0.2
		c-0.5,0.2-0.8,0.6-0.8,1.2c0,0.3,0.1,1.3,1.6,1.5c0.5,0.1,1.1,0.1,1.7,0.2c0.5,0,1,0.1,1.5,0.2c0,2.2,0.1,4.5,0.1,6.9
		c0.1,2.4,0.1,4.8,0.1,7.1c0,2,0,4.1,0,6.1c0,2-0.1,3.9-0.2,5.8c0,0.3,0,0.4-0.1,0.4c-0.1,0.1-0.2,0.2-0.2,0.2
		c-0.1,0.1-0.3,0.1-0.5,0.1c-0.3,0-0.6,0-0.8,0c-0.3,0-0.7,0.1-1,0.2c-0.7,0.2-1.1,0.7-1.1,1.4c0,0.6,0.4,1.2,1.3,1.4
		c0.4,0.1,0.8,0.1,1.2,0.1l8-0.1c1.3,0,1.7-0.8,1.7-1.5c0-0.6-0.3-1.1-0.9-1.4c-0.4-0.2-0.8-0.3-1.2-0.3l-2.6,0l-0.2-22l14.4,24.4
		c0.2,0.4,0.5,0.7,0.8,0.8c0.3,0.2,0.6,0.3,1,0.3c0.3,0,0.5-0.1,0.8-0.2c0,0,0.1,0,0.1-0.1c0.5-0.3,0.8-0.8,0.8-1.4
		c0-0.9,0-1.9,0-3.2l-0.1-3.8c0-1.3,0-2.5,0-3.7l0-3c0-1.5,0-2.9,0-4l0.1-10.1c0.2-0.1,0.3-0.1,0.5-0.1c0.3,0,0.6-0.1,0.9-0.1
		c0.3,0,0.5,0,0.6,0c0.4,0,0.7,0,1.1-0.1c0.8-0.1,1.3-0.7,1.3-1.5c0-0.6-0.4-1.1-1-1.4C162.5,59.5,162.1,59.4,160.8,59.4
		 M135.6,59.9L135.6,59.9L135.6,59.9L135.6,59.9z"/>
	<path class="st0" d="M162.3,223.3c-0.6,0-1,0.3-1.2,0.5c-0.3,0.3-0.5,0.8-0.5,1.6c0,0.1,0,0.1,0,0.2c-0.7-0.5-1.5-1-2.3-1.3
		c-0.8-0.3-1.7-0.6-2.6-0.7c-0.9-0.2-1.8-0.2-2.7-0.2c-0.9,0-1.9,0.1-3,0.4c-1.1,0.2-2.1,0.6-3.1,1.2c-1,0.6-1.8,1.3-2.5,2.2
		c-0.7,0.9-1.1,2.1-1,3.4c0,1.3,0.5,2.5,1.6,3.5c0.9,0.9,2,1.6,3.2,2.3c1.2,0.6,2.4,1.2,3.7,1.7c1.2,0.4,2.1,0.8,2.9,1.2
		c0.7,0.3,1.5,0.7,2.2,1.1c0.6,0.4,1.2,0.8,1.7,1.3c0.5,0.5,0.9,1.2,1.2,1.9c0.3,0.7,0.5,1.7,0.5,2.8c0,1-0.2,2.1-0.6,3
		c-0.4,1-0.9,1.9-1.6,2.7c-0.6,0.8-1.4,1.4-2.3,1.8c-0.9,0.4-1.8,0.7-2.9,0.7c-0.9,0-1.6-0.2-2.3-0.5c-0.7-0.4-1.3-0.9-1.9-1.5
		c-0.5-0.7-1-1.6-1.4-2.6c-0.4-1-0.6-2.2-0.7-3.4c0-0.6-0.1-1.2-0.2-1.7c-0.3-1.4-1.3-1.5-1.7-1.5c-0.4,0-0.7,0.1-1,0.3l-0.1-0.4
		l0,0.4c-0.2,0.2-0.4,0.4-0.5,0.8c-0.1,0.4-0.2,0.7-0.1,1.2c0,0.8,0,1.5,0.1,2.1c0,0.6,0,1.2,0,2c0,0.9,0,1.8-0.1,2.7
		c0,1-0.1,1.9-0.1,2.8c0,0.4,0.1,0.7,0.4,1.1c0.3,0.5,0.8,0.8,1.4,0.8c0.6,0,1-0.3,1.2-0.5c0.3-0.3,0.5-0.8,0.5-1.4c0,0,0-0.1,0-0.3
		c0.4,0.4,0.8,0.8,1.2,1.1c1.5,1.1,3.3,1.7,5.3,1.7c1.3,0,2.6-0.3,3.8-0.9c0.1-0.1,0.3-0.1,0.4-0.2c1.1-0.5,2.1-1.3,3-2.1
		c1-1,1.8-2.2,2.5-3.5c0.6-1.3,1-2.8,1-4.4c0-1.7-0.3-3.2-0.8-4.4c-0.5-1.2-1.1-2.2-1.9-3c-0.8-0.8-1.6-1.5-2.5-2
		c-0.9-0.5-1.7-0.9-2.5-1.3c-0.9-0.4-2-0.9-3.1-1.3c-1.1-0.4-2.1-0.8-3-1.3c-0.9-0.4-1.6-0.9-2.2-1.5c-0.5-0.4-0.7-0.8-0.7-1.3
		c0-0.6,0.1-1.1,0.4-1.5c0.3-0.5,0.8-0.9,1.3-1.3c0.6-0.4,1.3-0.7,2-0.9c0.8-0.2,1.6-0.3,2.4-0.3c1.2,0,2.3,0.1,3.2,0.5
		c0.9,0.3,1.7,0.7,2.3,1.2c0.6,0.5,1,1,1.3,1.7c0.3,0.6,0.5,1.2,0.5,1.9c0,0.6,0.1,1.2,0.2,1.7c0.3,1.4,1.4,1.5,1.7,1.5
		c0.8,0,1.4-0.4,1.5-1.1c0.1-0.3,0.2-0.7,0.1-1.2c0-0.4,0-0.8,0-1.1c0-0.3,0-0.5,0-0.8c0-0.3,0-0.6,0-0.9c0-0.3,0-0.6,0-1
		c0-0.3,0-0.6,0-0.9c0-0.4,0-0.7,0-1.1c0-0.4,0-0.7,0.1-1c0-0.3,0-0.6,0-0.7c0-0.4-0.1-0.7-0.4-1.1
		C163.4,223.5,162.9,223.2,162.3,223.3"/>
	<path class="st0" d="M68.9,145.4c-0.3-0.5-0.8-0.8-1.5-1l-5.8-1.5c-1.7-0.5-3.3-0.9-4.8-1.3c-1.5-0.4-2.9-0.8-4.2-1.1
		c-1.3-0.4-2.6-0.7-3.9-1l-8.1-2c-0.3-0.1-0.6-0.2-0.7-0.9c0-0.1,0-0.3,0-0.6c0-0.3-0.1-0.6-0.1-0.9l-0.1-1c0-0.3,0-0.6,0-0.9
		c0-1.7-1.3-1.7-1.4-1.7c-0.6,0-1.1,0.3-1.3,0.9c-0.1,0.3-0.2,0.6-0.2,1l0.1,9.6c0,0.8,0.1,1.2,0.4,1.6c0.4,0.6,0.9,0.7,1.2,0.7
		c0.8,0,1.4-0.5,1.4-1.3c0-0.3,0.1-0.7,0.1-1c0-0.3,0-0.6,0-0.9c0-0.3,0-0.6,0.1-0.9c0-0.1,0.1-0.3,0.1-0.4c0.2,0,0.4,0.1,1,0.2
		c0.7,0.2,1.6,0.4,2.6,0.6c1.1,0.3,2.2,0.6,3.6,0.9c1.3,0.3,2.7,0.7,4.1,1.1l4.3,1.2c1.4,0.4,2.8,0.8,4.1,1.1l2.5,0.7
		c-0.4,0.1-0.8,0.2-1.2,0.3c-1.8,0.5-3.7,1.1-5.8,1.7c-2.1,0.6-4.4,1.2-6.9,1.9c-2.5,0.7-5.2,1.3-8.1,2c-0.1,0-0.1,0-0.3,0.1
		c-0.3,0.1-0.6,0.2-0.8,0.3c-0.3,0.1-0.5,0.3-0.8,0.5c-0.4,0.3-0.6,0.8-0.6,1.3c0,0.8,0.4,1.4,1.2,1.7c0.4,0.1,0.8,0.3,1.3,0.5
		l9.3,2.5c1.4,0.4,2.7,0.7,4,1.1c2.2,0.6,4.4,1.2,6.8,1.9c-0.5,0.2-1.1,0.3-1.7,0.5c-1.8,0.6-3.7,1.1-5.5,1.7
		c-1.9,0.6-3.7,1.2-5.5,1.7c-1.8,0.6-3.4,1.1-4.8,1.5c-1.4,0.4-2.7,0.8-3.6,1.1c-0.7,0.2-1.1,0.3-1.3,0.3c-0.1-0.3-0.1-0.5-0.1-0.8
		c0-0.5-0.1-0.9-0.2-1.3c-0.2-1-0.9-1.4-1.4-1.4c-0.6,0-1.1,0.3-1.3,0.8c-0.1,0.3-0.2,0.7-0.2,1.3l0.1,8.2c0,0.9,0.2,1.5,0.6,1.9
		c0.3,0.3,0.6,0.4,1,0.4c0.7,0,1.3-0.5,1.4-1.3c0-0.3,0.1-0.7,0.1-1.1c0-1.4,0.1-2.1,0.2-2.5c0.1-0.4,0.3-0.4,0.3-0.5
		c2.6-0.9,5-1.7,7.4-2.5c2.4-0.8,4.7-1.5,7-2.2c2.3-0.7,4.6-1.4,6.9-2.1c2.3-0.7,4.6-1.4,6.9-2.2c0.1,0,0.3-0.1,0.4-0.2
		c0.3-0.2,0.6-0.3,0.7-0.6c0.3-0.3,0.4-0.7,0.4-1.1c0-0.6-0.3-1.2-0.8-1.5c-0.3-0.2-0.6-0.3-0.9-0.4c-0.9-0.2-1.9-0.5-3.1-0.8
		c-1.1-0.3-2.4-0.6-3.6-1c-1.3-0.4-2.6-0.7-3.9-1.1c-1.3-0.4-2.6-0.7-3.9-1.1c-1.9-0.5-3.8-1-5.7-1.6l1.2-0.3
		c1.3-0.3,2.8-0.8,4.4-1.2l5.2-1.4c1.8-0.5,3.6-1,5.4-1.5c1.8-0.5,3.5-1,5.2-1.5c0.7-0.2,1.2-0.5,1.5-0.9c0.2-0.3,0.4-0.7,0.4-1.1
		l0.4-0.1l-0.4-0.1C69.2,146.1,69.1,145.8,68.9,145.4"/>
	<path class="st0" d="M266.3,136.8c-0.8,0-1.3,0.5-1.5,1.3c-0.1,0.3-0.1,0.8-0.1,1.2c0,0.2,0,0.5,0,0.8c0,0.2,0,0.4-0.1,0.6
		c0,0.2-0.1,0.3-0.3,0.3c-0.9,0-1.7,0-2.6,0.1l-5.9,0.2c-1.1,0-2.4,0.1-3.8,0.1l-3.3,0c-0.9,0-1.7,0-2.4,0c-0.7,0-1.4,0-2,0
		c-0.6,0-1.2,0-1.7,0c-0.6,0-1.2,0-1.9,0l-2.5,0c0-0.1-0.2-0.6-0.2-2c0-0.6-0.1-1.1-0.2-1.4c-0.2-0.7-0.8-1-1.5-1
		c-0.2,0-1.2,0.1-1.3,1.5c0,0.4-0.1,0.8,0,1.3c0,1.5,0.1,3.1,0.1,4.6c0,1.5,0,3.1,0.1,4.6c0,1.5,0,3,0,4.5c0,1.5,0,3,0,4.5
		c0,0.6,0.1,1.1,0.2,1.5c0.4,0.9,1.6,1,1.9,1.1c0.8,0.1,1.6,0.1,2.6,0.2c1,0.1,1.9,0.1,2.8,0.2c0.9,0.1,1.7,0.1,2.4,0.1
		c0.7,0,1.2,0,1.4,0c0.4,0,0.7,0,1.1-0.1c0.6-0.1,1.2-0.6,1.2-1.6c0-0.3-0.1-0.8-0.8-1.2c-0.4-0.2-0.9-0.4-1.6-0.4l-1.9-0.1
		c-0.7,0-1.4-0.1-2.2-0.1c-0.7,0-1.4-0.1-2.1-0.1l-1.5-0.1c-0.3,0-0.4-0.1-0.5-0.2c0-0.1,0-0.3,0-0.4l-0.1-11.4l11.8-0.1
		c0,0.4,0,0.8,0,1.2c0,0.7,0,1.4,0,2.1c0,0.7,0,1.3,0,1.7c0,0.5,0,0.9,0,1.2c0,0.2,0,0.2-0.1,0.2c-0.1,0.1-0.3,0.2-0.5,0.3
		c-0.3,0.1-0.6,0.2-0.9,0.2c-0.4,0-0.7,0.1-1,0.1c-0.5,0-1,0.1-1.3,0.3c-0.7,0.4-0.8,1-0.8,1.3c0,0.4,0.2,0.7,0.5,1
		c0.4,0.5,1.1,0.5,1.6,0.5c0.7,0,1.4,0,2.2-0.1c0.7,0,1.4,0,2.1-0.1c0.7,0,1.4,0,2.1,0c0.7,0,1.4,0,2.2,0c0.4,0,0.7-0.1,1-0.1
		c0.6-0.2,1-0.8,1-1.5c0-0.4-0.2-0.8-0.5-1.1c-0.2-0.2-0.5-0.3-0.8-0.4c-0.2-0.1-0.4-0.1-0.6-0.1c-0.2,0-0.3,0-0.3,0
		c-0.2,0-0.5,0-0.9,0c-0.4,0-0.7,0-1.1-0.1c-0.2,0-0.3,0-0.5-0.1c0-0.1,0-0.1,0-0.2l-0.1-2.3c0-0.4,0-0.8,0-1.1c0-0.7,0-1.4,0-2.1
		l0-1.2l11.1-0.1l0.1,10.5c0,0.1,0,0.2-0.1,0.4l-4.2,0c-0.4,0-0.8,0-1.2,0.1c-0.8,0.2-1.3,0.8-1.3,1.7c0,0.6,0.4,1.3,1.3,1.5
		c0.4,0.1,0.9,0.1,1.4,0.1l5.1,0c0.5,0,1-0.1,1.3-0.3c0.2-0.1,0.3-0.2,0.4-0.3c0.3-0.3,0.6-0.7,0.6-1.5c0-1.1,0-2,0-2.7
		c0-0.7,0-1.3,0-1.9c0-0.6,0-1.2,0-1.8c0-0.6,0-1.3,0-2.3l0-1.7c0-0.7,0-1.5,0-2.3c0-0.8,0-1.6,0-2.5c0-0.9,0-1.7,0-2.6
		c0-0.5-0.1-0.9-0.1-1.3C267.6,137.3,267.1,136.8,266.3,136.8"/>
	<path class="st0" d="M223.9,97.8c-0.6-0.6-1.1-1.1-1.4-1.4c-0.4-0.3-0.7-0.7-1-1l-0.9-0.9c-0.3-0.3-0.7-0.7-1.2-1.2
		c-0.2-0.2-0.6-0.6-0.9-0.9c-0.4-0.4-0.8-0.8-1.2-1.2c-0.4-0.4-0.9-0.9-1.3-1.3c-0.5-0.5-0.9-0.9-1.4-1.4c-0.2-0.2-0.5-0.4-0.8-0.6
		c-0.4-0.2-0.8-0.2-1.2-0.1c0-0.1,0-0.3-0.1-0.5c-0.1-0.2-0.3-0.5-0.9-1.1l-3.8-3.8c-0.1-0.1-0.3-0.3-0.6-0.5
		c-0.6-0.4-1.2-0.3-1.5,0.1c-0.3,0.3-0.5,0.8-0.1,1.5c0.2,0.2,0.3,0.5,0.5,0.6c0.1,0.1,0.3,0.3,0.5,0.5c0.2,0.2,0.3,0.3,0.4,0.5
		c0.1,0.1,0.1,0.1,0.1,0.2L196,96.7l0.3-1.2c0.3-0.9,0.5-2,0.8-3.1c0.3-1.1,0.6-2.3,0.9-3.5c0.3-1.2,0.6-2.4,0.9-3.5
		c0.3-1.2,0.6-2.3,0.8-3.3c0.3-1,0.5-2,0.7-2.8c0.2-0.8,0.4-1.4,0.5-1.9c0.2-0.6,0.2-1,0.2-1.2c0-0.4-0.1-0.8-0.5-1.1l-2.3-2.2
		l-0.1-0.1c-0.1-0.1-0.3-0.3-0.5-0.4c-0.2-0.1-0.3-0.2-0.5-0.3c-0.5-0.2-0.9,0.1-1,0.2c-0.2,0.2-0.6,0.7,0.1,1.6
		c0.2,0.3,0.5,0.6,0.8,1c0.3,0.3,0.5,0.6,0.7,0.9c-1.1,1.2-2.3,2.4-3.6,3.7c-1.3,1.3-2.5,2.6-3.7,3.8c-1.1,1.1-2.1,2.1-3.2,3.2
		c-1.1,1-2.1,2-3.2,2.9c-0.2,0.2-0.2,0.2-0.2,0.2c-0.1,0-0.2,0-0.2,0c-0.1,0-0.2-0.1-0.3-0.2l-0.4-0.4c-0.2-0.2-0.4-0.3-0.6-0.4
		c-0.5-0.2-1-0.2-1.3,0.2c-0.3,0.3-0.4,0.8,0,1.4c0.2,0.2,0.4,0.5,0.6,0.7l4.3,4.2c0.3,0.3,0.6,0.5,1,0.5c0.3,0,0.5-0.1,0.7-0.3
		c0.3-0.3,0.4-0.7,0.2-1.2c-0.1-0.3-0.3-0.6-0.5-0.8l-1.4-1.4L197.5,80l-5.3,20.5c-0.1,0.3-0.1,0.6,0,0.8c0.1,0.3,0.2,0.5,0.4,0.7
		c0.1,0.1,0.3,0.2,0.6,0.3c0.3,0.1,0.6,0.1,0.9,0c0.1-0.1,0.2-0.2,0.4-0.3l3.6-3.7c0.7-0.7,1.3-1.3,1.9-2l1.6-1.6
		c0.8-0.8,1.5-1.5,2.1-2.1l5.4-5.3c0.1,0,0.2,0.1,0.3,0.2c0.2,0.1,0.4,0.3,0.5,0.4c0.2,0.2,0.3,0.3,0.3,0.3c0.2,0.2,0.4,0.4,0.6,0.5
		c0.4,0.3,0.8,0.3,1.1,0.1c0,0.2,0.1,0.4,0.2,0.6c0.1,0.2,0.4,0.4,0.6,0.7c0.1,0.1,0.3,0.3,0.4,0.4c0.1,0.1,0.2,0.2,0.3,0.4
		c0.1,0.1,0.1,0.2,0,0.4c-0.5,0.5-0.9,0.9-1.3,1.4l-3,3.2c-0.6,0.6-1.2,1.3-2,2l-1.7,1.7c-0.5,0.5-0.9,0.9-1.3,1.3
		c-0.4,0.4-0.7,0.7-1,1c-0.3,0.3-0.6,0.6-0.9,0.9c-0.3,0.3-0.7,0.6-1,1l-1,1l-0.3,0.3c-0.1,0-0.4-0.2-1.2-1
		c-0.3-0.3-0.6-0.5-0.8-0.7c-0.5-0.2-0.9-0.1-1.3,0.2c-0.1,0.1-0.6,0.7,0.1,1.5c0.2,0.2,0.4,0.5,0.6,0.7c0.8,0.8,1.7,1.6,2.5,2.4
		c0.8,0.8,1.6,1.6,2.4,2.4c0.8,0.8,1.6,1.6,2.3,2.4c0.8,0.8,1.6,1.6,2.4,2.4c0.3,0.3,0.6,0.6,0.9,0.7c0.4,0.2,0.7,0.1,1-0.1
		c0.3-0.1,0.5-0.3,0.6-0.4c0.4-0.4,0.9-0.8,1.5-1.3l1.6-1.4c0.5-0.5,1-0.9,1.3-1.2c0.4-0.4,0.7-0.6,0.8-0.7c0.2-0.2,0.4-0.4,0.5-0.6
		c0.2-0.4,0.3-0.9-0.2-1.5c-0.3-0.2-0.6-0.3-1.1-0.2c-0.3,0.1-0.6,0.3-1,0.6l-1,0.9c-0.4,0.4-0.8,0.7-1.2,1.1l-2,1.7
		c-0.2,0.1-0.2,0.2-0.4,0.1c-0.1-0.1-0.2-0.1-0.2-0.2l-6.1-6l6.2-6.3c0.2,0.2,0.4,0.4,0.6,0.6c0.4,0.4,0.8,0.7,1.1,1.1
		c0.4,0.4,0.7,0.7,0.9,0.9c0.2,0.3,0.5,0.5,0.7,0.8c0,0.1,0,0.3-0.1,0.4c-0.1,0.2-0.2,0.4-0.4,0.6c-0.2,0.2-0.3,0.4-0.5,0.6
		c-0.3,0.3-0.4,0.6-0.5,0.9c-0.1,0.6,0.1,0.9,0.3,1.1c0.2,0.2,0.5,0.3,0.8,0.3c0.5,0,0.9-0.3,1.1-0.6c0.4-0.4,0.7-0.8,1.1-1.2
		c0.3-0.4,0.7-0.8,1.1-1.1c0.4-0.4,0.7-0.7,1.1-1.1c0.4-0.4,0.8-0.7,1.2-1.1c0.2-0.2,0.3-0.4,0.4-0.6c0.1-0.2,0.3-0.7-0.3-1.3
		c-0.2-0.2-0.5-0.4-0.9-0.3c-0.2,0-0.4,0.1-0.6,0.2c-0.1,0.1-0.2,0.1-0.4,0.2l-0.7,0.6c-0.2,0.2-0.4,0.4-0.6,0.5
		c-0.1,0.1-0.2,0.2-0.3,0.2c0,0-0.1-0.1-0.1-0.1l-1.2-1.1c-0.2-0.2-0.4-0.4-0.6-0.6c-0.4-0.4-0.7-0.8-1.1-1.1l-0.6-0.7l5.8-5.9
		l5.6,5.5c0,0,0.1,0.1,0.2,0.2l-2.2,2.2c-0.2,0.2-0.4,0.5-0.6,0.7c-0.3,0.5-0.3,1.1,0.2,1.6c0.4,0.4,1,0.4,1.5,0.1
		c0.3-0.2,0.5-0.4,0.8-0.7l2.7-2.7c0.4-0.4,0.6-0.8,0.6-1.2C224.4,98.6,224.3,98.2,223.9,97.8"/>
	<path class="st0" d="M100.8,70.5c-0.2,0.1-0.4,0.2-0.6,0.4l-5,5.1c-0.4,0.4-0.6,0.7-0.6,1.1c-0.1,0.5,0.1,0.8,0.3,1
		c0.4,0.4,1,0.4,1.5,0.1c0.2-0.2,0.4-0.3,0.5-0.5c0.1-0.1,0.3-0.3,0.5-0.5c0.2-0.2,0.3-0.3,0.5-0.4c0.1-0.1,0.2-0.1,0.3-0.1
		c0.1,0.1,0.2,0.3,0.4,0.6c0.3,0.4,0.6,1,1,1.7l1.4,2.4c0.5,0.9,1,1.8,1.6,2.7l4.1,7.2c-0.3-0.1-0.5-0.3-0.8-0.4l-3.9-2.2
		c-1.4-0.8-3-1.7-4.6-2.6c-1.7-1-3.4-2-5.3-3.2c0,0-0.1-0.1-0.2-0.1c-0.2-0.1-0.4-0.2-0.6-0.3c-0.2-0.1-0.4-0.1-0.7-0.1
		c-0.4,0-0.7,0.1-1,0.4c-0.4,0.4-0.5,1-0.2,1.5c0.1,0.3,0.3,0.6,0.5,0.9l0.9,1.5c0.4,0.6,0.8,1.4,1.2,2.2l1.5,2.6
		c0.5,0.9,1,1.8,1.5,2.7c0.8,1.5,1.7,3,2.6,4.6c-0.4-0.2-0.8-0.4-1.2-0.6c-1.3-0.7-2.5-1.3-3.8-2c-1.3-0.7-2.6-1.3-3.8-2
		c-1.2-0.6-2.4-1.2-3.3-1.8c-1-0.5-1.8-1-2.5-1.4c-0.5-0.3-0.7-0.4-0.9-0.5c0.1-0.2,0.2-0.3,0.4-0.5c0.2-0.3,0.5-0.5,0.6-0.8
		c0.4-0.6,0.3-1.2,0-1.5c-0.3-0.3-0.7-0.4-1.1-0.2c-0.2,0.1-0.5,0.3-0.8,0.6l-4.3,4.4c-0.3,0.3-0.5,0.6-0.6,0.8
		C76,93.3,76,93.5,76,93.7c-0.1,0.1-0.1,0.1-0.1,0.1l-3.8,3.8c-0.1,0.1-0.3,0.3-0.5,0.6c-0.4,0.6-0.2,1.2,0.1,1.5
		c0.3,0.3,0.9,0.5,1.5,0.1c0.2-0.2,0.5-0.3,0.6-0.5c0.1-0.1,0.3-0.3,0.5-0.5c0.2-0.2,0.3-0.3,0.5-0.4c0.1,0,0.1-0.1,0.2-0.1
		l11.3,11.1l-1.2-0.3c-0.9-0.3-2-0.5-3.1-0.8c-1.1-0.3-2.3-0.6-3.5-0.9c-1.2-0.3-2.4-0.6-3.5-0.9c-1.2-0.3-2.3-0.6-3.3-0.8l-2.8-0.7
		c-0.8-0.2-1.4-0.4-1.9-0.5c-0.8-0.2-1.1-0.2-1.2-0.2c-0.3,0-0.7,0.1-1.1,0.5l-2.4,2.4c-0.1,0.1-0.3,0.3-0.4,0.5
		c-0.1,0.2-0.2,0.3-0.3,0.5c-0.2,0.4-0.1,0.8,0.2,1.1c0.2,0.2,0.7,0.6,1.6-0.1c0.3-0.2,0.6-0.5,1-0.8c0.3-0.3,0.6-0.5,0.9-0.7
		c1.2,1.1,2.4,2.3,3.7,3.6c1.3,1.3,2.6,2.5,3.8,3.7c1.1,1.1,2.1,2.1,3.2,3.2c1,1.1,2,2.1,2.9,3.2c0.1,0.1,0.2,0.2,0.2,0.3
		c0,0.1,0,0.2,0,0.2c0,0.1-0.1,0.2-0.2,0.3c-0.1,0.2-0.3,0.3-0.4,0.4c-0.2,0.2-0.3,0.4-0.4,0.6c-0.2,0.5-0.2,1,0.2,1.3
		c0.3,0.2,0.7,0.4,1.2,0.1c0.1,0,0.1-0.1,0.2-0.1c0.2-0.2,0.5-0.4,0.7-0.6l4.2-4.3c0.7-0.7,0.5-1.4,0.1-1.7
		c-0.3-0.3-0.7-0.4-1.2-0.2c-0.3,0.1-0.6,0.3-0.8,0.5l-1.4,1.4l-11.7-11.5l20.5,5.3c0.3,0.1,0.6,0.1,0.8,0c0.3-0.1,0.5-0.2,0.7-0.4
		c0.1-0.1,0.2-0.3,0.4-0.6c0.2-0.4,0.1-0.9-0.3-1.3l-3.7-3.6c-0.7-0.7-1.3-1.3-2-1.9l-1.6-1.6c-0.8-0.8-1.5-1.5-2.1-2.1l-3.4-3.5
		c-0.5-0.5-1.2-1.2-1.9-1.9c0-0.1,0.1-0.2,0.2-0.3c0.1-0.2,0.3-0.4,0.4-0.5l0.3-0.4c0.2-0.2,0.4-0.4,0.5-0.6
		c0.2-0.3,0.3-0.6,0.2-0.9c0.6-0.6,1-0.9,1.2-1c0.2-0.1,0.4-0.1,0.4-0.1c1.8,0.9,3.6,1.7,5.2,2.6c1.7,0.8,3.3,1.7,4.9,2.5
		c1.6,0.8,3.2,1.7,4.8,2.5c1.6,0.8,3.2,1.7,4.8,2.5c0.3,0.2,0.7,0.2,1,0.2c0.2,0,0.3-0.1,0.4-0.1c0.1-0.1,0.2-0.1,0.3-0.2
		c0.3-0.3,0.4-0.8,0.3-1.2c-0.1-0.3-0.2-0.5-0.3-0.6c-0.3-0.6-0.7-1.3-1.2-2.1c-0.4-0.8-0.9-1.6-1.4-2.4l-1.5-2.6
		c-0.5-0.9-1-1.8-1.5-2.6c-0.7-1.3-1.4-2.5-2.2-3.9l0.8,0.5c0.9,0.5,1.9,1.1,3,1.7l3.5,2c1.2,0.7,2.4,1.4,3.7,2.1l3.5,1.9
		c0.5,0.3,0.9,0.4,1.3,0.3c0.3-0.1,0.6-0.2,0.8-0.3l0.3,0.1l-0.1-0.3c0.2-0.2,0.3-0.4,0.4-0.7c0.1-0.4,0-0.8-0.3-1.3l-2.2-3.9
		c-0.7-1.2-1.3-2.2-1.9-3.2c-0.6-1-1.1-1.9-1.6-2.8c-0.5-0.9-1-1.7-1.5-2.6l-3.2-5.3c-0.1-0.2-0.2-0.4,0.1-0.8
		c0.1-0.1,0.2-0.2,0.3-0.4l0.9-1.1c0.2-0.2,0.3-0.3,0.4-0.5c0.2-0.2,0.4-0.4,0.4-0.7c0.1-0.4,0-0.7-0.3-1
		C101.7,70.4,101.2,70.3,100.8,70.5"/>
	<path class="st0" d="M120.6,215.5c-0.4,0-0.7,0.2-1.1,0.6c0,0-0.1,0.1-0.1,0.1c-0.1-0.6-0.3-1.3-0.5-1.9c-0.3-0.6-0.6-1.2-1-1.8
		c-0.4-0.6-0.8-1.1-1.3-1.5c-0.5-0.5-1.1-0.9-1.8-1.4c-0.7-0.5-1.5-0.8-2.3-1c-0.8-0.2-1.6-0.3-2.4-0.1c-0.9,0.1-1.7,0.6-2.4,1.3
		c-0.7,0.7-1,1.6-1,2.7c0,0.9,0.2,1.9,0.5,2.9c0.3,1,0.6,1.9,1.1,2.8c0.4,0.8,0.7,1.6,0.9,2.1c0.2,0.6,0.4,1.1,0.6,1.7
		c0.2,0.5,0.2,1.1,0.2,1.6c0,0.5-0.1,1.1-0.4,1.6c-0.2,0.5-0.6,1.1-1.2,1.7c-0.5,0.5-1.2,1-1.9,1.3c-0.7,0.3-1.5,0.5-2.2,0.6
		c-0.7,0.1-1.5,0-2.2-0.3c-0.7-0.2-1.3-0.6-1.9-1.1c-0.4-0.4-0.8-0.9-1-1.5c-0.2-0.6-0.2-1.2-0.2-1.8c0.1-0.7,0.3-1.4,0.6-2.1
		c0.4-0.7,0.9-1.5,1.4-2.2c0.3-0.3,0.6-0.7,0.8-1c0.5-0.7,0.3-1.3-0.1-1.7c-0.2-0.2-0.4-0.3-0.6-0.4l0.1-0.3l-0.2,0.3
		c-0.2,0-0.4,0-0.7,0.1c-0.2,0.1-0.5,0.3-0.7,0.6c-0.4,0.4-0.8,0.8-1.1,1.2c-0.3,0.3-0.6,0.7-1,1.1c-0.5,0.5-1,0.9-1.5,1.4
		c-0.3,0.3-0.6,0.6-0.9,0.9c-0.1-0.1-0.2-0.2-0.3-0.4c-0.7-0.7-1.1-1.2-1.2-1.4c-0.1-0.2-0.1-0.4-0.1-0.4c0.9-1.8,1.7-3.6,2.6-5.2
		c0.8-1.7,1.7-3.3,2.5-4.9l2.5-4.8c0.8-1.6,1.7-3.2,2.5-4.8c0.2-0.3,0.2-0.7,0.2-1c0-0.3-0.2-0.6-0.4-0.8c-0.3-0.3-0.8-0.5-1.2-0.3
		c-0.2,0.1-0.5,0.2-0.6,0.3c-0.6,0.3-1.3,0.7-2.1,1.2c-0.8,0.4-1.6,0.9-2.4,1.4l-2.6,1.5c-0.9,0.5-1.8,1-2.6,1.5
		c-1.3,0.7-2.5,1.4-3.9,2.2l0.5-0.8c0.5-0.9,1.1-1.9,1.7-3l2-3.5c0.7-1.2,1.4-2.4,2.1-3.7l1.9-3.5c0.3-0.5,0.4-0.9,0.3-1.3
		c-0.1-0.3-0.2-0.6-0.3-0.8l0.2-0.3l-0.3,0.1c-0.2-0.2-0.4-0.3-0.7-0.4c-0.4-0.1-0.8,0-1.3,0.3c-1.4,0.8-2.7,1.6-3.9,2.2
		c-1.2,0.7-2.2,1.3-3.2,1.9l-2.8,1.6c-0.9,0.5-1.8,1-2.6,1.5l-5.3,3.2c-0.2,0.1-0.4,0.2-0.8-0.1c-0.1-0.1-0.2-0.2-0.4-0.3l-1.1-0.9
		c-0.2-0.2-0.3-0.3-0.5-0.4c-0.2-0.2-0.4-0.4-0.7-0.4c-0.4-0.1-0.7,0-1,0.3c-0.3,0.3-0.4,0.7-0.2,1.2c0.1,0.2,0.2,0.4,0.4,0.6l5.1,5
		c0.4,0.4,0.7,0.6,1.1,0.6c0.5,0.1,0.8-0.1,1-0.3c0.4-0.4,0.4-1,0.1-1.5c-0.2-0.2-0.3-0.4-0.5-0.5c-0.1-0.1-0.3-0.3-0.5-0.5
		c-0.2-0.2-0.3-0.3-0.4-0.5c-0.1-0.1-0.1-0.2-0.1-0.2c0.1-0.1,0.3-0.2,0.6-0.4c0.4-0.3,1-0.6,1.7-1l2.4-1.4c0.9-0.5,1.8-1,2.7-1.6
		l7.2-4.1c-0.1,0.3-0.3,0.5-0.4,0.8l-2.2,3.9c-0.8,1.4-1.7,3-2.6,4.6c-1,1.7-2,3.4-3.2,5.3c0,0-0.1,0.1-0.1,0.2
		c-0.1,0.2-0.2,0.4-0.3,0.6c-0.1,0.2-0.1,0.4-0.1,0.7c0,0.4,0.1,0.7,0.4,1c0.4,0.4,1,0.5,1.5,0.2c0.3-0.1,0.6-0.3,0.9-0.5l6.2-3.5
		c0.9-0.5,1.8-1,2.7-1.5c1.5-0.8,3-1.7,4.6-2.6c-0.2,0.4-0.4,0.8-0.6,1.2c-0.7,1.3-1.3,2.5-2,3.8c-0.7,1.3-1.3,2.6-2,3.8
		c-0.6,1.2-1.2,2.4-1.8,3.3c-0.5,1-1,1.8-1.4,2.5c-0.3,0.4-0.4,0.7-0.5,0.9c-0.2-0.1-0.3-0.2-0.5-0.4c-0.3-0.2-0.5-0.5-0.8-0.6
		c-0.6-0.4-1.2-0.3-1.5,0c-0.3,0.3-0.4,0.7-0.2,1.1c0.1,0.2,0.3,0.5,0.6,0.8l4.4,4.3c0.3,0.3,0.6,0.5,0.8,0.6c0,0,0.1,0,0.1,0
		c0.1,0.2,0.2,0.4,0.3,0.6c0.4,0.4,1.2,0.6,1.9-0.1c0,0,0.1-0.1,0.2-0.2c0,0.4,0,0.8,0,1.2c0.2,1.4,0.8,2.6,1.9,3.7
		c0.7,0.7,1.5,1.2,2.5,1.6c1,0.4,2,0.6,3,0.6c1,0,2.1-0.2,3.1-0.5c0.3-0.1,0.5-0.2,0.8-0.3c0.7-0.4,1.4-0.9,2-1.5
		c0.9-0.9,1.5-1.8,1.9-2.7c0.4-0.9,0.5-1.8,0.6-2.6c0-0.8-0.1-1.6-0.3-2.4c-0.2-0.7-0.4-1.4-0.6-2c-0.3-0.7-0.6-1.5-0.9-2.3
		c-0.3-0.8-0.6-1.5-0.9-2.3c-0.2-0.7-0.4-1.4-0.4-1.9c0-0.5,0.1-0.8,0.4-1.1c0.3-0.3,0.6-0.5,1-0.6c0.4-0.1,0.9-0.1,1.4,0
		c0.5,0.1,1,0.3,1.5,0.6c0.5,0.3,1,0.7,1.4,1.1c0.6,0.6,1.1,1.3,1.4,1.9c0.3,0.7,0.5,1.3,0.6,1.9c0.1,0.6,0,1.1-0.2,1.6
		c-0.2,0.5-0.4,0.9-0.7,1.2c-0.3,0.3-0.6,0.7-0.8,1c-0.6,0.9-0.1,1.5,0.1,1.7c0.4,0.4,0.9,0.5,1.4,0.2c0.2-0.1,0.5-0.3,0.7-0.6
		c0.2-0.2,0.4-0.4,0.5-0.6c0.1-0.1,0.3-0.3,0.4-0.4c0.1-0.2,0.3-0.3,0.4-0.5c0.1-0.1,0.3-0.3,0.5-0.5c0.1-0.1,0.3-0.3,0.5-0.5
		c0.2-0.2,0.4-0.4,0.6-0.6c0.2-0.2,0.4-0.4,0.6-0.5c0.2-0.2,0.3-0.3,0.4-0.4c0.2-0.2,0.3-0.4,0.4-0.8c0.1-0.4,0-0.8-0.3-1.1
		C121.1,215.5,120.8,215.5,120.6,215.5"/>
	<path class="st0" d="M223.8,195.9c-0.9-0.4-1.8-0.5-2.6-0.6c-0.8,0-1.6,0.1-2.4,0.3c-0.7,0.2-1.4,0.4-2,0.6
		c-0.7,0.3-1.5,0.6-2.3,0.9c-0.8,0.3-1.5,0.6-2.3,0.9c-0.7,0.2-1.4,0.4-1.9,0.4c-0.5,0-0.8-0.1-1.1-0.4c-0.3-0.3-0.5-0.7-0.6-1.1
		c-0.1-0.4-0.1-0.9,0-1.4c0.1-0.5,0.3-1,0.6-1.5c0.3-0.5,0.7-1,1.1-1.4c0.6-0.6,1.3-1.1,1.9-1.4l0,0c0.6-0.3,1.3-0.5,1.8-0.6
		c0.6-0.1,1.1,0,1.6,0.2c0.5,0.2,0.9,0.4,1.2,0.7c0.3,0.3,0.7,0.6,1,0.8c0.6,0.4,1.2,0.3,1.7-0.1c0.4-0.4,0.5-0.9,0.2-1.4
		c-0.1-0.2-0.3-0.5-0.6-0.7c-0.2-0.2-0.4-0.4-0.6-0.5c-0.1-0.1-0.3-0.3-0.4-0.4c-0.2-0.1-0.3-0.3-0.5-0.4c-0.1-0.1-0.3-0.3-0.5-0.5
		c-0.1-0.1-0.3-0.3-0.5-0.5c-0.2-0.2-0.4-0.4-0.6-0.6c-0.2-0.2-0.4-0.4-0.5-0.6c-0.2-0.2-0.3-0.3-0.4-0.4c-0.2-0.2-0.4-0.3-0.8-0.4
		c-0.4-0.1-0.8,0-1.2,0.3c-0.4,0.4-0.6,1.2,0.2,2c0,0,0.1,0.1,0.1,0.1c-0.6,0.1-1.3,0.3-1.9,0.5c-0.6,0.3-1.2,0.6-1.8,1
		c-0.6,0.4-1.1,0.8-1.5,1.3c-0.5,0.5-0.9,1.1-1.4,1.8c-0.4,0.7-0.8,1.5-1,2.3c-0.2,0.8-0.3,1.6-0.2,2.4c0.1,0.9,0.6,1.7,1.3,2.4
		c0.7,0.7,1.6,1,2.7,1c0.9,0,1.9-0.2,2.9-0.5c1-0.3,1.9-0.6,2.8-1.1c0.8-0.4,1.6-0.7,2.1-0.9c0.6-0.2,1.1-0.4,1.7-0.6
		c0.5-0.2,1.1-0.2,1.6-0.2c0.5,0,1.1,0.1,1.6,0.4c0.5,0.2,1.1,0.6,1.7,1.2c0.6,0.5,1,1.2,1.3,1.9c0.3,0.7,0.5,1.5,0.6,2.2
		c0.1,0.7,0,1.5-0.3,2.2c-0.2,0.7-0.6,1.3-1.1,1.9c-0.4,0.5-0.9,0.8-1.5,1c-0.6,0.2-1.2,0.2-1.8,0.2c-0.7-0.1-1.4-0.3-2.1-0.6
		c-0.7-0.4-1.5-0.9-2.2-1.4c-0.3-0.3-0.7-0.6-1-0.8c-0.7-0.5-1.3-0.3-1.7,0.1c-0.2,0.2-0.3,0.4-0.4,0.6l-0.2-0.1l0.2,0.2
		c0,0.2,0,0.5,0.1,0.7c0.1,0.2,0.3,0.5,0.6,0.7c0.4,0.4,0.8,0.8,1.1,1.1c0.3,0.3,0.7,0.6,1.1,1c0.5,0.5,0.9,1,1.4,1.5
		c0.5,0.5,1,1,1.4,1.5c0.2,0.2,0.4,0.3,0.8,0.4c0.3,0.1,0.6,0,0.8-0.1c0.1-0.1,0.2-0.1,0.4-0.3c0.4-0.4,0.6-1.2-0.1-1.9
		c0,0-0.1-0.1-0.2-0.2c0.4,0,0.8,0,1.2,0c1.4-0.2,2.6-0.8,3.7-1.9c0.7-0.7,1.2-1.5,1.6-2.5c0.4-1,0.6-2,0.6-3c0-1-0.2-2.1-0.5-3.1
		c-0.4-1.1-1-2-1.8-2.8C225.6,196.9,224.7,196.3,223.8,195.9"/>
	<path class="st0" d="M218.6,213.5c-0.2,0.1-0.4,0.4-0.7,0.6c-0.1,0.1-0.3,0.3-0.4,0.4c-0.2,0.2-0.4,0.5-0.7,0.3
		c-0.5-0.5-0.9-0.9-1.4-1.3l-3.2-3c-0.6-0.6-1.3-1.2-2-2l-1.7-1.7c-0.5-0.5-0.9-0.9-1.3-1.3c-0.4-0.4-0.7-0.7-1-1
		c-0.3-0.3-0.6-0.6-0.9-0.9c-0.3-0.3-0.6-0.7-1-1l-1.3-1.3c0-0.1,0.2-0.4,1-1.2c0.3-0.3,0.5-0.6,0.7-0.8c0.2-0.5,0.1-1-0.2-1.3
		c-0.1-0.1-0.7-0.6-1.5,0.1c-0.2,0.2-0.5,0.4-0.7,0.6c-0.8,0.8-1.6,1.7-2.4,2.5c-0.8,0.8-1.6,1.6-2.4,2.4c-0.8,0.8-1.6,1.6-2.4,2.4
		c-0.8,0.8-1.6,1.6-2.4,2.4c-0.3,0.3-0.6,0.6-0.7,0.9c-0.3,0.7,0.3,1.4,0.5,1.6c0.4,0.4,0.8,0.9,1.3,1.5l1.4,1.6
		c0.4,0.5,0.9,1,1.2,1.3c0.4,0.4,0.6,0.7,0.7,0.8c0.2,0.2,0.4,0.4,0.6,0.5c0.4,0.2,0.9,0.3,1.5-0.2c0.3-0.3,0.3-0.6,0.2-1.1
		c-0.1-0.3-0.3-0.6-0.6-1l-3.7-4.2c-0.1-0.2-0.2-0.2-0.1-0.4c0.1-0.1,0.1-0.2,0.2-0.2l6-6.1l6.3,6.2l-0.6,0.6
		c-0.4,0.4-0.7,0.8-1.1,1.1c-0.4,0.4-0.7,0.7-0.9,0.9c-0.2,0.2-0.5,0.5-0.8,0.7c-0.1,0-0.3,0-0.4-0.1c-0.2-0.1-0.4-0.2-0.6-0.4
		c-0.2-0.2-0.4-0.3-0.6-0.5c-0.3-0.3-0.6-0.4-0.9-0.5c-0.4-0.1-0.8,0-1.1,0.3c-0.2,0.2-0.3,0.5-0.3,0.8c0,0.5,0.3,0.9,0.6,1.1
		c0.4,0.4,0.8,0.7,1.2,1.1c0.4,0.4,0.8,0.7,1.1,1.1c0.4,0.4,0.7,0.7,1.1,1.1c0.4,0.4,0.7,0.8,1.1,1.2c0.2,0.2,0.4,0.3,0.6,0.5
		c0.4,0.2,0.9,0.1,1.3-0.3c0.2-0.2,0.3-0.5,0.3-0.8c0-0.2-0.1-0.4-0.2-0.6c-0.1-0.1-0.2-0.3-0.2-0.4l-0.6-0.7
		c-0.2-0.2-0.4-0.4-0.5-0.6c-0.1-0.1-0.1-0.2-0.2-0.3c0,0,0.1-0.1,0.1-0.1l1.1-1.2c0.2-0.2,0.4-0.4,0.6-0.6c0.4-0.4,0.7-0.7,1.1-1.1
		l0.6-0.6l5.9,5.8l-5.5,5.6c0,0-0.1,0.1-0.2,0.2l-2.2-2.2c-0.2-0.2-0.5-0.4-0.7-0.6c-0.5-0.3-1.1-0.3-1.5,0.2
		c-0.3,0.3-0.5,0.9-0.1,1.5c0.2,0.3,0.4,0.5,0.7,0.8l2.7,2.6c0.4,0.4,0.8,0.6,1.2,0.6c0.2,0,0.4,0,0.6-0.1c0.2-0.1,0.3-0.2,0.5-0.4
		c0.6-0.6,1.1-1.1,1.4-1.4c0.3-0.4,0.7-0.7,1-1c0.3-0.3,0.6-0.6,0.9-0.9c0.3-0.3,0.7-0.7,1.2-1.2c0.2-0.3,0.6-0.6,0.9-0.9
		c0.4-0.4,0.8-0.8,1.2-1.2c0.4-0.4,0.9-0.9,1.3-1.3c0.5-0.5,0.9-0.9,1.4-1.4c0.2-0.2,0.4-0.5,0.6-0.8c0.3-0.5,0.3-1.1-0.1-1.5
		C219.6,213.2,219.1,213.1,218.6,213.5"/>
	<path class="st0" d="M136.2,49.4l9.4-17.8c0.6-1.2,2.4-1.2,3,0l9.5,18.7c0.8,1.6-1,3.2-2.5,2.2l-7.5-5.3c-0.5-0.4-1.3-0.4-1.8-0.1
		l-7.8,4.5C137.1,52.6,135.4,50.9,136.2,49.4"/>
	<path class="st0" d="M134.6,50.3l4.1-2.4c0.6-0.8,1.1-1.4,1.4-1.9c0.8-1.3,1.6-2.6,2.4-3.9c0.8-1.4,1.6-2.7,2.4-4
		c0.4-0.7,0.8-1.4,1.2-2l0.3-0.5c0.1-0.1,0.2-0.4,0.2-0.4l0.1-0.1c0.1-0.1,0.3-0.1,0.4,0.1c0,0.1,0,0.1,0,0.2
		c-0.1-0.1,0.2,0.4,0.3,0.7l0.5,1.1c1.4,2.9,2.9,5.9,4.4,8.8l0.3,0.5c0.1,0.2,0,0.1,0.1,0.1l0,0c0,0,0,0,0,0c0,0,0.2,0.2,0.1,0.3
		c0,0.1-0.1,0.1-0.2,0.1l-0.1,0l-0.1,0l-0.5-0.3c-0.8-0.5-1.6-1-2.4-1.5c-1.1-0.7-2.5-1-3.7-0.5c-0.6,0.2-1.2,0.6-1.7,0.9l-0.9,0.6
		l-0.9,0.6l-0.5,0.3c-0.2,0.1-0.3,0.2-0.3,0.2l-0.6,0.5c-0.4,0.2-0.7,0.7-1.3,0.9c-0.6,0.2-1.2-0.3-1-0.8L134.6,50.3
		c-0.1,0.5,0,1.3,0.4,1.9c0.4,0.6,1,1.1,1.6,1.3c0.6,0.2,1.1,0.2,1.7,0.1c0.6-0.1,1.3-0.1,2.1-0.6c1.1-0.6,2.2-1.2,3.3-1.7
		c0.7-0.4,1.4-0.7,2.1-1.1l1-0.5c0.1,0,0.2-0.1,0.2-0.1c0.1,0,0.3,0.1,0.4,0.2c-0.1,0,0.3,0.3,0.7,0.5l1,0.8
		c1.1,0.8,2.3,1.7,3.4,2.5c0.6,0.4,1.3,1,1.9,1.3c0.6,0.4,1.2,0.5,1.7,0.6c1,0.1,1.5,0.2,2.5-0.2c1-0.3,2-1.3,2.4-2.1
		c0.2-0.5,0.3-0.8,0.4-1.1c0.1-0.4,0.2-0.7,0.1-1.3c0-0.2,0-0.5-0.1-0.8c0-0.3-0.2-0.6-0.3-1c-0.3-0.7-0.7-1.4-1.1-2.2l-1.9-3.7
		c-1.5-2.9-3-5.8-4.5-8.7c-0.5-0.8-0.9-1.7-1.4-2.5c-0.4-0.7-0.7-1.4-1.1-2.1c-0.4-0.6-0.9-1-1.4-1.3c-1-0.6-2.4-0.9-3.7-0.5
		c-1.2,0.4-2,1.1-2.8,2.5l-1,2l-0.6,1.2c-0.3,0.7-0.7,1.4-1,2.1c-0.6,1.4-1.3,2.8-2,4.3c-0.6,1.4-1.3,2.9-2,4.4
		c-0.5,1.1-1,2.2-1.5,3.3C134.7,48.9,134.7,49.7,134.6,50.3"/>
</g>
</svg>
