<?xml version="1.0" encoding="utf-8"?>
<!-- Generator: Adobe Illustrator 23.0.0, SVG Export Plug-In . SVG Version: 6.00 Build 0)  -->
<svg version="1.1" id="Capa_1" xmlns="http://www.w3.org/2000/svg" xmlns:xlink="http://www.w3.org/1999/xlink" x="0px" y="0px"
	 viewBox="0 0 33 33" style="enable-background:new 0 0 33 33;" xml:space="preserve">
<style type="text/css">
	.st0{fill-rule:evenodd;clip-rule:evenodd;fill:#343C4A;}
</style>
<g>
	<path class="st0" d="M31.5,33H1.5C0.7,33,0,32.3,0,31.5V5.7c0-0.9,0.7-1.5,1.5-1.5h3.1v1.5c0,2,1.6,3.6,3.6,3.6
		c2,0,3.6-1.6,3.6-3.6V4.1h9.3v1.5c0,2,1.6,3.6,3.6,3.6c2,0,3.6-1.6,3.6-3.6V4.1h3.1c0.9,0,1.5,0.7,1.5,1.5v25.8
		C33,32.3,32.3,33,31.5,33 M29.9,12.4H3.1v17.5h26.8V12.4z M11.3,19.6c0.4,0,0.8,0.2,1.1,0.5l2.5,2.5l6.1-6.1
		c0.3-0.3,0.7-0.5,1.1-0.5c0.9,0,1.5,0.7,1.5,1.5c0,0.4-0.2,0.8-0.5,1.1L16,25.8c-0.3,0.3-0.7,0.5-1.1,0.5c-0.4,0-0.8-0.2-1.1-0.5
		l-3.6-3.6C10,22,9.8,21.6,9.8,21.1C9.8,20.3,10.5,19.6,11.3,19.6 M24.8,7.2c-0.9,0-1.5-0.7-1.5-1.5V1.5c0-0.9,0.7-1.5,1.5-1.5
		c0.9,0,1.5,0.7,1.5,1.5v4.1C26.3,6.5,25.6,7.2,24.8,7.2 M8.3,7.2c-0.9,0-1.5-0.7-1.5-1.5V1.5C6.7,0.7,7.4,0,8.3,0
		c0.9,0,1.5,0.7,1.5,1.5v4.1C9.8,6.5,9.1,7.2,8.3,7.2"/>
</g>
</svg>
