<?xml version="1.0" encoding="utf-8"?>
<!-- Generator: Adobe Illustrator 23.0.0, SVG Export Plug-In . SVG Version: 6.00 Build 0)  -->
<svg version="1.1" id="Capa_1" xmlns="http://www.w3.org/2000/svg" xmlns:xlink="http://www.w3.org/1999/xlink" x="0px" y="0px"
	 viewBox="0 0 270 270" style="enable-background:new 0 0 270 270;" xml:space="preserve">
<style type="text/css">
	.st0{fill-rule:evenodd;clip-rule:evenodd;fill:#ABA797;}
	.st1{fill:#343C4A;}
</style>
<g>
	<path class="st0" d="M148,19.2c-0.5,2-0.1,2.2,0,4.4h1.1c0.1-1.4,0.2-2.8,0.4-4.1C149.2,19.3,148.8,19.1,148,19.2"/>
	<path class="st0" d="M60.9,29.8c-1.2,1.1-2.5,2.2-3.8,3.4C58.5,32.2,60.1,31.2,60.9,29.8"/>
	<path class="st0" d="M14.8,108.4c-0.1-0.1-0.1-0.2-0.2-0.4c-0.1,0.1-0.2,0.2-0.3,0.3C14.5,108.3,14.6,108.3,14.8,108.4"/>
	<path class="st0" d="M163.2,18.2c0.3,0.4,0.5,0.8,0.5,1.5c3.4-2.7,6.6,1.8,8.3,2.4c2.4-1.2,5.7-0.6,6.4,2.4c0.4-0.3,0.9-0.6,1,0
		c1.4-0.2,0.1-3.1,2.4-2.4c-1.7-3-5.8-3.7-6.9-7.4c4.4,0.7,5.1,3,8.8,2.9c0.1,1.6,2.6,2.1,1.5,3.4c1,0.2,0.9-0.7,1-1.5
		c2,0.5,0.5,3.4,0.5,4.9c-1.6-0.5-3.1-1.2-3.9-2.4c-0.5,0.6-0.2,1.6,0,2.9c1.6,1.1,4.2,3,6.9,4.4c0.1-1.3-3.4-4.1-1.5-7.3
		c0.7,1.6,1.6,2.9,2,4.9c1.6-0.5,1.2-1.4,2,0.5c0.6-0.1,0.4-0.9,0.5-1.5c0.9,0.1,1.1,0.8,1,2c1.8-1.1,0.2-1.9,0-3.9
		c0.4,0.3,0.9,0.6,1,0c1.7,2.1,6.9,3.1,5.9,6.4c1-0.2,1.5,0.1,1.5,1c1.1-0.9,1.9-1,2.6-0.6c-13-10.8-28.5-19.1-48.7-22.7
		c-2.3,1.4-3.1,4.4-3.5,7.7C155.8,16.9,159.8,18.6,163.2,18.2"/>
	<path class="st0" d="M211.2,39.8c0.9,0,1.6-0.3,2.1-0.8c-0.7-0.7-1.4-1.4-2.2-2.1C211.4,37.7,211.1,38.9,211.2,39.8"/>
	<path class="st0" d="M70.1,23.1c6.6-1.9,15.6-5.6,22-9.3c7.9-1.3,18,0.7,24.6-1.5c5.7,1.1,13.3,1,19,1.5c-1.3,2.2,4.1,1.3,6.4,1.5
		c0.4,0.3,1.1,2.7,0,2.9c-2,0.2,0.7-1.5-2-1c-1.1,0.2-0.2,2.4-0.5,3.4c2.4,1.8,4,0.1,6.4,2.4c1.1-2.4-0.5-2.6,1.5-3.4
		c-1.6,0.1-1.5-1.8-4.4-1.5c1.5-3.2,4.1-3.6,7.1-2.9c0.4-2.9,0.4-5.7-0.8-8.4C123.1,6,83.2-0.2,68.5,21c-0.6-2.5,4-5.5-1.3-5.1
		C64.1,17,59.8,17,59.5,21c-3.6,2.1,2.8,4.8,2.6,7.7c-0.1,0.1-0.1,0.1-0.2,0.2C65.7,28,69.4,27.1,70.1,23.1"/>
	<path class="st0" d="M205.8,35.9c1.9-4.6,2.5,3,4.4,0c-1.7-1.6-3.5-3.2-5.3-4.7C205.7,32.1,206.1,34,205.8,35.9"/>
	<path class="st0" d="M17.7,181.4c0.6,0,0.9-0.3,1-0.7c-0.4-0.9-0.7-1.8-1.1-2.7C16.5,179.5,18.9,179.7,17.7,181.4"/>
	<path class="st0" d="M50,228.9c0.7,1.1,1,2.6,2.5,2.9c-0.4-1.9-0.6-1.7-1-2.9C51.4,229.6,50.4,229.2,50,228.9"/>
	<path class="st0" d="M122.1,255.3c-0.3-0.4-2.9-1.3-2.5,0.5C120.9,256.1,121.3,256.5,122.1,255.3"/>
	<path class="st0" d="M127,255.8c0.9,1.3,3.6,1.3,3.9-0.5C130,254,127.3,254,127,255.8"/>
	<path class="st0" d="M138.7,251.9c-3.8,0.4-7.7-1.7-8.8,0C133.9,251.4,135.9,253.9,138.7,251.9"/>
	<path class="st0" d="M132.4,255.3c0.7,0.7,3.9,1,3.9-0.5C135.2,253.3,133.2,254.1,132.4,255.3"/>
	<path class="st0" d="M140.7,252.4c1.9,0.3,5.9,2.3,7.3,0C144.3,252.9,143.5,250.7,140.7,252.4"/>
	<path class="st0" d="M147,245.5c-1.3-0.1-1.6,0.7-1.5,2C147.2,248,147.2,246.8,147,245.5"/>
	<path class="st0" d="M153.9,252.4c0.7,0.8,2.1,0,2.5-1C155.4,251.6,153.4,250.8,153.9,252.4"/>
	<path class="st0" d="M161.3,232.8v1.5c1-0.3,3.4,0.8,2.9-1C163.8,232.8,163,233,161.3,232.8"/>
	<path class="st0" d="M183.8,226.9c5-5,9.3-10.6,15.7-14.2c1.3-0.5,2.3-0.8,2.9,0.5c-0.6-3.2,2.3-0.5,1-3.4c1,0.3,1.6,1,2.4,1.5
		c0.3-2-2.1-1.2-2-2.9c1.3-1.4,4.3-0.9,4.9-2.9c-2.2-1.4,3.5-7.3,5.4-11.8c1.3-3.1,1.7-2.5,2.9-4.4c0.4-0.7,0.1-1.9,0.5-2.5
		c0.4-0.5,1.5,0,2-0.5c1.1-1.1,0.2-3.7,2-2.9c-0.2-1.2-0.8-1.8-0.5-3.4c4.9-6.4,7-15.5,8.3-25.5c-5.6,18.9-16.7,32.3-24,49.5
		c-10.5,6-18.9,15.1-28.9,21.6c-3.2,2.1-7.2,2.8-9.3,6.4c6.3,0.6,8.8-2.7,12.2-4.9C181,227.8,181.6,226.7,183.8,226.9"/>
	<path class="st0" d="M170.6,238.7c-0.2,0.7-0.7,0.9-0.5,2h1.5C171.7,239.5,171.4,238.8,170.6,238.7"/>
	<path class="st0" d="M174,238.2c-0.1,1-2.2,0.1-2,1.5c0.3,0.7,1.9,0.1,2,1c0,0.7,0.1,1.9,0.5,1C174.2,240.6,175.1,238.4,174,238.2"
		/>
	<path class="st0" d="M198,218.6c1.6-0.4,1.9,0.4,2.4,1v-2c-1.1,0.2-1.9-0.1-2.4-0.5V218.6z"/>
	<path class="st0" d="M201.4,237.7c0.4,0.7,0.7,1.6,2,1.5c1.5-2.9,6.3-5.1,5.9-8.3C205.2,231.7,203.9,235.2,201.4,237.7"/>
	<path class="st0" d="M206.3,228.4c1.5,0,2.1-0.9,2.4-2C207.6,226.7,206.5,227.1,206.3,228.4"/>
	<path class="st0" d="M211.7,227.4c0.3,0,0.6,0.1,0.5,0.5c-1.1-1.1-1,1.4-2.5,1.5c1.7,0.5-1.4,0.2-0.5,1.5c1.3,1.2,2.6-0.7,3.9-1
		C213.2,228.8,212.6,225.9,211.7,227.4"/>
	<path class="st0" d="M233.3,51v2c8.1,4.7,12.1,13.4,19.1,19.1c-5.7-8.2-10.4-17.4-19.6-22c1-1.6-4.2-5.7-4.9-3.9
		C229.6,47.9,231.2,49.7,233.3,51"/>
	<path class="st0" d="M239.2,111.9c0,0.7,0,1.5,0,2.2C239.3,113.2,239.6,112.4,239.2,111.9"/>
	<path class="st0" d="M246.5,173c1.7,0.2,2.7-3.2,1-3.4C247.4,171,246.7,170.9,246.5,173"/>
	<path class="st0" d="M249,175.5c1.4-1.4,1.3-4.3,2-6.4C249.5,170.1,248.2,173.9,249,175.5"/>
	<path class="st0" d="M262.1,125.9c-0.1-1.7-0.3-3.1-1.4-3.8c2,6.9,2.1,13.5,2.9,21.1c1.6-18.8-3.5-38.3-10.8-53.4
		C256.2,101.2,261.7,112.8,262.1,125.9"/>
	<path class="st0" d="M255.8,120.6c0,0.5-1.4-1.9-1.5-2.9c-0.1,0.4-0.4,0.6-1,0.5c0.9,2.1,0.3,4,1.5,4.9
		C254.4,121.7,257.9,121.9,255.8,120.6"/>
	<path class="st0" d="M255.3,87.3c-1-0.7-0.3-3-1-3.9C253.9,77.7,253.2,89.7,255.3,87.3"/>
	<path class="st0" d="M255.3,128c-0.7,1.1-0.9,5.3,0,6.4c0.2-2.9,1.8-3.8,1-5.9C256.1,129.3,255.8,128.2,255.3,128"/>
	<path class="st0" d="M255.8,88.8c0.7,5,3.3,8.1,5.4,11.8C260.3,95.7,258.7,91.6,255.8,88.8"/>
	<path class="st0" d="M261.7,158.3c0.5,0.7,0.7,1.5,0.8,2.4c0.2,0,0.3-0.1,0.5-0.1c0.1-0.3,0.1-0.6,0.2-1c0.1-0.3,0.2-0.6,0.3-0.9
		c0.5-5,0.5-10-0.3-14.7C263.1,148,262.6,155.4,261.7,158.3"/>
	<path class="st0" d="M262.2,105.4c0,2.1-0.2,4.4,1,5.4C264.2,109.3,263.2,106.4,262.2,105.4"/>
	<path class="st0" d="M1.1,151.5c0.6,0.1,1.4-0.1,1.5,0.5c0.1,0.4,0,1,0.5,1c-0.4-1.6,0.4-1.9,1-2.5C3.9,149.9,0.3,151.3,1.1,151.5"
		/>
	<path class="st0" d="M3,137.8c0.1,0,0.1,0,0.2,0c0-0.1,0-0.2-0.1-0.3c-0.5,0.4-1.4,0.9-1.1,1.7c1-0.1,1,0.7,1.5,1
		c0-0.2,0-0.4,0.1-0.5c-0.1-0.4-0.1-0.7-0.2-1.1C3.1,138.5,2.9,138.3,3,137.8"/>
	<path class="st0" d="M5.5,161.8c-0.1,1.4-0.9,2-1,3.4c0.9-0.3,3.2-1.6,2-2.4C6,165.4,6.3,161.7,5.5,161.8"/>
	<path class="st0" d="M8.4,162.3c-1.5,0.8-0.4-3.1-3.4-2.9c0,2.6,2.3,2.9,2.8,5.1C8,163.4,9.7,162.9,8.4,162.3"/>
	<path class="st0" d="M7.9,165.2c0-0.3-0.1-0.6-0.1-0.8C7.8,164.6,7.8,164.9,7.9,165.2"/>
	<path class="st0" d="M11.3,177.9c-0.4,0.8-1.9,3-0.5,3.9C11.1,180.6,11.5,178.6,11.3,177.9"/>
	<path class="st0" d="M11.3,181.9c-1.2,2.2,1,3,2,4.4c0.8,3.9,4.1,11.7,8.3,12.2c-3-7.5-5.6-11.5-8.8-15.7
		C12.6,185.3,11.9,182.1,11.3,181.9"/>
	<path class="st0" d="M11.7,158.8c-0.1-0.3-0.2-0.6-0.3-0.9C11.3,158.3,11.4,158.7,11.7,158.8"/>
	<path class="st0" d="M14.3,167.2c-0.5-1.9-1.1-3.7-1.6-5.6C12.8,163.4,13.5,165.7,14.3,167.2"/>
	<path class="st0" d="M38.8,218.6c-1,1.8-1.6-1-2.5-1c0.2,1.3,2,3.5,2.9,2.5C37.7,220.2,40.5,218.7,38.8,218.6"/>
	<path class="st0" d="M44.2,205.4c1.1,1.1,5.2,2.4,2.9,3.9c1.5,0.4,1.8-0.5,2.9-0.5c0.2,1.5,0.4,2.7,0,3.9c1.2,0.9,2-0.7,2.9,0.5
		c-2.4,3.3,2.5,5.3,3.9,7.4c0.1,0.1,0.2-0.2,1,0.5c3.1,2.8,5.2,6.9,8.8,5.4c-0.9-1.9-3.5-3.4-5.6-5c-0.3-0.1-0.5-0.3-0.6-0.5
		c-0.4-0.3-0.8-0.6-1.1-0.9c0.6,0.1,0.8,0.5,1.1,0.9c0.2,0.2,0.4,0.3,0.6,0.5c0.1,0,0.1,0,0.2,0.1c0.9-2.5-7.5-5.1-5.4-6.9
		c-0.5-1.6-2.8,0.4-1.5-2.4c-2.3-0.6-3.2-4.7-4.9-4.4c0-0.2,0-0.3-0.1-0.4c-1-0.6-2-1.3-2.9-1.9C45.5,205.4,44.7,204.1,44.2,205.4"
		/>
	<path class="st0" d="M61.3,29c-0.1,0.3-0.2,0.5-0.4,0.8c0.3-0.3,0.6-0.6,1-0.9C61.7,28.9,61.5,29,61.3,29"/>
	<path class="st0" d="M55.4,34.4c-0.5,0.4-1.1,1-1.6,1.6c1.1-1,2.3-1.9,3.3-2.9C56.5,33.6,55.9,34,55.4,34.4"/>
	<path class="st0" d="M250.9,94.7c-0.3,1.3-0.2,3.1-1,3.9c0.6-2.1-0.8-2.1-1-3.4c1.3-0.4,2-1.5,2.5-2.9c-2.8-7-7.6-12-10.8-18.6
		c6.4,1.9,7.3,11.9,11.8,14.2c-1.9-4.5-4.5-8.3-5.9-13.2c-0.1,0.4,0,1-0.5,1c-4.7-12.6-13.3-21.3-22-29.9c1.1-1.1,1.6-0.8,2.9,0
		c-1.2-5.8-6.9-7.1-10.8-10.3c0.3,1.6-1,0.8-1.5,0.5c-0.2,1.3-0.5,2.4-1.3,3.1c4.1,4.1,8,8.4,11.8,12.8c0.2,3.2-2,4-2.6,6.4
		c9.9,14.5,15.7,32,16.5,50.7c0,0,0,0,0-0.1c1.6,6.9,3.3,14.7,2,19.6c0.1-0.5,0.5-0.8,1-1c-0.4,10,1,20.8-2.9,31.4
		c0-0.8-0.4-1.3-1-1.5c-0.5,0.9-0.6,2.3-1,3.4c1.3,0.9,1-2.2,1.5-0.5c-4.1,2.9-0.4,3.4-3.4,5.4c1.6-0.4,1.5,0.7,2,1.5
		c-1.1-0.7-1.2,0.5-2,0.5c0.6,0.2,1,0.6,1,1.5c-2.3,1.4-4.4,6.2-3.4,7.8c-0.5,0-0.6,0.4-1,0.5c-0.8,0-0.3-1.4-1-1.5
		c0.1,1.5-0.2,2.7-1,3.4c-3.3-1.3-5.3,2.7-3.4,4.4c-0.4,1.9-1.7,0.6-2.4,1.5c1.6-0.1,0.8,2.1,2.4,2c0.5-1.9,1.1-0.6,2-2
		c0.1,0.7,0.8,0.8,1,1.5c-3.6-1.1-1.8,3.1-4.4,2.9c-1.1-0.8-0.9-1-0.5-2.5c-1.3,0.1-1.7,0.9-2.5,1.5c2.2,0.6-1,2,0.5,3.9
		c-0.9,0.1-1.5-2.3-2-1c0.7,0.5,1,1.3,1.5,2c-1.6,0.6-3.4,1.8-1.5,2c-1.2,1.6-2.3,4.3-3.9,1.5c-0.1,1.4,1.1,1.5,1,2.9
		c-1,1.5-2.1,1.8-3.4,2c0.8,0,1.3,0.4,1.5,1c-0.4,0.1-0.6,0.4-0.5,1c-0.8,0.8-2.2-0.6-2.9,1c0.9,0.1,1.6,0.3,2,1
		c-0.8,0.7-0.4,2.5-2,2.4c-0.5-1.3,2.1-1.7,0.5-2.4c-1.8,1.4-0.9,2.3-1,5.4c-1.5-0.2-1.3,1.7-2.5,0.5c-0.6,1.2,1.9,1.5,0.5,2
		c-1.8,0-1.8-1.8-2.9-2.4c-0.3,1.3,1.4,3.1,0,3.9c0-3.2-1.2,1.9-2.5,2c-0.9-1.4-0.6-4.4-1-4.9c-0.7,2.6-1.4,2.4-2.5,4.9
		c0.8,0,1.7-0.1,1.5,1c-1.5-0.3-3.2,4.8-5.4,3.9c0,0.7,0.2,1.1,0.5,1.5c-3.8,2.2-7.6,6.6-11.3,7.4c-2.6,2.1-6.1,4.4-10.8,5.9
		c0.4,1.6,0.4,1-0.5,2c2.5,0.3-0.8,1.3,0,2.9c2.3-0.3,0.8-1.8,1.5-3.9c2.5,0.3,4.4-2.1,5.9-1c-1.3,0.4-3.5,1.4-5.4,2.5
		c1.3,1.6,0.6,2,0,3.9c3.5-0.1,5.4-1.8,6.9-3.9c-1.5-0.6-2.7,1.5-3.4,0c1.4-1,2.9-2.9,4.4-4.9c-0.3,0.7,0.6,2.5-0.5,2.4
		c0-0.3-0.4-0.6-0.5,0c2.6,0.6,1-4.7,5.4-4.4c0.1,0.6-0.1,1.4,0.5,1.5c0.1-0.7-0.2-1.8,0.5-2c0.8,0,1.3,0.4,1.5,1
		c-0.6,1.2-2.1,1.4-2,3.4c2.1,0.2,2.5-1.4,4.4-1.5c0.9,2.5-1.6,1.3-0.5,2c0,0.3,0.1,0.6,0.5,0.5c0.1-2.6,2-4.6,3.4-4.4
		c-0.2-2,4-3.8,5.9-5.4c0,0.6,0.9,0.4,1,1c0.4,1.6-1.3,1-1.5,2c1.3-0.2,2.3-0.7,2.9-1.5c-1.4-0.1-1.4-1.6-2.4-2
		c2.2-2.3,4.6-3.8,6.9-3.9c1.2-2.6,5.4-6.4,9.3-7.8c0.2,1.1-1.4,1.9-0.5,2.9c1.1-0.2,0.7-2,1.5-2.4c-0.8,1.7,1.7,0.3,1.5,1.5
		c-3.1,3.8-6.3,6.5-9.3,9.3c1.4,0.7,2.1-0.8,1.5,2c3.1-0.7,8.2-5.1,10.3-7.8c2.2-2.9,7.8-5.5,5.9-6.9c0.6,0.1,1.1,0.9,1.5,0
		c-0.3-4.1,5-6.7,8.3-8.8c-0.6-1.5-1.2,0.1-2-1c2.4,0.1,0.9-3.6,2.9-3.9c0.4,1.6-0.8,1.5-1,2.5c1.4,0.1,1.1-1.8,2.4-0.5
		c0.6-1.6-1.6-0.4-1-2c1.3,1.4,1.2,0.4,2.9,0c-0.2-1.3-0.2-2.7-1-3.4c-0.6,1.6-2.5,1.6-3.4,1.5c1.7-2.5,1-2.7,2.4-4.4
		c0.9,0.9,0.5,2.6-0.5,2.9c2.5-0.3,3.5-2.1,3.4-4.9c-0.6-0.1-1.4,0.1-1.5-0.5c1.3,0.2,0.2-4.9,2.9-2.9c0.5-2-1.5-1.5-1-3.4
		c-3.8,0.3,0.2,6-3.9,6.4c1.1-2.2,1-5.5,2.4-7.3c1.6,0.3,2.2,1.7,2.9,2.9c0.1-2.8-0.7-2.2,1-4.9c-1.8-0.8-1,0.1-2,1
		c-0.3-3.6,3-4.6,1.5-6.9c-0.7,2.9-2.2,5-3.4,7.4c0-2.7,2.9-5,1.5-7.4c-2.8,4.8-2.4,11.3-6.4,15.7c-0.6,0-0.7-0.6-1.5-0.5
		c-2.8,2.8-3.8,5.6-6.4,9.3c0.9-3,1.9-5.9,1.5-10.3c2-1.9,4.6-3.9,3.9-5.9c-0.1,0.4,0,1-0.5,1c0-1.3-0.3-2.9,1-2.9
		c-0.1,1,0.8,3,2.5,1.5c-1.2-1.7-0.7-1.9-2.9-2.4c1.2-1.7,0.3-2.8,0.5-5.9c2.3-0.3,1.2-2,3.9-2.4c-1.4-3.5,1.3-7.7,2.9-9.3
		c-0.6-0.3-0.9-1-1-2c2.1-0.4,0.7-2.1,2.5-3.4c-0.5-1.1-1.5,1.4-2.9,1c0.7-1.8,1.1-1.8-0.5-2.9c0.5,4.1-1.3,5.9-2,8.8
		c0.3-5.1,1.2-9.6,3.4-12.7c1.9-6.9,0.5-15.7,2-24.5c2.9-0.5,1-9.6-0.5-11.8c0.8-1.7-0.4-3.2,0-5.9c-4.5-5.2-4.6-15-6.4-21.6
		c-0.1,0.4,0,1-0.5,1c1-3.1-3.7-5.8-2-9.8c1.3,1.9,2.3,8.4,3.9,6.9c8.9,21.2,15.6,54,7.8,76.9c4.4-5.3,3.6-13.7,3.4-19.1
		c-0.1-3.5,1.5-7.1,1.5-10.3c-0.4-20.3-8.4-42.9-15.7-57.8c6,6.8,10.7,20.1,14.2,32.3c-0.2-2.9-1.3-6.8,0.5-7.8
		c3.4,4.1,4.6,10.4,7.3,15.2c0.2-5.1-2.9-9.6-4.4-13.7C254.3,99.7,254.8,95.1,250.9,94.7 M214.7,226c0.4-1.9,3-1.5,3.4-3.4
		C219.7,224.5,216,225.3,214.7,226 M230.3,203.4c-0.3,0.5-0.5,2.4-2.5,2.4c0,1.6-0.3,4.6-4.4,6.9c-0.5,1.9,0,2.3-0.5,3.4
		c-0.4-1.7-2.7,0.5-2.9-2c0.4-0.1,0.5,0.2,0.5,0.5c2.1-5.2,4.8-6,7.8-10.8c1.6,1.2-0.1-1.2,2.5-1
		C230.9,203.3,230.6,203.4,230.3,203.4 M230.3,181.9c-0.6-0.5-1-0.4-1,0.5c-1.3,0.1-2.1-0.2-2-1.5c1,1,2.2,1,0.5,0
		c0.1-0.7,1.5-0.2,1.5-1c0.7,0.1,0.9,2,1,0C231.8,180.2,229.9,180.9,230.3,181.9 M246.5,126.5c-0.8-1.7-0.7-4.2-1-6.4
		C246.2,120,246.6,124.3,246.5,126.5 M234.7,79c-1.2,0-1.2-1.8-0.5-2.4C235.1,77,235.5,78.2,234.7,79"/>
	<path class="st0" d="M151.5,19.7c-0.1,1.6-1.8,1.7-1.5,3.9h-0.8c-0.1,1.6,0,3.3,0.2,5.1c0.1-0.1,0.1-0.2,0.2-0.3
		c0.1-0.3,0.2-0.6,0.5-0.7c1.7-3,1.6-7.7,2.2-11.9c-0.7-0.2-1.4-0.4-2-0.5c-0.2,1.4-0.4,2.7-0.6,4.2
		C150.1,19.7,150.5,19.9,151.5,19.7"/>
	<path class="st0" d="M210.3,35.9C210.2,35.9,210.2,35.9,210.3,35.9c0.3,0.3,0.6,0.6,0.9,1C211.1,36.3,210.8,35.9,210.3,35.9"/>
	<path class="st0" d="M44.2,221.5c2,1.2-1,1.6,0.5,2.9c-0.8-1.7,1.7-0.3,1.5-1.5C45.5,222.8,43.2,220.3,44.2,221.5"/>
	<path class="st0" d="M49.6,228.4c3.7-1.3,0.1-1-1-1.5c0-0.7-0.2-1.1-0.5-1.5c0.3,0,0.6-0.4,0-0.5c-0.2,0.8-0.6-0.1-1.5,0v1
		c0,0.3,0.1,0.6,0.5,0.5C48.2,224.9,48.5,228.3,49.6,228.4"/>
	<path class="st0" d="M48.6,228.4c-1.2,0.8-0.8,1.3,0.5,0.5c-0.3,1.6,0.9,1.5,0,2.4h1c0-0.5,0.4-0.6,0.5-1
		C48.8,230.8,50.1,228.2,48.6,228.4"/>
	<path class="st0" d="M63.3,235.3c-0.8,0-1.3-0.4-1.5-1c0.3,0,0.6-0.4,0-0.5c-1.3,0.6,0.4,2.9-0.5,2.9c-1.8-0.3,0.4-2.2-1.5-2.9
		c-0.2,1.4-0.1,3,2,3.9C61.7,236.3,62.7,236,63.3,235.3"/>
	<path class="st0" d="M75.5,245c-1.4-0.3-2.5-1.9-3.4,0c0.2-1.2-2.1-2.4-0.5-3.4c1.3,0.6,5.3,3.7,4.9,1.5c-1.1-0.3-4.7-1.7-3.9-3.4
		c-1.8,0.9-1.8-0.2-3.4-0.5c-0.4,1.6,1.6,0.7,1.5,2c-1.9-0.6-1.5-0.4-2,0.5c-2.2-3-3.3-4.2-5.9-5.4c-0.1,1.8,1.9,1.3,2,2.9
		c-1,0.9-2.7,0.4-2.9,1c5.2-0.3,4.1,5.7,9.8,4.9c0.4,2.2,3.4,1.8,4.9,2.9c-0.3,0-0.6,0.4,0,0.5c0.1-0.6,0.5-0.3,1,0
		c-0.1-1,0.7-1,1-1.5C77.1,246.4,74.5,247.5,75.5,245"/>
	<path class="st0" d="M67.2,228.9c3.1-0.2,1.9-0.4,0-2.4C67.8,227.7,66.1,228.8,67.2,228.9"/>
	<path class="st0" d="M121.1,263.7c0.1-2-0.2-1.1-1.5-1c1.9-1.7-1-2.2,1-3.4c-0.7,0.1-1.5-2-2-0.5c1.9-0.4,0.6,1.8,0,2
		c-0.6-2.8-0.6,1.5-2,1c0.9-2.5-1-0.4-2.5,0c-1.1-0.4-2.7-1.2-1.5-2.4c-2.4,0.2-2.9-0.1-4.4,0.5c0.3-1,0.9-1.8-0.5-2.5
		c0.4,0.8-1,2.1-1,1c0.8-0.6-1.5-4.1-2.4-2.9c0.8,1-2.1,0.5-2.5,1c0.4-2.3-1.9-0.7-2-1.5c0-0.7,0.2-1.1,0.5-1.5
		c-1.5-1-2.6-1-4.4-2.4c-0.9,0.7-1.8,1.5-2.4,2.4c-0.7-1.4-2,0.8-2.4-0.5c1.3,0.2,2.8-1.7,1.5-2.5c-1.6-0.9-3,1.6-4.9,0
		c-0.7,1.1,1.3,1.8,0,2c-1-0.3-3.4-1.8-4.4-0.5c4.4,3.8,12.4,6.6,18.6,6.9c-1.4-0.4-3-0.6-3.9-1.5c0.1-0.9,1.7-0.3,2-1
		c0.4,2,5,3.8,7.8,4.9c3.4-1.1,10.2,2.8,15.2,3.4C123.1,263.3,121.7,263,121.1,263.7"/>
	<path class="st0" d="M92.7,243.6c0.7,2.8,1.2,3.7,3.9,3.4c-1.2-0.7-4-1.5-2.5-3.4C93.3,243.8,92.9,242.9,92.7,243.6"/>
	<path class="st0" d="M160.8,244.6c0.1,1.2-0.3,2-1,2.4c-0.1-0.6,0.1-1.4-0.5-1.5c-0.4,1.9,1,1.9,2,2.4
		C161.2,247.1,161.6,243.1,160.8,244.6"/>
	<path class="st0" d="M163.7,243.1c0.3,2-1.1,2.5-1.5,3.9c1.2-0.6,1.5,0.2,2-0.5C162.6,246.2,165.3,242,163.7,243.1"/>
	<path class="st0" d="M237.7,154.4c1.1,0.5,0.9,2.4,2,2.9c0-3.5-0.8-2.5-0.5-4.2c0,0.2-0.2,0.3-0.5,0.2c0-0.3-0.4-0.6-0.5,0
		C239,153.7,238,154,237.7,154.4"/>
	<path class="st0" d="M238.8,180.6c0,0.1-0.1,0.1-0.1,0.2C238.7,180.9,238.8,180.8,238.8,180.6"/>
	<path class="st0" d="M240.6,176c-2.8-0.2-1.7,3.7-1.8,4.7c0.5-0.8,1.7,1.1,1.8-0.7C238.1,180,239.7,176.6,240.6,176"/>
	<path class="st0" d="M253.4,108.4c-2,0.6-1.5,5.7,0,4.9C252.8,113.3,255.1,109.5,253.4,108.4"/>
	<path class="st0" d="M265.6,113.8c0.1,0.6-0.1,1.4,0.5,1.5c-0.2-2.2-0.6-4.3-2-5.4c-0.8,1.7,2.1,2.1,0.5,2.9c0.3-1.3-1-0.9-1.5-1.5
		c-0.6,2,1,1.9,1,3.4C265.1,114.9,265.1,114.1,265.6,113.8"/>
	<path class="st0" d="M267.6,134.3c0.1-0.3,0-0.6,0.5-0.5c0.1-0.9-1.4-2.4,0-2.9c0.1,0.4,0,1,0.5,1c-0.3-3.8-0.6-6.7-2-7.4
		c0.2-1.9,1.8-4.4,0-5.4c-0.1,0.7,0.2,1.8-0.5,2c-0.2-1.2-0.7-2.2-1.5-2.9c0,3.7,1.6,10.1,2.5,13.7
		C267.2,132.2,266.6,138.4,267.6,134.3"/>
	<path class="st0" d="M267.6,140.2c-0.1,4.8-0.9,7.4-0.5,10.8c1.1-2.8,0.7-5.2,2-8.3C266.7,142.8,269.9,140.3,267.6,140.2"/>
	<path class="st0" d="M137.3,257.3c0.1,0.7-0.2,1.8,0.5,2c0.1-0.6,0.5-0.3,1,0c0.2-0.7,0.7-0.9,0.5-2H137.3z"/>
	<path class="st0" d="M14.8,107.6c-0.2,0-0.4-0.1-0.6-0.2c0.1,0.2,0.2,0.4,0.3,0.6C14.7,107.9,14.8,107.7,14.8,107.6"/>
	<path class="st0" d="M14.3,108.3c-0.7,0-1.1,0.2-1.2,0.7h0.9C14.1,108.7,14.2,108.5,14.3,108.3"/>
	<path class="st0" d="M230.8,81.9c-0.9-2.3-2.8-5.4-5.9-5.9c-1.2-1.8-1.9-3.9-3.9-4.9c-1.5-8.8-8-12.5-8.8-22
		c-3.7-3.3-8.8-5.3-10.8-10.3c-1,0-0.6,1.3-2,1c-12.7-9.6-31.5-16.8-43.1-19.6c-1.1,1.2-3.4,1.2-3.9,2.9c1.7,1.3,3.6,2.3,6.4,2.5
		c-0.2,1.4-6.1,2.8-4.9,1c-0.9,0.4-1.5,1.1-2,2c-0.5-0.3-0.5-1.1-1.5-1c-0.2,0-0.3,0.1-0.4,0.1c-0.1,0.3-0.3,0.5-0.5,0.7
		c-0.1,0.3-0.1,0.6-0.1,0.9c-10.4-1.1-21.2,0.9-30.9,4.6c-7.7,2.9-15.1,6-23.1,8c-6.2,1.6-13.4,2.2-19.4,5.1c-1,0.3-2,0.6-2.9,1
		c0.2,0.2,0.4,0.3,0.8,0.3c-0.1,0.6-0.7,0.7-0.7,1.4c-0.6-0.1-0.7-0.7-1.4-0.7c0.1-0.3,0.2-0.4,0.4-0.6c-0.9,0.4-1.8,0.8-2.7,1.3
		h0.2c-1.4,3.1,0.7,5.1-2.9,5.7c0.4-2.2,0.5-2.8,0.3-4.3c-5.4,3.5-9.6,8.2-14.2,12.6c-1.4,1.8-2.7,3.8-4,5.7
		c0.2,0.1,0.5,0.2,0.8,0.2c-0.3,0.9-1.3,1.1-1.4,2.1c-0.3-0.1-0.5-0.2-0.7-0.4c-0.7,1-1.4,2-2.2,2.9c0,2,3.1,4.7,2.2,6.8
		c-1.9-1.2-0.4-2.3-3.6-2.9c-0.4-1.4,1.6-2.1-0.1-2.2c-1.3,1.4-2.6,2.7-4.2,3.8c1.4-3.3,3.1-6.3,5-9c-1.1-0.6-0.9-2.6,0-3.4
		c0.8,0.1,1.4,0.4,2,0.8c4.6-5.8,10.2-10.7,15.5-15.8c-3.9,1.5-9.5-0.5-13.7,1c-1.1-2.4-0.5-9.1,0-12.2c0.7,1.3,2.9-2.5,5.2-5.2
		c-8.5,7.2-17.6,14.9-21.3,22.2c-3.6,0.2-3-4.8-6.4-1.3c-2,4.6,4.4,0.8,3.9,3.8c-2.3,4.7-4.3,3.1-10.3,2.6C4,82.9-2.2,109,3.1,137.5
		c0.3-0.2,0.4-0.5-0.1-0.7c0.1-1.3,0.8,0.7,2,0c-0.3,0.6-1,0.9-1.8,1c0.1,0.3,0.1,0.6,0.2,0.8c0.2,0.1,0.4,0.1,0.6,0.1
		c-0.2,0.3-0.4,0.6-0.4,0.9c0.6,2.8,1.2,5.6,2,8.4c0.8,2.8,4.1,5,5.1,7.7c0.3,0.7,0.5,1.4,0.7,2.1c0.2-0.6,0.7-1.2,1.4-1
		c-0.2-0.9-1.9-0.4-1.5-2c1.3,0.3,0.9-1,1.5-1.5c1.1,0.4,0.1,2.8,2,2.5c-0.1,0.6-1,0.5-1,0c-0.6,1.1-1.5,1.8-2,2.9
		c0,0-0.1,0-0.1-0.1c0.3,0.9,0.6,1.9,0.9,2.8c-0.1-1.2,0.1-2.3,0.7-2.7c-1.1,3.1,2.8,5.2,2,9.7c0.2,0.1,0.4,0,0.5-0.4
		c0,0.3-0.1,0.6-0.5,0.5c0,0,0-0.1,0-0.1c-0.3-0.1-0.6-0.6-1-1.4c1.1,3.8,2.1,7.4,3.4,10.9c0,0,0-0.1,0.1-0.1c0.4,0.3,1.2,1.9,1,2.8
		c1.3,3.1,2.9,6,4.8,8.5c7.7,5.4,15.2,11,23,16.3c0.2,0,0.4,0,0.5-0.1c-2-5.7-6.2-11.6-7.3-16.7c1.1-1.4,1.1,2.4,2.9,2
		c-1.5,1.9,2.4,1.4-0.5,2.5c1.5,0.1,1,2.3,2.9,2c-1,5.5,3.5,6,4.4,12.3c20.1,13.1,42.4,23.6,72.9,22.9c43-1,68.4-28.2,93.7-47.5
		c2.6-15.3,16.7-29.1,20.5-46.2c1.7-7.5,2.5-15,2.5-22.4c0,0.2,0,0.4-0.1,0.6c-0.8-0.7-1-1.9-1-3.4c0.5,0.1,0.8,0.3,1,0.6
		c0-1,0-2-0.1-3c-0.4,0.4-0.7,0.9-0.9,1.4C239.8,101.5,234.9,92,230.8,81.9 M53.3,54c0.6,0.1,0.7,0.7,1.4,0.7
		c-0.1,0.6-0.7,0.7-0.7,1.4c-0.6-0.1-0.7-0.7-1.4-0.7C52.8,54.9,53.3,54.7,53.3,54 M175.3,157.3c0.1,0.3,0.1,0.6,0,1
		c-0.3,0.3-0.8,0.4-1.3,0.4C174.5,158.2,174.9,157.7,175.3,157.3 M178.9,153.2h0.8v2.1h-2.1v-0.6C178,154.3,178.4,153.7,178.9,153.2
		 M162.3,164.9c-0.3-0.3-0.4-0.6-0.4-1c0.2-0.5,0.5-0.9,0.7-1.4c0.6,0.1,0.9,0.4,1.1,0.7C163.3,163.8,162.8,164.4,162.3,164.9
		 M34.8,107.6c0.1-0.6,0.7-0.7,0.7-1.4c0.6,0.1,0.7,0.7,1.4,0.7c-0.1,0.6-0.7,0.7-0.7,1.4C35.6,108.1,35.5,107.6,34.8,107.6
		 M42.6,105.4c0.1-0.6,0.7-0.7,0.7-1.4c0.1,0,0.2,0.1,0.3,0.2c-0.3,0.4-0.5,0.9-0.8,1.3C42.8,105.4,42.7,105.4,42.6,105.4
		 M188.4,75.6c-0.9-0.3-1.2-0.5-3-0.9c0.2-1.5,2-1.5,3.4-0.9c-0.3,0.4-0.5,0.8-0.5,1.4C188.3,75.4,188.4,75.5,188.4,75.6
		 M187.5,101.1c-0.3,0.8-1,1.4-1.9,1.8c-1.3-0.9-3-1.4-5-1.4h0c-0.1-0.1-0.1-0.3-0.2-0.4c1.8,0.7,2.8,0.3,3.6-0.1
		C185,100.6,185.8,100.1,187.5,101.1 M194.8,117.8c0.1,0.7,0.2,1.3,0.3,2c-0.5-0.2-0.9-0.5-1.1-0.9
		C194.1,118.5,194.4,118.1,194.8,117.8 M196,128.4c0,0.4,0.1,0.8,0.1,1.3c-1-1.2-2.4-2.1-4.1-2.6C193.2,126.7,194.8,127.6,196,128.4
		 M189,88.6c-0.5,0-1,0.1-1.5,0.4c-0.3-1.5,0.5-1.9,0.7-2.9c0.2,0.1,0.4,0.2,0.6,0.3C188.9,87.1,188.9,87.9,189,88.6 M177.5,55.2
		c-0.1,0-0.2,0-0.3,0c0-0.1,0-0.2,0-0.4C177.3,55,177.4,55.1,177.5,55.2 M107.6,160.4v1.4C104.1,162.5,106.3,158,107.6,160.4
		 M90.4,181.3c-0.1-0.3-0.1-0.6,0-0.9c0-0.1,0.1-0.1,0.1-0.1c0.5-0.2,0.9-0.3,1.4-0.5c0.3,0.1,0.5,0.2,0.8,0.4
		C92,180.6,91.2,180.9,90.4,181.3 M95,179.2c0.1-0.2,0.3-0.4,0.5-0.5c0.6-0.2,1.2-0.4,1.8-0.6c0,0,0,0,0,0
		C96.5,178.5,95.7,178.9,95,179.2 M73.3,181.1C71.2,183.7,70.9,178.9,73.3,181.1 M97.6,172c-0.3,0.1-0.7,0.3-1,0.4
		c-0.2,0-0.3,0-0.5,0c-0.1-0.1-0.1-0.2-0.1-0.2C96.5,172.2,97.1,172.1,97.6,172 M76.2,176.1c-1.6,0.2-2.2-0.9-2-1.9
		c0.6,0,1.2,0,1.8-0.1C76.2,174.6,76.3,175.3,76.2,176.1 M72.6,64.6c-0.6,0.2-1.2,0.3-1.8,0.5c0.6-0.8,1.2-1.6,1.9-2.4
		C72.7,63.3,72.6,64,72.6,64.6 M97.6,51.2c0.1-0.3,1.5-1.3,2.1-0.7C101.1,51.7,96.6,53.9,97.6,51.2 M108.3,54.7
		c-0.1,0.6-0.7,0.7-0.7,1.4c-0.4-0.1-0.6-0.4-0.9-0.5C107.2,55.3,107.7,55,108.3,54.7C108.3,54.7,108.3,54.7,108.3,54.7
		 M156.1,146.1c-2.2,0.3-2.5-1.8-1.4-2.8C155.9,143.9,157.4,144.8,156.1,146.1 M103.2,155.1c0.1-0.1,0.1-0.3,0.1-0.5
		c0.2,0,0.3,0.1,0.4,0.2C103.6,155,103.4,155.1,103.2,155.1 M77.6,150.4c-0.2,1.7-1.9,1.6-2.9,0.7C75,149.4,76.7,149.5,77.6,150.4
		 M72.6,94.7c0.1-0.6-0.3-0.7-0.7-0.7v-1.4c0.6,0.1,0.7-0.3,0.7-0.7H74c-0.1,0.6,0.3,0.7,0.7,0.7v0.1c-0.4,0.7-0.7,1.4-1.1,2.1H72.6
		z M97.6,74c2.2-0.3,2.5,1.8,1.4,2.9C97.8,76.7,97.4,75.6,97.6,74 M119.7,66.1h1.4v1.4h-1.4V66.1z M126.9,66.8h1.1
		c-0.4,0.4-0.8,0.8-1.2,1.2C126.7,67.6,126.8,67.2,126.9,66.8 M118.3,82.6C118.3,82.6,118.3,82.6,118.3,82.6l0.1-0.1
		C118.4,82.6,118.4,82.6,118.3,82.6 M116.2,83.3c-0.2,0-0.3-0.1-0.4-0.2c0.2-0.2,0.4-0.3,0.6-0.5C116.3,82.8,116.2,83,116.2,83.3
		 M109,73.3c-0.2-0.2-0.3-0.3-0.4-0.5c0-0.2-0.1-0.3-0.1-0.5c0.2-1.1,2.3-1.9-0.2-2.6c0.2-1.7,1.9-1.7,2.8-0.7
		C110.2,71.7,112.2,72.8,109,73.3 M114,91.8c0.2-1.6,1.9-1.6,2.8-0.7C116.7,92.8,115,92.8,114,91.8 M133.2,129.8
		c0.4-0.3,0.8-0.6,1.2-0.8c1.3,0.1,1.9,0.9,1.8,2.3c-0.1,0.2-0.2,0.4-0.3,0.6C134.1,132,133.2,131.4,133.2,129.8 M119.7,130.4
		c0.3-0.8,1.9-1.7,3.3-1.9c-0.6,0.9-1.1,1.7-1.7,2.6C120.8,131.1,120.3,131,119.7,130.4 M111.1,128.3c-0.1,0-0.7,0.1-1.3-0.1
		c0.3-0.3,0.6-0.5,1-0.8C111,127.7,111.1,127.9,111.1,128.3 M66.1,176c-0.5-0.6-0.4-0.9-0.2-1.4C66,175.1,66.1,175.5,66.1,176
		 M64.3,167.7c-0.1,0.2-0.2,0.4-0.3,0.6c-0.7-0.1-1.1-0.3-1.4-0.6c0-0.3-0.1-0.6-0.1-1c0.4-0.3,0.8-0.7,1.2-1.1
		C64,166.3,64.1,167,64.3,167.7 M88.3,103.2c0,0,0,0.1,0,0.1c0,0-0.1,0-0.1,0C88.3,103.2,88.3,103.2,88.3,103.2 M96.8,122.3
		c0,0.3-0.1,0.6-0.3,0.9c-0.9,0.4-1.9,0.8-2.8,1.2c-0.1-0.1-0.1-0.2-0.2-0.3C94.6,123.4,95.7,122.8,96.8,122.3 M63.3,142.5
		C65.5,139.9,65.7,144.7,63.3,142.5 M63.3,134.7c0.1-0.6,0.7-0.7,0.7-1.4c0.6,0.1,0.7,0.7,1.4,0.7c-0.1,0.6-0.7,0.7-0.7,1.4
		C64.2,135.3,64.1,134.7,63.3,134.7 M63.3,144C66,146.1,61.2,146.4,63.3,144 M76.1,139.8c0-0.1,0-0.1,0.1-0.2c0.1,0,0.1,0,0.2,0
		C76.3,139.8,76.2,139.8,76.1,139.8 M137.6,95.4c0.2-1.7,1.9-1.6,2.9-0.7C140.2,96.4,138.5,96.3,137.6,95.4 M141.4,88.4
		c0,0.1,0.1,0.3,0.1,0.4c-0.2,0.2-0.4,0.4-0.4,0.8c-0.2-0.1-0.4-0.2-0.6-0.3C140.8,89.1,141.1,88.7,141.4,88.4 M137.9,127.5h-1.6
		c0.6-0.5,1.3-0.9,1.9-1.4v0.6C138.2,127,138,127.3,137.9,127.5 M123.3,120.4c-0.1,0.6-0.7,0.7-0.7,1.4h-1.4v-1.4
		c0.3-0.2,0.7-0.4,1-0.6C122.5,120.1,122.8,120.4,123.3,120.4 M114.7,104c0.2-1.7,1.9-1.6,2.9-0.7
		C117.4,104.9,115.7,104.9,114.7,104 M123.1,102.5c0.1-0.2,0.2-0.4,0.2-0.6c0.1,0,0.2,0,0.2,0.1
		C123.4,102.1,123.2,102.3,123.1,102.5 M131.1,102.6c-0.4,0.6-0.7,1.2-0.7,2.1c-1.3,0.3-1.8-0.3-2.5-0.6c0.6-0.7,1.2-1.4,1.9-2.1
		C130.2,101.9,130.7,102.1,131.1,102.6 M118.3,122c0.4-0.2,0.8-0.4,1.1-0.6c0.3,0.2,0.5,0.5,1,0.5c-0.1,0.6-0.7,0.7-0.7,1.4h-1.4
		V122z M143.8,134.6c0.1,0,0.1,0,0.2,0.1c-0.1,0.7-0.5,1.1-1.1,1.3C143.2,135.5,143.5,135.1,143.8,134.6 M142.7,144
		c-0.1,0.1-0.1,0.2-0.2,0.3c0-0.1,0.1-0.2,0.1-0.3C142.6,144,142.6,144,142.7,144 M157.1,103.3c-0.3,1.1-0.5,1.9-0.6,2.7
		c-0.1,0-0.2-0.1-0.3-0.1c-0.3-1.3-0.6-2.6-0.9-3.8c0,0,0-0.1,0-0.1h1.5C157,102.3,157.1,102.8,157.1,103.3 M153,83.1L153,83.1
		c0.1-0.3,0.1-0.5,0.2-0.7C153.2,82.7,153.1,82.9,153,83.1 M146.8,88.6c0,0.1,0,0.3-0.1,0.4h-0.2c-0.2-0.7-0.5-1.4-0.8-2.2
		c0.2,0,0.3,0,0.5,0.1C146.4,87.5,146.6,88,146.8,88.6 M121.2,89.5c0.2-0.4,0.4-0.9,0.7-1.2c0.5-0.1,0.8,0,1,0.2
		C122.3,88.8,121.8,89.2,121.2,89.5 M80.7,94.9c0,0.3-0.1,0.5-0.1,0.8c0,0.1-0.1,0.3-0.1,0.4c-0.6-0.3-1.1-0.7-1.6-1.1
		c0.4-0.8,0.8-1.5,1.2-2.3C80.5,93.3,80.8,94,80.7,94.9 M64.8,129.7c-0.1,0.6-0.7,0.7-0.7,1.4c-0.6-0.1-0.7-0.7-1.4-0.7
		c0.1-0.6,0.7-0.7,0.7-1.4C63.9,129.1,64,129.7,64.8,129.7 M61.9,134c-0.6-0.1-0.7-0.7-1.4-0.7c0.1-0.6,0.7-0.7,0.7-1.4
		c0.6,0.1,0.7,0.7,1.4,0.7C62.5,133.1,61.9,133.2,61.9,134 M66.1,176.1c0.1,0.6,0.2,1.3,0.2,1.9c-0.7,0.3-1.5,0.3-2.3-0.5
		C64.4,176.6,65,176.1,66.1,176.1 M108.5,146.5c0.5-0.2,0.9-0.4,1.4-0.7c0,0.1,0,0.1,0,0.2C109.4,146.2,109,146.3,108.5,146.5
		 M142,145C142,145,142,145,142,145C142,145,142,145,142,145 M162.4,107C162.4,107,162.4,106.9,162.4,107
		C162.4,106.9,162.4,106.9,162.4,107C162.4,106.9,162.4,106.9,162.4,107 M161.2,98c-0.1-0.8-0.2-1.6-0.3-2.5
		c0.4,0.4,1.1,0.5,2.3,0.6c0,0,0,0,0.1,0C163,97.1,162.2,97.7,161.2,98 M161.8,93.3c-0.6-0.1-0.7-0.7-1.4-0.7c0,0,0-0.1,0-0.1
		c0.2-0.5,0.7-0.7,0.7-1.4c0.6,0.1,0.7,0.7,1.4,0.7C162.4,92.4,161.8,92.6,161.8,93.3 M139.4,71.1c0.1,0.1,0.2,0.3,0.2,0.5
		C139.5,71.4,139.5,71.2,139.4,71.1 M131.1,82.3c0.1,0.4,0.1,0.8,0.2,1.2c-0.3,0.2-0.6,0.4-0.9,0.5c0-0.7,0.4-1.1,0.6-1.6
		C131,82.3,131.1,82.3,131.1,82.3 M129.4,71.8c0.1-0.1,0.1-0.1,0.2-0.2c0,0.1,0,0.1,0,0.2H129.4z M107.7,49.5
		c0.2-0.4,0.6-0.6,0.6-1.2c0.3,0.1,0.5,0.3,0.7,0.4C108.6,49,108.1,49.3,107.7,49.5 M67.6,75.4c0.6,2.8-3.4,2.8-2.8,0
		C66.2,74.2,65.7,75.5,67.6,75.4 M69.7,94.8c-0.2,0.5-0.7,0.7-0.7,1.4c-0.2,0-0.3-0.1-0.4-0.2C69,95.5,69.4,95.2,69.7,94.8
		 M85.5,151.8c0.3,0.3,0.8,0.5,1.2,0.8c-0.5,0.3-1,0.6-1.5,0.9C85,152.9,85,152.2,85.5,151.8 M114.8,154.7c-0.5,0.6-1.3,1-1.9,1
		C113.5,155.4,114.2,155.1,114.8,154.7 M126.9,166.1C126.9,166.1,126.9,166.1,126.9,166.1c0.1,0,0,0.1,0,0.1
		C126.9,166.2,126.9,166.1,126.9,166.1 M138.2,171.4c0.2,0.2,0.4,0.4,0.8,0.4c-0.1,0.6-0.7,0.7-0.7,1.4c-0.4-0.1-0.6-0.4-0.9-0.6
		C137.6,172.2,137.9,171.8,138.2,171.4 M141.8,168.7c-0.3,0.5-0.5,1.1-0.6,1.7c-0.5-0.2-0.8-0.5-1-0.8
		C140.7,169.3,141.2,169,141.8,168.7 M165.1,96.1c-0.8-0.1-1.5-0.4-1.8-0.7c0.2-0.6,0.8-1,1.4-1.4C164.8,94.7,164.9,95.4,165.1,96.1
		 M161.8,86.1c-0.6-0.1-0.7-0.7-1.4-0.7c0.1-0.6,0.7-0.7,0.7-1.4c0.5,0.1,0.7,0.5,1.1,0.7c0,0.1,0.1,0.3,0.1,0.4
		C162.1,85.4,161.8,85.6,161.8,86.1 M143,63.8c-0.2-0.6-0.4-1.3-0.7-1.9c0.6-0.1,1.2,0.2,1.7,0.6C143.9,63.2,143.5,63.6,143,63.8
		 M141.3,72.9c-0.1,0-0.1,0.1-0.2,0.1c-0.5-0.4-0.8-1-0.7-1.9c0.1-0.1,0.2-0.1,0.2-0.1C140.9,71.7,141.1,72.3,141.3,72.9
		 M125.5,52.5c-0.6-0.1-0.7-0.7-1.4-0.7c0.1-0.6,0.7-0.7,0.7-1.4c0.6,0.1,0.7,0.7,1.4,0.7C126,51.6,125.5,51.8,125.5,52.5
		 M123.3,48.9c0.1-0.6,0.7-0.7,0.7-1.4c0.6,0.1,0.7,0.7,1.4,0.7c-0.1,0.6-0.7,0.7-0.7,1.4C124.2,49.5,124,48.9,123.3,48.9
		 M123.3,46.8c-0.1,0.6-0.7,0.7-0.7,1.4c-0.6-0.1-0.7-0.7-1.4-0.7c0.1-0.5,0.6-0.7,0.7-1.2c0.1,0,0.1-0.1,0.2-0.1
		C122.5,46.3,122.7,46.8,123.3,46.8 M93,49.7c0.3,0.6,0.8,0.9,1,2.9h-2.8c0.1-0.9-0.1-1.5-0.3-2.1C91.6,50.3,92.3,50,93,49.7
		 M37,130.8c0.2,0.1,0.4,0.2,0.7,0.3c-0.4,0.6-0.9,1.3-1.3,1.9C36.5,132.3,36.8,131.6,37,130.8 M36.2,153.9c0,0,0.1,0,0.1,0.1
		c0,0.6,0,1.2,0,1.8c-0.2-0.2-0.4-0.4-0.9-0.4C35.6,154.8,36.2,154.7,36.2,153.9 M40.9,120c0.2-0.5,0.4-1,0.6-1.6
		c0.1-0.1,0.2-0.1,0.4-0.2h1.4c-0.1,0.4-0.1,0.8,0,1c-0.2,0.5-0.3,1-0.5,1.5C42.2,120.5,41.5,120.3,40.9,120 M46.9,143.2
		c0.6,0.1,0.7,0.7,1.4,0.7c-0.1,0.6-0.7,0.7-0.7,1.4c-0.6-0.1-0.7-0.7-1.4-0.7C46.4,144.1,46.9,144,46.9,143.2 M48.3,125.5
		c0.2-0.5,0.5-0.9,0.7-1.4v1.3C48.8,125.5,48.5,125.5,48.3,125.5 M50.5,149h1.4v1.4h-1.4V149z M31.9,113.3c-3.5,0.7-1.3-3.8,0-1.4
		V113.3z M31.2,124c-0.1,0.6-0.7,0.7-0.7,1.4c-0.6-0.1-0.7-0.7-1.4-0.7c0.1-0.6,0.7-0.7,0.7-1.4C30.4,123.4,30.5,124,31.2,124
		 M30.5,173.9c2.4,0.3,1.9,5.5-1.4,4.3C28.7,176,30.1,175.4,30.5,173.9 M32.7,169.7v1.4C29.2,171.8,31.3,167.3,32.7,169.7
		 M29.8,166.1c0.6-0.6,1.6-0.8,2.9-0.7v2.9C30.8,168.4,29.6,168,29.8,166.1 M34.2,141.7c0.1-0.2,0.1-0.5,0.2-0.7
		c0.1,0.1,0.3,0.1,0.5,0.1v1.4c-0.6-0.1-0.7,0.3-0.7,0.7h-1C33.6,143,34,142.5,34.2,141.7 M36.8,173.5c-0.1,0.4-0.5,0.5-0.5,1h-1
		c0.1-1.2-0.7-1.5-1.5-2C35.1,170.7,34.9,174.4,36.8,173.5 M36.2,169.7c0.6-0.1,1.1-0.1,1.5,0c0,0.2,0.1,0.3,0.1,0.5
		c0.2,0.7,0.4,1.4,0.6,2.1C37.1,172.8,35.7,171.8,36.2,169.7 M54.1,183.9c1.3,0.2,1.6,1.2,1.4,2.9h-0.7c-0.5-0.3-1-0.7-1.5-1.1
		C53.5,185,53.9,184.6,54.1,183.9 M56.7,193.2c0.6,0.3,1.3,0.5,2,0.7c-0.4,0.2-1,0.3-1.8,0C56.8,193.7,56.7,193.5,56.7,193.2
		 M93.1,188.9c-0.5-1,0.1-2.4,0.2-3.5c0,0,0,0,0.1,0c1.2,0.5,1.2,1.6,1,2.6C93.9,188.3,93.5,188.6,93.1,188.9 M119,189.6
		c-0.1,0.6-0.7,0.7-0.7,1.4c-0.6-0.1-0.7-0.7-1.4-0.7c0.1-0.6,0.7-0.7,0.7-1.4C118.2,189.1,118.3,189.6,119,189.6 M131.9,182.4
		c0.2-0.5,0.7-0.7,0.7-1.3c0.1,0,0.2,0.1,0.3,0.1C132.5,181.6,132.2,182,131.9,182.4 M139,173.2c0.1,0,0.2,0.1,0.3,0.1
		c-0.3,0.4-0.6,0.7-0.9,1.1C138.5,174,138.7,173.6,139,173.2 M188.2,150.5v0.6h-0.3C188,150.9,188.1,150.7,188.2,150.5 M202.1,88.4
		c0-0.1,0-0.1,0-0.2h0L202.1,88.4C202.1,88.4,202.1,88.4,202.1,88.4 M158.3,54c0.2-0.6,1.1-0.6,1.9-0.6c-1.1,1-0.9,3.2,0.5,3.9
		c-0.6,0.7-1,1.5-1,2.4c-2,0.5-1.4-1.4-2.8-1.4C157.9,56.6,159.8,56.7,158.3,54 M148.3,42.5h2.1v2.1h-2.1V42.5z M150.4,59.6
		c0.2,0.9-2.1,2.5-2.1,0.7c-0.7,0.5-0.7,1.6-2.1,1.4C146.5,59.9,148.9,58.2,150.4,59.6 M146.1,68.2c-0.1,0.6-0.7,0.7-0.7,1.4
		c-0.1,0-0.2-0.1-0.3-0.2c-0.2-0.5-0.4-1-0.5-1.5c0.1-0.1,0.2-0.3,0.2-0.5C145.3,67.6,145.4,68.2,146.1,68.2 M145.4,44.6v1.4
		C141.9,46.8,144.1,42.3,145.4,44.6 M141.1,46.8c1.3,0.1,1.6,1.5,1.3,2.6c0,0,0,0,0,0c-0.7,0.2-1.5,0.3-2.2,0.5
		c-0.7-0.5-1.1-1.2-1.2-2.3C140,48.3,140.8,48.3,141.1,46.8 M131.9,46.1c-0.2,1.6-1.9,1.6-2.8,0.7C129.2,45.1,130.9,45.1,131.9,46.1
		 M114,40.5c0,0,0,0.1,0,0.2c-1.2,0.1-2.3,0.3-3.5,0.4C111.4,40,113,39.5,114,40.5 M83.3,46.9h1.4v1.2c-0.2,0.1-0.3,0.2-0.5,0.2
		h-0.9V46.9z M71.9,54.7c0.5,0.1,0.7,0.6,1.3,0.7c-0.4,0.4-0.8,0.7-1.2,1.1c-0.2-0.2-0.4-0.4-0.8-0.3C71.3,55.6,71.9,55.5,71.9,54.7
		 M66,63.6c-0.3,0.4-0.5,0.8-0.8,1.2c-0.1,0-0.3-0.1-0.5-0.1C65,63.6,65.4,63.5,66,63.6 M60.5,61.9c0.6,0.1,0.7,0.7,1.4,0.7
		c-0.1,0.6-0.7,0.7-0.7,1.4c-0.6-0.1-0.7-0.7-1.4-0.7C59.9,62.7,60.5,62.6,60.5,61.9 M51.9,83.3c0.9,1,2.1,1.4,0.7,2.8
		c-2.2,0-0.7-3.6-2.8-3.6C49,81.2,54.2,83.2,51.9,83.3 M42.6,95.4c0.6,0.1,0.7,0.7,1.4,0.7c-0.1,0.6-0.7,0.7-0.7,1.4
		c-0.6-0.1-0.7-0.7-1.4-0.7C42.1,96.3,42.6,96.1,42.6,95.4 M41.9,48.3h2.1v2.2h-2.1V48.3z M39.8,59.9c2.3,1.7,3.7-5.2,6.9-5.9
		c1.4,4.1-5.8,3.6-4.9,8.8c-0.4-0.3-0.8-0.5-1.5-0.5v1C39.2,63.1,40.1,60.9,39.8,59.9 M38.8,62.8c0.7,0.1,0.3,3.2-1,2.9
		C37.4,64,38.3,63.7,38.8,62.8 M39.3,80.9c-1.1,5.7-5.3,12.3-8.3,17.6c-0.2,4.9-1.6,8.5-3.9,11.3c-0.6,6.4-1.8,13.8-2.7,21
		c0.7,0.3,1.1,0.9,1.2,1.7c-0.6-0.1-1-0.2-1.4-0.1c-0.1,1-0.2,2-0.3,3c0.1,0,0.2,0.1,0.3,0.1c-0.1,0.3-0.2,0.4-0.4,0.6
		c-0.3,3.2-0.6,6.3-0.6,9.1c-0.5-2.7-0.5-5.6-0.3-8.7c-0.2-0.2-0.4-0.3-0.8-0.3c0.1-0.6,0.7-0.7,0.7-1.4c0.1,0,0.1,0.1,0.2,0.1
		c0-0.7,0.1-1.4,0.2-2.1c-0.4,0.2-0.8,0.4-1.5,0.7c0-0.9,0.1-1.7,0.1-2.6c0.5-0.2,1.1-0.2,1.6-0.2c0.5-4.8,1.3-9.8,1.8-15.3
		c3.2-9.3,4-21.2,10.8-26.9C35.4,84.5,37.5,80.9,39.3,80.9 M21.9,124c0,0.1,0,0.1,0,0.2C21.9,124.1,21.9,124,21.9,124
		C21.9,123.9,21.9,124,21.9,124 M32.7,61.9c0.6,0.1,0.7,0.7,1.4,0.7c-0.1,0.6-0.7,0.7-0.7,1.4c-0.6-0.1-0.7-0.7-1.4-0.7
		C32.1,62.7,32.7,62.6,32.7,61.9 M31.9,66.2c-0.1,2.1-2.1,4.1-3.4,3.4C29.1,68.1,30.3,65.3,31.9,66.2 M29.8,71.2c-1,2-1.9,0.8-5,1.4
		C26.2,70.8,28.2,71,29.8,71.2 M24.1,77.5c3.7,1.7-2.4,3.5-1,6.4c-2.4,0.9-1.3-1.6-2.9-1.5C21.3,81.3,24.1,81,24.1,77.5 M3.5,130.4
		c0.3-1.7-0.7-4.3,0.5-7.3C4.5,125.3,4.9,128.6,3.5,130.4 M3,123.6c-0.6-0.8-0.4-1.8,0-2.9c0.4,0.8,1.6,0.7,1.5,2
		C4.1,123,3.1,122.9,3,123.6 M4,117.7c0.8-0.8,0.4-2.9,0.5-4.4C5.2,114.9,7,117.5,4,117.7 M9.4,90.7c2.3,1.3-0.5,4.3-1,5.9
		C7.2,95.1,9,92.3,9.4,90.7 M8.4,130.4c0-0.9,1.8,0.4,2.5,0.5c0.2,1-0.3,1.3-0.5,2C8,132.9,9.2,131.1,8.4,130.4 M11.3,149
		c-0.7-0.1-0.2-1.5-1-1.5h-1c1.5-0.4,1.4-2.5,2.9-2.9C11.1,146.2,13.1,148,11.3,149 M11.3,144.1v-2.9c1.2,1.3,0.5,1.5,1.5,2.9H11.3z
		 M12.3,138.3c-0.4,0.1-0.5,0.5-1,0.5c-0.2,0.8,0.4,0.9,1,1c-1.9,2.7-1.3-1.8-1-3.4c0.7,0.6,0.7,1.9,1.5,2.4
		C12.6,139.5,12.3,138.8,12.3,138.3 M11.8,131.9c-0.2-1-0.5-3.8,0-6.4c2.8,1.4,0,3.9,2.5,5.9C13.3,131.2,11.6,129,11.8,131.9
		 M15.8,105.4c0,1-0.1,2.1-0.1,3.1c-0.1,0.4-0.3,0.8-0.4,1.2c-0.4,0-0.7,0-1.2,0v2.8c0.2,0,0.3,0,0.4,0c-0.7,2.9-1,5.9-1,8.9
		c-0.2,1-0.5,1.8-0.7,2.6c-0.8-3.6,1.3-7.8-0.5-12.3c3,1.9,0.5-1.3,0.8-2.8h-0.5v-2.2c0.9-0.1,1.1,0.3,1.6,0.6c-0.5-0.9-0.8-1.9,1-2
		c-0.4-0.9-1.4-1.2-1-2.9c3.5-0.8,2.4-6.1,4.4-8.3c3,2.6-1.7,5.9-0.7,8.8c0,0.1-0.1,0.2-0.1,0.2C16.7,102.4,17.5,105.7,15.8,105.4
		 M23.6,163.7c0.8-2.5-1.3-5.5-0.5-8.3c0.1-1.1-0.4-1.6-1.5-1.5c1.6-2.8,0.9-4.9,1.5-8.3c1.4,10,0.7,17.7,4.4,27.9
		C25.1,173.3,26.1,165.4,23.6,163.7 M27,174.5c3.1,6.8,4.9,14.4,7.8,20.1C31.8,192.7,28.9,182,27,174.5 M34.8,182.5
		c-0.6-0.1-0.7-0.7-1.4-0.7c0.1-0.6,0.7-0.7,0.7-1.4c0.6,0.1,0.7,0.7,1.4,0.7C35.4,181.7,34.8,181.8,34.8,182.5 M38.3,182.8
		c-2.1-1-2.1-4.1-2.9-6.4c0.4,0.3,0.9,0.6,1,0c1.7,0.7-1.4,3.4,1.2,3c0.1-0.1,0.1-0.3,0.1-0.5c0.6,0.1,0.7,0.7,1.4,0.7
		c-0.1,0.6-0.7,0.7-0.7,1.4c-0.3-0.1-0.5-0.3-0.8-0.5C37.9,181.1,38.6,181.2,38.3,182.8 M46.2,194.6c-0.6-0.1-0.7-0.7-1.4-0.7
		c0.1-0.6,0.7-0.7,0.7-1.4c0.6,0.1,0.7,0.7,1.4,0.7C46.8,193.8,46.2,193.9,46.2,194.6 M58.3,199.6c-0.9-0.3-1.1-1.3-2.1-1.4
		c0.1-0.6,0.7-0.7,0.7-1.4c0.9,0.3,1.1,1.3,2.1,1.4C58.9,198.8,58.3,198.9,58.3,199.6 M76.9,210c-0.5-1.9,1.4-1.4,1.4-2.8
		c0.9,0.3,1.1,1.3,2.1,1.4C80.4,210.2,78.7,210.1,76.9,210 M86.9,210.6V210c-2.4-0.3-0.8-3,1.4-2.8c-0.5,0.6-0.8,1.5-0.7,2.7H89v1.4
		h-1.4C87.6,210.9,87.5,210.5,86.9,210.6 M88.3,215c0.9,0.3,1.5,0.9,1.4,2.1C87.3,217.8,87.3,216.1,88.3,215 M89.7,211.4
		c0.2-1.7,1.9-1.6,2.9-0.7C92.4,212.4,90.7,212.4,89.7,211.4 M92.6,217.9c-0.6-0.1-0.7-0.7-1.4-0.7c0.1-0.6,0.7-0.7,0.7-1.4
		c0.6,0.1,0.7,0.7,1.4,0.7C93.2,217,92.6,217.2,92.6,217.9 M112.5,212.7c-0.7-0.3-1.3-0.5-2-0.8c0.2-0.3,0.9-0.3,1.3-0.4
		c-0.1-1.8-0.1-3.4,0.7-4.3C115,208.1,112.3,211,112.5,212.7 M115.4,187c0,0,0.1-0.1,0.1-0.1c0.5,0.2,0.7,0.7,1.3,0.7
		c-0.1,0.6-0.7,0.7-0.7,1.4c-0.6-0.1-0.7-0.7-1.4-0.7C114.9,187.7,115.3,187.5,115.4,187 M116.9,208.6c-0.6-0.1-0.7-0.7-1.4-0.7
		c0.1-0.6,0.7-0.7,0.7-1.4c0.6,0.1,0.7,0.7,1.4,0.7C117.4,207.8,116.9,207.9,116.9,208.6 M119.7,201.8c-0.6-0.1-0.7-0.7-1.4-0.7
		c0.1-0.6,0.7-0.7,0.7-1.4c0.6,0.1,0.7,0.7,1.4,0.7C120.3,200.9,119.7,201.1,119.7,201.8 M124,214.3c-1.3,1.4-3.4,0.4-2.8-2.1
		C123,212,124.2,212.4,124,214.3 M124.7,210c0.1-1,0.1-2-0.7-2.1c0.1-1.4,2.7,0.6,3.6,0.7C127.4,209.8,126.3,210.2,124.7,210
		 M137.4,185.3c0.5-0.5,1.1-1.1,1.6-1.6c-0.2,0.6-0.5,1-0.7,1.7C137.9,185.4,137.7,185.4,137.4,185.3 M138.3,213.6
		c0.2-1.7,1.9-1.6,2.8-0.7C140.9,214.5,139.2,214.5,138.3,213.6 M142.6,196.1c-0.3-1.5,0.5-1.9,0.7-2.9c0.9,0.3,1.1,1.3,2.2,1.4
		C145.3,195.9,144.2,196.3,142.6,196.1 M142.6,184c0.9,1.1,2.8,1.4,3.8-0.1c-0.2,0.7,0,1.5,0.4,2C144.9,186,142.9,185.5,142.6,184
		 M153.3,199.6c-0.6-0.1-0.7-0.7-1.4-0.7c0.1-0.6,0.7-0.7,0.7-1.4c0.6,0.1,0.7,0.7,1.4,0.7C153.9,198.8,153.3,198.9,153.3,199.6
		 M154.8,180.9c0.5-0.6,1-1.2,1.6-1.8c0.5,0.1,0.9,0.3,1.2,0.6C157.5,181,156,181.3,154.8,180.9 M159,201.8c-2.4,0.7-2.3-1-2.1-2.9
		h2.1V201.8z M161.1,194.6c-0.6-0.1-0.7-0.7-1.4-0.7c0.1-0.6,0.7-0.7,0.7-1.4c0.6,0.1,0.7,0.7,1.4,0.7
		C161.7,193.8,161.1,193.9,161.1,194.6 M159.7,176.1v-0.9c0.3-0.4,0.7-0.8,1-1.2c0.8,0.2,1.2,0.9,1.1,2.1H159.7z M167.5,181.8
		c-0.6-0.1-0.7-0.7-1.4-0.7c0.1-0.6,0.7-0.7,0.7-1.4c0.6,0.1,0.7,0.7,1.4,0.7C168.1,180.9,167.5,181.1,167.5,181.8 M171.1,191.1
		c1.6-0.1,2.3,0.6,2.1,2.1C171.7,193.3,171,192.6,171.1,191.1 M172.3,176.2c0.7,0.4,1.6,0.4,2.3,0c0,0.2,0,0.3,0.1,0.5
		C173.5,177,172.7,176.8,172.3,176.2 M176.1,174.2c0.2-0.4,0.4-0.7,0.6-1.1c0,0,0.1,0,0.1,0.1C176.7,173.8,176.4,174.1,176.1,174.2
		 M180.4,178.2c0.1-0.6,0.7-0.7,0.7-1.4h1.4C182.9,178.3,181.5,178.1,180.4,178.2 M181.8,168.9c0.2-1.7,1.9-1.6,2.8-0.7
		C184.5,169.9,182.8,169.9,181.8,168.9 M184,176.1c0.3-0.9,1.3-1.1,1.4-2.1C188.4,174.4,185.7,178.4,184,176.1 M186.8,158.2h-2.2
		c-0.1-0.5-0.1-0.8,0-1.1c0.3-0.6,0.6-1.1,0.9-1.7C186.7,155.7,187,156.7,186.8,158.2 M189,163.2c-0.6-0.1-0.7-0.7-1.4-0.7
		c0.1-0.6,0.7-0.7,0.7-1.4c0.6,0.1,0.7,0.7,1.4,0.7C189.5,162.4,188.9,162.5,189,163.2 M186.8,154.7c0.2-1.6,1.9-1.6,2.8-0.7
		C189.5,155.6,187.8,155.6,186.8,154.7 M203.9,144.7c-2.5-0.6-3,1.3-4.3,0c0.6-1.5,1.8-2.5,4.3-2.1V144.7z M208.3,69.2
		c-11.5-16-27.2-27.3-43.1-37.7V30c13.1,4.5,22.2,13.1,31.8,21.1c1-3.3,5,4.7,6.9,7.3c4.3,6.3,10.9,13.8,15.2,22.1
		c1.4,2.6,3.8,5,4.9,7.3c1.3,2.8,1.4,6.9,2.4,10.3c1.9,6.3,4.3,16.9,3.9,25C224.4,103.8,218.9,84,208.3,69.2 M228.9,153.4
		c-0.3-2.1,0.4-3.2,0.5-4.9C230.8,148.7,231.1,154,228.9,153.4"/>
	<path class="st0" d="M22.8,136.5c0.2,0.1,0.3,0.3,0.6,0.4c0-0.4,0.2-0.6,0.4-0.8c0-0.2,0-0.4,0.1-0.7c-0.4-0.1-0.6-0.4-0.9-0.6
		C22.8,135.3,22.8,135.9,22.8,136.5"/>
	<path class="st0" d="M23,132.6c0.3-0.1,0.7-0.2,1.1-0.2c0.1-0.5,0.1-1.1,0.2-1.6c-0.3-0.2-0.7-0.3-1.1-0.3
		C23.2,131.2,23.1,131.9,23,132.6"/>
	<path class="st0" d="M37.8,179.4c-0.1,0-0.2,0-0.3,0c-0.2,0.3-0.5,0.5-0.6,0.9c0.3,0,0.5,0.1,0.7,0.2
		C37.5,180.3,37.4,180,37.8,179.4"/>
	<path class="st0" d="M43.4,76.1L43.4,76.1c0.2,0,0.4,0,0.6,0c0.5-0.6,1-1.2,1.5-1.8c0-0.1,0-0.2,0-0.3
		C43.9,73.9,43.2,74.6,43.4,76.1"/>
	<path class="st0" d="M44.8,71c0.2,0.1,0.4,0.2,0.7,0.2c0.9-2.5,1.2-0.6,2.1,0.3c0.5-0.7,0.9-1.3,1.4-2c-0.8-0.3-1.5-0.8-2.2-1.2
		C46.1,69.2,45.4,70.1,44.8,71"/>
	<path class="st0" d="M67.2,51.2c0.8-0.5,1.6-1,2.4-1.4h-2.7C67,50.3,67.1,50.8,67.2,51.2"/>
	<path class="st0" d="M67.6,34v2.1h2.2C69.9,34.6,69.2,33.9,67.6,34"/>
	<path class="st0" d="M72.3,48.4c0.3-0.1,0.7-0.3,1-0.4c-0.2-0.2-0.4-0.3-0.7-0.4C72.6,48,72.4,48.2,72.3,48.4"/>
	<path class="st0" d="M78.3,31.2c1.1-1.1,0.8-3.2-1.4-2.8C76.7,30,77.1,31,78.3,31.2"/>
	<path class="st0" d="M85.5,25.5h-2.1C82.9,28.1,85.8,28.1,85.5,25.5"/>
	<path class="st0" d="M84.7,28.3c0.7,0,0.8,0.6,1.4,0.7c0-0.7,0.6-0.8,0.7-1.4c-0.7,0-0.8-0.6-1.4-0.7
		C85.5,27.6,84.9,27.7,84.7,28.3"/>
	<path class="st0" d="M88.3,30.5c0-0.7,0.6-0.9,0.7-1.4c-0.7,0-0.8-0.6-1.4-0.7c0,0.7-0.6,0.8-0.7,1.4
		C87.6,29.7,87.7,30.3,88.3,30.5"/>
	<path class="st0" d="M87.6,32.6c0.7,0,0.9,0.6,1.4,0.7c0-0.7,0.6-0.9,0.7-1.4c-0.7,0-0.9-0.6-1.4-0.7C88.3,31.9,87.7,32,87.6,32.6"
		/>
	<path class="st0" d="M95.5,26.9c-0.9-0.9-2.7-0.9-2.8,0.7C93.6,28.5,95.3,28.6,95.5,26.9"/>
	<path class="st0" d="M105.4,31.2c1-0.9,1.1-3.5-0.7-3.6c-0.4,1.5-1.1,1.5-2.1,0.7C102.7,30.1,103.6,31.1,105.4,31.2"/>
	<path class="st0" d="M109,26.9v-1.4C107.7,23.1,105.5,27.6,109,26.9"/>
	<rect x="111.9" y="23.3" class="st0" width="2.1" height="2.1"/>
	<g>
		<path class="st1" d="M33.6,111.9c0.5-0.4,3.7-0.5,9.9-0.3l0.2-0.2c0.6-0.6,0.7-3.2,0.5-8.1c0.1-1.2,0.3-2,0.8-2.4l0.2-0.2
			c1.1-1.1,4-1.3,8.5-0.7l0.4,0.3c0.6,0.6,0.8,3.7,0.5,9.1l0.2,1.8l0.2,0.2c0.2,0.2,3.5,0.2,10,0.2l1,0.7c0.7,0.7,0.8,3.7,0.3,8.9
			l-0.5,0.5c-0.7,0.7-3.8,0.9-9.2,0.7l-1.8,0.2c0,6.8-0.1,10.3-0.5,10.7l-0.2,0.2c-1.7,1.1-4.6,1.2-8.5,0.3l-0.4-0.3
			c-0.8-1.9-1.1-5.2-0.8-10c-0.4-0.3-0.6-0.7-0.7-1c-6.2,0.1-9.7-0.1-10.3-0.8c-0.9-0.9-1.1-3.3-0.6-7.2
			C33,113,33.3,112.2,33.6,111.9z M38.7,118.6l0.3,0.3l0.2-0.2l-0.3-0.3L38.7,118.6z M41.7,118l0.5,0.5l0.8-0.8l-0.5-0.5
			c-0.2-0.2-0.5-0.2-0.7,0l-0.2,0.2C41.5,117.6,41.5,117.8,41.7,118z M42.7,115.4l0.2,0.2l0.3-0.3L43,115L42.7,115.4z M44.2,118.5
			l0.3,0.3c0.2,0.2,0.5,0.2,0.6,0l0.2-0.2c0.2-0.2,0.2-0.4,0-0.6l-0.8-0.8C44.5,117.8,44.4,118.3,44.2,118.5z M44.3,116.7l1,0.6
			c0.6-0.5,0.7-1.2,0.5-2.1c-0.5,0.5-1,0.8-1.5,0.8C44.1,116.3,44.1,116.5,44.3,116.7z M45.1,113.6l0.2,0.2c0.3,0.2,0.5,0.2,0.7,0
			l0.3-0.4l-0.2-0.2c-0.2-0.2-0.4-0.2-0.6,0L45.1,113.6z M45.1,120.4l0.7,0.7l0.3-0.3l-0.6-0.7L45.1,120.4z M47.9,113.7
			c0.2,0.2,0.2,0.5,0,1c-0.2,0.3-0.5,0.4-0.8,0.5c-0.2,0.6-0.4,1-0.7,1.3l0.7,0.6c0.2,0.2,0.5,0.2,0.6,0l0.3-0.3l0.2-1.2l0.6-0.6
			c0.2-0.2,0.5-0.2,0.6,0c-0.6,1.9-1,3-1.3,3.3c1.1,0.6,1.9,0.7,2.3,0.3c0.2-0.2,0.5-0.2,1,0l0.3,0.3c0.2,0.2,0.2,0.5-0.2,0.8
			l0.3,0.3l0.8,0.2l0.2,0.2l0.2,0.5l0.5-0.5c-0.5-0.5-0.9-1.1-1-1.6l-1-0.6l0.3-0.3l0.8-0.2l0.6-0.6l-0.3-0.3c-0.2-0.2-1,0-2.2,0.8
			l-0.2-0.2c-0.2-0.2-0.2-0.5,0-1c0.3-0.3,0.8-0.5,1.3-0.6c-0.1-0.3-0.2-0.5-0.3-0.6l-1-0.7l0.2-0.8l0.4-0.4l0.5-0.2l-0.3-0.3
			c-0.1-0.1-0.8,0-2,0.3c-0.1,0.3-0.2,0.5-0.3,0.7C49.1,113.5,48.6,113.5,47.9,113.7z M47.1,118.1c0.2,0.2,0.5,0.2,0.6,0
			c0.2-0.2,0.2-0.4,0-0.7L47.1,118.1z M47.4,119.5l0.2,0.5l0.3,0.3l0.2-0.5c0.3,0.2,0.5,0.2,0.7,0l-0.2-0.5l-0.3-0.4
			C48,119.2,47.7,119.4,47.4,119.5z M47.6,118.6l0.3,0.3l0.2-0.2l-0.3-0.3L47.6,118.6z M48.3,113c0.3-0.3,0.6-0.3,1,0
			c0.1-0.5,0.2-0.8,0.3-1l-0.5-0.5l-0.8,0.8C48.1,112.6,48.1,112.8,48.3,113z M48.4,123.7l0.5,0.5l0.2-0.2l-0.5-0.5L48.4,123.7z
			 M48.6,110.4c0.8,0.3,1.3,0.3,1.5,0.2l0.2-0.2c-0.1-0.1-0.3-0.2-0.7-0.3l-0.8-1.2C48.5,109.7,48.4,110.2,48.6,110.4z M49.2,106.8
			l0.5-0.5l-0.4-0.4l-0.2,0.2C49.1,106.4,49.1,106.6,49.2,106.8z M49.4,120.1c0.5,0.5,0.4,0.9-0.2,1.5l0.8,0.8
			c0.9,0,1.5,0.1,1.8,0.5l0.3-0.3c0.2-0.2,0.2-0.6,0-1.3c-0.2-0.2-0.5-0.1-1.2,0.2c-0.1-0.5-0.4-1.1-1-1.6
			C49.9,119.9,49.7,120,49.4,120.1z M50.2,108.1l0.2,0.2l0.2-0.2c0.2-0.2,0.2-0.4,0-0.7l-0.2-0.2l-0.2,0.2
			C50.1,107.7,50.1,107.9,50.2,108.1z M50.6,111.1l0.5,0.5l0.2-0.2l-0.5-0.5L50.6,111.1z M53.5,114.4l0.2,0.2l0.4-0.3l-0.2-0.2
			L53.5,114.4z M54.5,118.3c1,0.3,1.6,0.3,1.8,0.2l0.7-0.6l-0.5-0.5c-0.2-0.2-0.6-0.2-1.3,0c0.1,0.1,0.1,0.2,0,0.3
			c-0.2-0.2-0.4-0.2-0.6,0C54.3,117.9,54.3,118.1,54.5,118.3z M55.5,115.7l0.3,0.3l0.3-0.3l-0.3-0.3L55.5,115.7z"/>
		<path class="st1" d="M94.2,84.9c4.7,0,7,0.5,7,1.4v58.8c0,0.3,0.1,0.7,0.2,0.9c-0.5,1.7-1.3,2.6-2.6,2.6h-5.8
			c-1,0-1.8-0.7-2.3-2.1c0-0.9,0.1-2.8,0.2-5.8c-0.2-3.4-0.2-5.7-0.2-6.7c0.2-1.6,0.3-2.5,0.4-2.8l-0.4-5.1c0.2-0.9,0.2-1.5,0.2-1.9
			c-0.2-2.2-0.2-3.6-0.2-4.2L91,119c-0.2-0.6-0.2-1.2-0.2-1.8c0-0.5,0.1-0.9,0.2-1.2l-0.5-3.5l0.5-3c0-0.3-0.1-1.2-0.2-2.8
			c0.2-2.8,0.2-4.6,0.2-5.4c0-0.1-0.1-0.8-0.2-1.9l0.2-1.2l-0.2-1.2c0-0.2,0.1-0.4,0.2-0.7c0-0.1-0.1-0.8-0.2-1.9
			c0-6.3,0.6-9.5,1.8-9.5L94.2,84.9z M94,104.4v0.4h0.2v-0.4H94z M94,118.8l0.5,0.2h0.7v-0.9h-0.4C94.5,118.1,94.2,118.3,94,118.8z
			 M94.5,97.7v0.2c0.1,0.9,0.3,1.4,0.7,1.4h0.2v-0.2c-0.3-0.4-0.4-0.8-0.4-1.4H94.5z M94.9,93.2l0.7,0.5h0.5
			c-0.3-0.4-0.5-0.7-0.5-0.9h-0.2C95.1,92.8,94.9,93,94.9,93.2z M95.6,133v0.2h0.5V133H95.6z M95.8,99.5v0.5h0.2v-0.5H95.8z
			 M95.8,104.2v0.4h0.2v-0.4H95.8z M96.1,112.8v0.5H97l0.2-1.2c-0.2-0.3-0.2-0.6-0.2-0.7h-0.2C96.3,111.5,96.1,112,96.1,112.8z
			 M96.1,119.7v0.7c0.2-0.2,0.7-0.2,1.4-0.2v-0.2C96.8,119.9,96.3,119.9,96.1,119.7z M96.3,118.3v0.2h0.5v-0.2H96.3z M97.2,92.5v0.7
			h0.4V93C97.7,92.7,97.5,92.5,97.2,92.5z M97.5,104.2l-0.2,0.4h0.7C97.9,104.3,97.8,104.2,97.5,104.2z M97.2,140.6v0.2
			c0.1,0.3,0.2,0.5,0.4,0.5v-0.7H97.2z M97.5,136.7v0.2h0.4v-0.2H97.5z M97.7,91.6v0.2c0,0.2,0.2,0.5,0.7,0.7v-0.5
			c0-0.3-0.2-0.4-0.5-0.4H97.7z"/>
		<path class="st1" d="M112.1,84.6c1.9,0.2,3,0.2,3.3,0.2c0.1,0,0.6-0.1,1.4-0.2c2.7,0,4.2,1.2,4.7,3.7l8.1,24h0.2l0.5-0.2
			c-0.2-0.3-0.2-0.5-0.2-0.7c0-0.1,0.1-0.6,0.2-1.4l-0.2-0.4c0.3-0.7,0.4-1.7,0.4-3v-0.7c0-3.1-0.1-5.2-0.2-6.3
			c0.1-1.7,0.2-4,0.2-6.8v-0.9c0-1.3-0.1-2.7-0.2-4.4c0.6-1.9,1.5-2.8,2.8-2.8h4.7c1.3,0,2.3,0.5,3,1.6v59.9
			c-0.3,1.5-1.1,2.3-2.3,2.3h-5.8c-1.7,0-3.1-2.9-4.2-8.6c-1.4-3.1-3.4-8.6-5.8-16.3c-0.5,0-1.1-1.3-1.9-4c-0.3,0-0.4-0.3-0.4-0.9
			H120V145c0,0.4,0.1,0.7,0.2,1c-0.5,1.7-1.4,2.6-2.6,2.6h-6.3c-0.5-0.1-1.1-0.8-1.9-2.1c0.2-1.5,0.2-2.7,0.2-3.5v-9.1l0.2-1.4
			c-0.2,0-0.3-2.6-0.5-7.7l0.2-0.4c0-0.2-0.1-0.4-0.2-0.7c0.2-2.6,0.2-4.6,0.2-6.1c0-2.3-0.1-4.5-0.2-6.5l0.5-4.7l-0.5-1.9
			c0.2-1.3,0.2-2.4,0.2-3.2v-2.1c0-0.3-0.1-0.7-0.2-0.9c0.2-0.3,0.2-0.6,0.2-0.7c0-2.3-0.2-5.4-0.5-9.3
			C109.8,85.8,110.7,84.6,112.1,84.6z M113.2,131.5v0.4c0.1,0.3,0.2,0.5,0.5,0.5h0.2V132c0-0.3-0.2-0.4-0.5-0.4H113.2z M113.5,114.7
			v0.2h0.5v-0.2H113.5z M113.7,90.5v0.2l0.2,1.6h0.7c-0.3-0.6-0.4-1.2-0.4-1.9H113.7z M118.8,109.1c-0.2,0.6-0.8,0.9-1.6,0.9v1.2
			l-1.6,1.8h-0.2l-1.6-0.2v0.7c0.6,0,0.9,0.2,0.9,0.5l0.5-0.2l1.2,0.7l1-0.7c0.3,0.1,0.4,0.2,0.4,0.5v0.2c0,0.2-0.2,0.5-0.7,0.7
			h-0.5l-0.7-0.5h-0.2v2.1l0.7,0.9H116c0.2,0.6,0.5,1,0.7,1c0-0.2,0.1-0.2,0.2-0.2l-0.2-1.2v-0.2l1.4,0.9v-0.5
			c0-0.1-0.2-0.7-0.5-1.8l0.5-0.2c0,0.2,0.3,0.5,0.9,0.9h0.7l-0.5-0.7v-0.2c0.9,0,1.4,0.4,1.4,1.2h1c0.3,0,0.5-0.6,0.7-1.9
			c-1-0.5-1.7-0.7-2.1-0.7l-1.4,0.2l-0.4-0.7c1.3-0.5,1.9-0.7,2.1-0.7c0.2,0.3,0.2,0.5,0.2,0.7h0.2c0-0.5,0.2-0.7,0.7-0.7v-0.2
			c-0.9-0.2-1.4-0.4-1.4-0.7v-0.7c0-0.3,0.2-0.5,0.7-0.5v-0.2c-0.6-0.2-1.2-0.2-1.6-0.2v-0.7h0.7v-0.2L118.8,109.1z M113.7,124.5
			v0.4h0.5C114.2,124.7,114,124.5,113.7,124.5z M113.7,141.8v0.4h0.2v-0.4H113.7z M113.9,96.3v0.2c0.1,0.3,0.2,0.4,0.4,0.4v-0.7
			H113.9z M113.9,108.2v0.9h0.2v-0.9H113.9z M113.9,129.4c0.1,0.3,0.2,0.5,0.4,0.5h0.2v-0.5H113.9z M114.4,90h0.5v-0.4
			C114.5,89.6,114.4,89.7,114.4,90z M116,91.9l-0.7,1.4l-0.5-0.2h-0.5c0.2,0.8,0.5,1.2,0.7,1.2h1.9l-0.5-0.7v-0.2
			c0.3-0.6,0.7-0.9,1.2-0.9v-0.2c-0.3,0-0.4-0.1-0.4-0.2l-0.5,0.2C116.4,91.9,116.2,91.9,116,91.9z M114.4,101.7v0.5h0.5v-0.5H114.4
			z M114.4,104.4h1l0.2-1.2v-0.5C114.8,103.1,114.4,103.7,114.4,104.4z M114.4,118.2v0.2c0.1,0.3,0.2,0.4,0.5,0.4l0.2-0.4v-0.2
			H114.4z M115.1,141.1c0,0.3-0.2,0.5-0.7,0.5v0.2c0,0.2,0.5,0.5,1.4,0.9c0-0.2,0.1-0.2,0.2-0.2
			C115.7,141.5,115.4,141.1,115.1,141.1z M114.6,138.8v0.2c0.1,0.3,0.2,0.4,0.5,0.4l0.2-0.4c-0.2-0.3-0.2-0.6-0.2-0.7
			C114.8,138.3,114.6,138.5,114.6,138.8z M115.1,122.2v0.2c0.4,0,1,0.3,1.9,0.9c0-0.3,0.2-0.4,0.7-0.4v-0.7l-0.4,0.2h-0.7l-0.7-0.5
			C115.5,122.1,115.3,122.2,115.1,122.2z M115.3,106.8h0.2c1.1,0,1.6-0.7,1.6-2.1c-0.3-0.2-0.6-0.2-0.7-0.2
			C116.1,104.4,115.7,105.2,115.3,106.8z M115.3,128.5v0.4h0.5C115.8,128.6,115.7,128.5,115.3,128.5z M115.6,96.5v0.7h0.4v-0.7
			H115.6z M115.8,107.7c0,0.7-0.1,1.2-0.2,1.4c0.3,0,0.4,0.2,0.4,0.7h0.5c0.3,0,0.5-0.5,0.5-1.4l-1-0.7H115.8z M115.6,119.9v0.2
			c0.3,0,0.7,0.3,1.2,0.9l0.7-0.9v-0.7C117.3,119.4,116.7,119.5,115.6,119.9z M116,126.6v0.5l1.2,0.2v-1.2
			C116.8,126.5,116.4,126.6,116,126.6z M116.5,99.3l-0.2,0.9l1,0.7l0.2-0.5v-1.2l-0.4,0.2L116.5,99.3z M118.4,100.5
			c0,0.8-0.2,1.2-0.7,1.2c0-0.3-0.1-0.4-0.4-0.4c-0.3,0.1-0.6,0.2-1,0.2v0.5c0.4,0,0.8,0.2,1.2,0.5h0.5c0.9-0.6,1.4-1,1.4-1.2V101
			c0-0.3-0.2-0.5-0.5-0.5H118.4z M116.3,103.1v0.2c0.2,0.6,0.5,1,0.7,1h0.9v-0.7c0-0.3-0.2-0.5-0.5-0.5H116.3z M116.7,97.9
			c0.3,0.4,0.5,0.7,0.5,0.9c0.5-0.8,0.8-1.2,1.2-1.2c0-0.3-0.2-0.5-0.5-0.5h-0.5C117.2,97.2,117,97.5,116.7,97.9z M119.5,102.6
			c0,0.8-0.4,1.2-1.2,1.2v0.5l-0.2,1.6c0.2,0,0.2,0.1,0.2,0.2c-0.6,0.2-1,0.5-1,0.7c0.2,0.3,0.2,0.5,0.2,0.7
			c-0.2,0.3-0.2,0.6-0.2,0.7h1c0.2,0,0.4-0.2,0.7-0.7l-0.4-1.2h0.2l1,0.5l-0.2,0.4v0.7c0.4,0.8,0.7,1.2,0.9,1.2l1.2-0.2v-0.2
			c-0.8,0-1.2-0.1-1.2-0.4l0.7-2.6l-0.7,0.4H120l-0.5-0.2c0.5-0.9,0.7-1.5,0.7-1.6l-0.2-1.6H119.5z M118.6,111.7l0.2,0.5l-0.4,0.2
			l-0.2-0.5L118.6,111.7z M118.1,119.9v0.9h0.2c0.2,0,0.5-0.3,0.7-0.9H118.1z M118.4,96.8v0.4h0.2c0.2,0,0.4-0.2,0.7-0.7v-0.5h-0.2
			C118.8,96.1,118.6,96.3,118.4,96.8z M118.6,97.9v0.2c0,0.3,0.2,0.4,0.4,0.4h0.2c0.3,0,0.5-0.1,0.5-0.4v-0.2c0-0.3-0.2-0.5-0.5-0.5
			h-0.2C118.8,97.5,118.6,97.7,118.6,97.9z M119.8,116.8v0.7c0.3,0,0.5-0.1,0.5-0.4v-0.2H119.8z M120.7,104.3l0.2,1.2h0.9v-1
			L120.7,104.3z M121.2,110.8v0.7c0,0.2,0.2,0.4,0.7,0.7h0.2l0.5-2.1v-0.4h-0.2C122.1,109.6,121.7,110,121.2,110.8z M121.8,109.1
			v0.2h0.5v-0.2H121.8z M124.2,112.2c0,0.3-0.2,0.7-0.7,1.2c0.8,0,1.2,0.2,1.2,0.5v0.2l-1.2-0.2c0,0.2,0.1,0.2,0.2,0.2l-0.2,1.2v0.5
			l0.5,0.7c-0.2,0-0.2,0.1-0.2,0.2l-0.5-0.2c-0.2,0-0.7,0.5-1.4,1.6c0.2,0.5,0.3,0.7,0.5,0.7c0.1,0,1-0.5,2.6-1.6v0.2l-0.2,1.2
			c0.2,0,0.2,0.1,0.2,0.2l1.2-0.2h0.2l0.5,0.2l0.7-1c-0.9-0.3-1.4-0.7-1.4-1.2h-0.2l-0.5,0.2c0-0.3-0.2-0.7-0.7-1.2
			c0-0.7,0.4-1.5,1.2-2.4C125.8,113.1,125.3,112.7,124.2,112.2z M122.1,113.1v0.5h0.5C122.6,113.2,122.4,113.1,122.1,113.1z
			 M122.1,119.9v0.4h0.2v-0.4H122.1z M122.8,105.6v0.2h0.4v-0.2H122.8z M122.8,112.2v0.9c0.6-0.2,0.9-0.4,0.9-0.7
			C123.4,112.4,123.1,112.3,122.8,112.2z M124.6,120.1v1.2h0.2c0-0.2,0.2-0.6,0.5-1l-0.5-0.2H124.6z M125.6,121.9v0.5
			c0.1,0.3,0.2,0.5,0.5,0.5h0.7v-0.5C126.5,122.4,126.1,122.3,125.6,121.9z M125.8,111v0.5h0.2V111H125.8z M126.5,119.6l-0.2,0.5
			c0.1,0.3,0.2,0.4,0.5,0.4l0.2-0.4C127,119.8,126.8,119.6,126.5,119.6z M126.3,124.3c0.1,0.3,0.2,0.4,0.5,0.4v-0.4H126.3z
			 M126.5,111.5h0.5V111C126.7,111.1,126.5,111.2,126.5,111.5z M127,112.2c-0.3,0.5-0.5,1-0.5,1.4v0.2c0,0.2,0.2,0.4,0.7,0.7h0.2
			c0-0.4,0.1-1,0.2-1.8L127,112.2z M131,114.3v0.7l0.5,0.7v0.4c0,0.2-0.7,0.6-2.1,1.2l-0.2-0.5v-0.2c0-0.3,0.3-0.5,1-0.5v-0.7h-0.2
			c-0.5,0.3-0.9,0.4-1.2,0.4l-0.2-0.4c0.3,0,0.5-0.2,0.5-0.5v-0.2h-1.2c0,0.4-0.1,0.8-0.4,1.2v0.2c1.9,1.4,2.8,2.8,2.8,4v0.4
			c0,0.3-0.2,0.5-0.5,0.5c-0.3,0-0.6-0.4-0.7-1.2h-0.2v0.7c0.2,0.3,0.2,0.6,0.2,0.7c-0.3,0-0.6,0.3-1,0.9v0.2c0.4,0.8,0.7,1.2,1,1.2
			l-0.2,0.5v0.2h1.8c0.2,0,0.5-0.6,1-1.9v-0.2h-0.7c-0.7,0.8-1.2,1.2-1.4,1.2l-0.4-0.7c0-0.4,0.5-0.9,1.6-1.4h0.5l0.7,0.4h0.4v-0.2
			c-0.5-0.6-0.7-1.1-0.7-1.6v-0.2h0.5c0,0.5,0.5,1,1.4,1.4h0.2v-1.4c0.8-0.9,1.2-1.9,1.2-3h-0.2l-0.5,0.2c-0.9-0.4-1.4-0.7-1.4-1
			c0.2-0.5,1-0.9,2.3-1.4c0-0.3,0.2-0.4,0.7-0.4v-0.2c-1,0-1.7-0.2-2.1-0.7h-0.2l-1,1.4h-0.7l0.2-1.2v-0.4
			C131.7,112.9,131.4,113.3,131,114.3z M127.9,118.5v0.4h0.2v-0.4H127.9z M128.9,125.9l-0.2,1.2l0.4,0.2l0.2-0.5v-0.5
			C129.3,126.1,129.2,125.9,128.9,125.9z M128.9,131l0.9,0.9c0.6-0.2,0.9-0.4,0.9-0.7C130.3,131.3,129.7,131.2,128.9,131z
			 M129.6,126.4l0.5,0.2h0.9v-0.9h-0.7C130,125.7,129.8,125.9,129.6,126.4z M134.9,121.9c0,0.6-0.1,1-0.4,1
			c-0.3-0.2-0.6-0.2-0.7-0.2l-0.4,0.2c-0.3-0.2-0.6-0.2-1-0.2l-0.9,1.4c-0.3,0.1-0.5,0.2-0.5,0.5c0.6,0.3,1,0.7,1,1.2l0.4-0.2
			l0.5,0.2c0-0.2,0.1-0.2,0.2-0.2l0.2,0.5c-1.7,1.4-2.6,2.1-2.8,2.1v0.5c0.7,0,1.2,0.3,1.4,0.9c-0.2,0.2-0.8,0.2-1.6,0.2v0.2
			c0.5,0,0.9,0.1,1.2,0.2c-0.3,0.6-0.5,1.1-0.5,1.4h0.2l1.2-1.2l1,0.7h0.2c0-0.9,0.7-1.8,2.1-2.6l-0.2-0.5l-1.2,0.2H134l-0.5-0.2
			c0,0.3-0.1,0.5-0.4,0.5h-0.5c-0.2,0-0.4-0.2-0.7-0.7c0-0.3,0.5-0.4,1.4-0.4c0,0.3,0.4,0.4,1.2,0.4c0-0.3,0.3-0.4,0.9-0.4v-0.7
			c-0.8,0-1.2-0.2-1.2-0.7c0-1.3,0.5-2.6,1.6-4H134.9z M133.5,131.3c0,0.9-0.5,1.5-1.6,1.9h-0.2c-0.2-0.3-0.2-0.6-0.2-0.7
			c-0.2,0-0.6,0.4-1.2,1.2h1.4v0.7h0.9c0.4-0.5,1.2-1.1,2.6-1.9V132L133.5,131.3z M131.4,112.4v0.2h0.5v-0.2H131.4z M132.1,117.1
			c0.7,0.3,1.1,0.6,1.2,0.9v0.2c0,0.3-0.2,0.5-0.5,0.5c-0.1,0-0.6-0.5-1.4-1.4C131.7,117.1,132,117.1,132.1,117.1z M132.8,135l0.2,1
			c0,0.1-0.3,0.6-1,1.4v0.2c0.1,0.3,0.2,0.4,0.5,0.4c0-0.3,0.5-0.7,1.6-1.2c0.3-0.5,0.5-1,0.5-1.4v-0.2c0-0.2-0.3-0.5-1-0.9h-0.4
			C133,134.3,132.8,134.5,132.8,135z M133.1,108.4l1.2,0.9c0-0.2,0.1-0.2,0.2-0.2c-0.3-0.5-0.5-0.9-0.5-1.2h-0.5
			C133.2,108,133.1,108.2,133.1,108.4z M133.1,141.1v0.2h0.4v-0.2H133.1z M133.3,123.8h0.2v0.5h-0.2V123.8z M133.3,139.2
			c0,0.2,0.7,0.7,2.1,1.4l0.2-0.4v-0.5l-0.5-0.7C134.6,139.1,133.9,139.2,133.3,139.2z M134.2,110.8c-0.3,1-0.5,1.6-0.5,1.9l0.5,0.2
			l1.2-0.2v-0.2c-0.5,0-0.8-0.5-0.9-1.6H134.2z M134,137.4v0.7c0.1,0.3,0.2,0.5,0.5,0.5c0.3,0,0.4-0.2,0.4-0.5L134,137.4z
			 M135.1,118.9l-0.9,1.2c0.3,0,0.5,0.2,0.5,0.7h0.7c0-0.6,0.3-0.9,1-0.9C136.3,119.7,135.9,119.3,135.1,118.9z M134.7,91v0.4h0.4
			V91H134.7z M134.9,91.6v0.5h0.2v-0.5H134.9z M134.9,130.4v0.4h1.9v-0.2c0-0.2-0.2-0.4-0.7-0.7h-0.7
			C135.1,129.9,134.9,130.1,134.9,130.4z M134.9,135.2l0.7,0.5h0.5v-1.2h-0.2C135.2,134.8,134.9,135,134.9,135.2z M134.9,141.8v0.4
			h0.2v-0.4H134.9z M135.1,99.1v0.5h0.2v-0.5H135.1z M135.4,117.5v0.7h0.5v-0.7H135.4z M135.6,133.6v0.7h0.2v-0.7H135.6z
			 M135.9,125.9v0.4c0.5,0,0.7,0.2,0.7,0.7h0.2c0.3,0,0.5-0.2,0.5-0.5v-0.2c0-0.3-0.2-0.4-0.5-0.4H135.9z M135.9,127.5v0.7h0.9v-0.9
			C136.5,127.5,136.2,127.5,135.9,127.5z M135.9,136.2v0.9h0.2v-0.9H135.9z M136.1,105.4v0.4h0.2v-0.4H136.1z M136.1,118.7v0.4h0.2
			c0.3,0,0.4-0.1,0.4-0.4H136.1z M136.3,90.7v0.5h0.2v-0.5H136.3z M136.3,133.2v0.2c0,0.3,0.2,0.5,0.4,0.5l0.2-0.5l-0.5-0.2H136.3z
			 M136.3,138.3v0.7c0.3,0,0.4-0.2,0.4-0.5v-0.2H136.3z M136.8,94.2c0,0.5-0.1,0.9-0.2,1.2l0.5,0.2c0.3,0,0.5-0.1,0.5-0.4v-1H136.8z
			 M136.8,113.8c0.1,0.3,0.2,0.5,0.5,0.5v-0.5H136.8z M137,128.5v0.2h0.5v-0.2H137z"/>
		<path class="st1" d="M151.1,84.6c1.9,0.2,2.9,0.3,3,0.5c0.8-0.2,1.5-0.2,2.1-0.2h1c0.9,0,1.4,0.1,1.6,0.2c0.9-0.2,1.6-0.2,2.1-0.2
			h3.7c0.9,0,2-0.1,3.3-0.2c1.7,0.6,2.6,1.2,2.6,1.6v6.5c-0.2,1.6-1,2.4-2.3,2.4H159c-0.3,0.1-0.4,0.2-0.4,0.4v14.9
			c0,0.2,0.8,0.6,2.3,1.2l3-0.4c2.5,0,3.7,0.9,3.7,2.8v4.7c0,2.2-1.1,3.2-3.2,3.2h-5.8V145c0,0.4,0.1,0.7,0.2,1
			c-0.5,1.7-1.3,2.6-2.6,2.6h-5.8c-1.4,0-2.1-1.3-2.1-4c-0.2-0.1-0.2-0.8-0.2-2.1c0-1,0.1-3,0.2-6.1c0-0.7-0.1-1.7-0.2-2.8
			c0.2-2.3,0.2-4.7,0.2-7.2v-1.2c0-2-0.1-3.6-0.2-4.7c0.2-1.1,0.2-2.6,0.2-4.7v-1.6c0-1.6-0.1-3.5-0.2-5.8c0.2-0.6,0.2-1.2,0.2-1.9
			l-0.2-0.5l0.5-2.3c-0.2-1.3-0.3-3.9-0.5-7.7c0.2-1.1,0.2-2,0.2-2.8c0-0.3-0.2-0.8-0.5-1.6c0.2-1.1,0.2-1.9,0.2-2.6v-1.4
			C148.5,85.7,149.5,84.6,151.1,84.6z M152.5,138.8c0.2,0.3,0.2,0.6,0.2,0.9h0.7c0-0.2,0.1-0.4,0.2-0.7l-0.5-0.2H152.5z M152.7,125
			v1h0.4v-1H152.7z M153.2,106.3v0.7h0.2v-0.7H153.2z M153.2,113.1v0.7l1.2,0.2v-1.4h-0.2C153.7,112.9,153.4,113.1,153.2,113.1z
			 M153.4,91v0.4h0.2l1.2-0.2V91H153.4z M153.6,109.1v0.7c0.3,0,0.5,0.1,0.5,0.2c0.3-0.1,0.5-0.2,0.7-0.2
			C154.8,109.5,154.4,109.2,153.6,109.1z M153.9,141.1c0,0.3-0.1,0.7-0.2,0.9l0.5,0.2c0-0.2,0.1-0.5,0.4-0.9v-0.2H153.9z
			 M154.1,105.6l-0.2,0.4c0,0.4,0.5,0.6,1.6,0.7v-0.7C155.2,106.1,154.8,105.9,154.1,105.6z M155,118.5c-0.6,1.4-0.9,2.3-0.9,2.8
			l0.4,0.2h1v-0.2l-0.2-1.6c0.3,0,0.5-0.4,0.7-1.2H155z M154.3,134.3v0.2h0.5v-0.2H154.3z M154.8,139.2l-0.2,1h0.7v-0.2
			c-0.2-0.3-0.2-0.5-0.2-0.7H154.8z M154.8,92.3V93c0.1,0.3,0.2,0.5,0.5,0.5h0.2v-0.7c0-0.3-0.2-0.4-0.5-0.4H154.8z M155,128.7
			l-0.2,0.4v0.7h0.5c0-0.5,0.2-0.7,0.7-0.7v-0.2L155,128.7z M155.3,110.8c0,0.2,0.3,0.5,0.9,0.9h0.2v-0.4c0-0.3-0.2-0.5-0.5-0.5
			H155.3z M155.3,115.2v0.2c0.4,1.3,0.7,1.9,0.9,1.9c0.6-0.2,1-0.5,1-0.7v-0.2c-0.6-1.3-1-1.9-1.2-1.9
			C155.7,114.5,155.5,114.7,155.3,115.2z M156,88.6v0.2h0.5v-0.2H156z M156,91.2v0.4c0,0.3,0.5,0.5,1.6,0.7l0.2-0.5
			c-0.3,0-0.8-0.2-1.4-0.7H156z M156.7,93l0.2,1.2h0.4c0-0.6,0.3-0.9,1-0.9v-0.5L156.7,93z M157.1,118.5v0.4h0.2v-0.4H157.1z
			 M157.6,90.2h0.2c0.3,0,0.5-0.2,0.5-0.5h-0.2C157.7,89.8,157.6,90,157.6,90.2z M157.8,116.8v0.7c0.4-0.3,0.7-0.4,0.9-0.4v-0.2
			H157.8z M158.1,119.6v0.9h0.2v-0.9H158.1z M159.5,92.8c0.1,0.3,0.2,0.5,0.5,0.5c0.3,0,0.4-0.2,0.4-0.5H159.5z M161.6,117.1v0.4
			h0.4v-0.4H161.6z M162.5,90.5V91h0.5v-0.5H162.5z"/>
		<path class="st1" d="M189.7,84.9c6.8,0,11.3,3.5,13.5,10.5c0.3,1.7,0.5,3.6,0.5,5.8v30.3c0,7.7-2.7,13-8.2,15.6
			c-2.3,0.9-4.5,1.4-6.5,1.4c-3.4,0-6.7-1.4-9.8-4.2c-2.6-3.4-4-6.5-4-9.3c0.2-4,0.2-6.3,0.2-7c0-0.5-0.1-1.8-0.2-4
			c0-0.1,0.1-0.6,0.2-1.4c-0.2-1.4-0.2-2.2-0.2-2.6c0.2-3.8,0.2-6.2,0.2-7.2l-0.2-0.5c0.2-0.3,0.2-0.6,0.2-0.9v-1
			c0-1.4-0.1-2.3-0.2-2.8c0.2-1.4,0.2-2.5,0.2-3.5v-6.3c0-2.5,1.2-5.4,3.7-8.9c3.5-2.8,6.6-4.2,9.3-4.2H189.7z M178.8,124.3v0.9
			c0.4-0.3,0.7-0.5,0.9-0.5c0-0.3-0.2-0.4-0.5-0.4H178.8z M179,121.5v0.2h0.5v-0.2H179z M179.5,97.2v0.2c0.1,0.3,0.2,0.5,0.5,0.5
			h0.4v-0.5L179.5,97.2z M180,104.4v0.2c0.1,0.3,0.2,0.5,0.4,0.5h0.2c0.3,0,0.5-0.2,0.5-0.5l-0.5-0.2H180z M180,110.5v0.2h0.4v-0.2
			H180z M180,131.5h0.7V131h-0.2C180.1,131.1,180,131.3,180,131.5z M180,131.8v0.4h0.2v-0.4H180z M180.2,127.8v0.2
			c0.1,1.1,0.3,1.6,0.4,1.6c0.3-0.2,0.6-0.2,0.7-0.2v-0.2c-0.6-0.6-1-1-1-1.4H180.2z M180.4,108.2v0.2h0.5v-0.2H180.4z M180.9,114.3
			v0.2c0.3,0,0.5-0.1,0.5-0.4v-0.2C181,113.8,180.9,114,180.9,114.3z M181.4,99.6v0.2h0.2c0.2,0,0.4-0.2,0.7-0.7h-0.4
			C181.5,99.2,181.4,99.3,181.4,99.6z M181.4,100.5v0.5h0.2v-0.5H181.4z M181.4,117.7v0.5h0.2v-0.5H181.4z M181.4,123.3v0.2h0.9
			v-0.4H182C181.7,123.3,181.5,123.3,181.4,123.3z M181.6,124.7l-0.2,0.5c0.3,0.5,0.5,0.9,0.5,1.2h0.2v-1.2
			C182,124.9,181.9,124.7,181.6,124.7z M181.4,126.9v0.5h0.2v-0.5H181.4z M181.6,94.2c0.1,0.3,0.2,0.5,0.4,0.5h0.5v-0.5H181.6z
			 M182.3,137.8c-0.5,0.6-0.7,1.1-0.7,1.4h0.2c0.8-0.1,1.2-0.3,1.2-0.7C183,138.3,182.7,138.1,182.3,137.8z M181.8,135v1.2h0.7V136
			c-0.3-0.4-0.5-0.7-0.5-1H181.8z M182,102.6v0.7h0.2v-0.7H182z M182.5,109.1v0.5h0.2v-0.5H182.5z M182.5,140.6v0.2h0.7v-0.2H182.5z
			 M183.4,94.4v0.2h0.5v-0.2H183.4z M184.4,90.7V91h0.4v-0.2H184.4z M184.4,140.2v0.9l0.9,0.2l0.2-0.5
			C185.5,140.5,185.2,140.3,184.4,140.2z M185.8,99.6v34.3c0.7,3,1.9,4.4,3.7,4.4h0.2c1,0,2.1-0.9,3.3-2.8c0.2-4.3,0.2-7.9,0.2-10.7
			c0-0.7-0.1-1.5-0.2-2.3c0.2-0.8,0.2-1.7,0.2-2.8v-0.2c0-1.3-0.1-2.7-0.2-4.4c0.3-0.8,0.5-1.3,0.5-1.6c-0.3-1.1-0.5-2-0.5-2.8
			c0-1.4,0.1-4,0.2-7.7c0-0.1-0.1-0.6-0.2-1.4c0.2-0.8,0.2-1.7,0.2-2.8v-0.2c0-1.5-1.3-2.6-4-3.3C186.9,95.1,185.8,96.6,185.8,99.6z
			 M186,143.4v0.4h0.2v-0.4H186z M187.2,140.2v0.2c0,0.2,0.2,0.4,0.7,0.7v-0.9H187.2z M188.1,90v0.5c0.2,0,0.4,0.1,0.7,0.2v-0.5
			C188.7,90.2,188.4,90.2,188.1,90z M188.3,142.2l-0.2,1.2h0.7c0-0.3,0.1-0.6,0.4-1l-0.4-0.2H188.3z M190.9,91v0.4h0.2V91H190.9z
			 M190.9,91.6v0.5h0.5v-0.5H190.9z M191.4,142.5v0.2h0.7v-0.2H191.4z M192.3,89.8V90c0.1,0.3,0.2,0.5,0.5,0.5h0.7v-0.2
			c0-0.3-0.2-0.5-0.5-0.5H192.3z M193.3,141.8l0.9,0.7h0.5V142h0.2c0.1,0,0.2,0.1,0.2,0.2c0.3-0.2,0.6-0.2,1-0.2v-0.4
			c-0.2,0-0.6-0.2-1-0.5C193.9,141.2,193.3,141.5,193.3,141.8z M193.7,139.7v0.5h0.2v-0.5H193.7z M194.6,139h0.7v-0.7
			C195.1,138.3,194.9,138.5,194.6,139z M195.8,139.4v0.5c0.3,0,0.5-0.2,0.5-0.5H195.8z M196.7,135v0.2h0.5V135H196.7z M197,130.4
			c0.1,0.3,0.2,0.4,0.5,0.4v-0.9C197.1,129.9,197,130.1,197,130.4z M197.4,100.7v0.7h0.2v-0.7H197.4z M197.4,125.5v0.2h0.5v-0.2
			H197.4z M197.9,109.6v0.2h0.4v-0.2H197.9z M198.6,94.9c0,0.2-0.1,0.4-0.2,0.7c0.2,0.6,0.5,1,0.7,1v-1.2
			C199.1,95.1,198.9,94.9,198.6,94.9z M198.4,118.5v0.4h0.5v-0.4H198.4z M198.6,130.1v0.4h0.2v-0.4H198.6z M198.8,116.1v0.2
			c0.2,0.3,0.2,0.5,0.2,0.7h0.2v-1H198.8z M199.1,130.6v1c0.3,0,0.4-0.2,0.4-0.5C199.5,130.7,199.4,130.6,199.1,130.6z M199.1,133.2
			v0.4l1.2-0.2v-0.4C200,133.1,199.6,133.2,199.1,133.2z M199.3,114.3v0.7h0.4v-0.2C199.8,114.4,199.6,114.3,199.3,114.3z
			 M199.3,118.2v0.7h0.4v-0.2C199.8,118.4,199.6,118.2,199.3,118.2z M199.5,103.3v0.2h0.5v-0.2H199.5z M199.5,125
			c0.3,0,0.5,0.2,0.5,0.7h0.2c0.3,0,0.5-0.2,0.5-0.5V125c0-0.3-0.2-0.4-0.5-0.4H200C199.7,124.6,199.5,124.7,199.5,125z
			 M200.2,113.8v0.5h0.2v-0.5H200.2z M200.2,134.6c0.1,0.3,0.2,0.4,0.5,0.4v-0.4H200.2z"/>
	</g>
</g>
</svg>
