<?xml version="1.0" encoding="utf-8"?>
<!-- Generator: Adobe Illustrator 23.0.0, SVG Export Plug-In . SVG Version: 6.00 Build 0)  -->
<svg version="1.1" id="Capa_1" xmlns="http://www.w3.org/2000/svg" xmlns:xlink="http://www.w3.org/1999/xlink" x="0px" y="0px"
	 viewBox="0 0 250 30" style="enable-background:new 0 0 250 30;" xml:space="preserve">
<style type="text/css">
	.st0{fill-rule:evenodd;clip-rule:evenodd;fill:#343C4A;}
</style>
<g>
	<path class="st0" d="M191.2,12.1c0.2,0.1,0.3,0.3,0.5,0.4c-0.4,0.6-1-0.3-1.3,0.3C190,12.3,191,12.3,191.2,12.1"/>
	<path class="st0" d="M79,21c-1.1,0.5-2.4-0.1-3.5,0.3C76,20.5,77.9,20.9,79,21"/>
	<path class="st0" d="M236.7,18.6c-0.2,0,0.1,0.5,0.2,0.4c-1.9,0.4-5.4-1.3-7.6-0.7c3.5-0.3,6.9-0.6,10.5,0.4
		c-0.9,0.3-1.9-0.1-2.7,0.4C237,19,236.9,18.8,236.7,18.6"/>
	<path class="st0" d="M238.6,19.3c-0.4,1-3.7,0.1-5.2,0.1C234.5,18.6,237.1,19.9,238.6,19.3"/>
	<path class="st0" d="M227.3,18.5c0.5,0.4,0.9-0.3,1.4,0.3c0.3-0.6-0.5-0.1-0.7-0.5c0.6-0.3,1,0.3,1,0.8c-1.4,0.2-2.9,0.1-4.3,0
		c-0.3-0.5,1.6,0.2,0.8-0.7c0.5-0.4,0.1,0.5,0.4,0.6c0.2-0.4,0.6,0.1,1.2-0.2c0.2-0.6-0.1-0.4-0.6-0.7c0,0.4-0.1,0.5-0.4,0.2
		c0.3-0.7,0.7,0,1-0.3C227.3,18.1,227.4,18.3,227.3,18.5"/>
	<path class="st0" d="M223.5,16.4c-0.8,0.6-3.1-0.3-4.4,0.1c0.5,1.1,8.1,1,4.6,1.9c0.1,0.4,0.2,0.4,0.5,0.1c0.5,0.7-1.4,0.5-0.6-0.2
		c-1.1,1-3-0.8-3.7,1c-0.8,0-3.8-1.2-3.9-0.3c-0.5-0.3-1.2-0.2-2.1-0.5c-6.1,0.9-12.5,0.1-18.8,0c-2,0.8-4.6,0.2-7.4,0.1
		c-0.1,0.2,0.2,0.4,0.4,0.6c-0.7,0.2-2.4,0.7-2.4-0.5c-4.7,0.1-11.1-0.2-14.7,0.4c-0.4,0.2-0.3-0.2-0.5-0.4c-0.3-0.2-0.6,0-0.9,0.4
		c-35.2,0.3-70.7,0-106,0.1c-4.6,0-9.1,0.2-13.7,0.1c-4.9-0.1-9.9,0.1-14.8,0.6c-8.1,0.1-16.3-0.3-24.3,0.9
		c-0.4-0.5,0.5-0.1,0.6-0.4c0.2-0.8-0.7,0-1-0.5c1.6-1,3.3-0.5,4.9-1.1c-1.1-0.7-3.4-0.5-5-0.9c0.3-0.6,0.9,0,0.8-0.7
		c-0.2,0-0.4-0.1-0.6,0.1c1.4-0.7,4.2-1.1,6.1-1.9c0.4,0.4,0.7,0.1,1.1,0.3c12.8-1.9,26-1.4,38.9-2.3c-9-0.2-17.5,0.1-26.3-0.3
		c0.3-1.1,3.5-0.6,5.6-0.9c-1.9-0.6-3.6,0.2-5.4-0.1c7.5-1.1,16.5-0.8,24.6-1.3c0.2,0.5-0.9,0.1-1.1,0.8c0.9-0.4,2.4,0.6,2.7-0.7
		c0.8,1.6,2.3-1.1,3.3,0.6c0.1-0.5,2.5-0.9,3.7-1c1.6-0.1,3.4,0.2,4.7,0.3c-0.4,0.3-0.9,0-1.3,0.3c1.8,0.4,3.6-0.9,5-0.2
		c0.1-0.3,0-0.5-0.3-0.7c0.3,0,1.1,0.9,1.1,0c0.4-0.4,0.3,0.5,0.6,0.7c3-0.3,5.9-0.9,9.1,0.2c0.5,0.1,0.9,0,1.3-0.6
		c15.9-0.4,31.9,0.4,47.8-0.4c1.5,1.2,3.5-0.2,5.1,0.1c0.3,0.1,0.6,0.5,1,0.5c0.9,0,1.6-0.4,2.5-0.5c1.6-0.1,3.1,0.5,4.7,0.6
		c4.1,0.4,8.4-0.7,12.4-0.3c0.2,0.2,0.5,0.4,0.7,0.5c3.3-0.2,6.1,0,9.1-0.1c0.2,0.2-0.1,0.4-0.2,0.6c2.1-0.6,4.3,0.3,6.4-0.2
		c0.2,0.2-0.1,0.4,0.1,0.6c0.7,0.3,0.4-0.5,1.1-0.8c1,1.4,2.2,1,3.6,0.3c0.1,0.2,0.1,0.4,0.4,0.6c0.3-0.3,1.5-0.1,1.3-0.3
		c1.2,0.9,6-1,8.3,0.9c-0.6,0.5-0.6-0.7-1.1,0c0.3,0.6,2.7,0.9,2.8-0.1c0.4,0.4,1.3,1,2.6,0.9c0.3-0.4,0.3-0.7-0.1-0.9
		c0.6-0.3,1.3-0.3,1.9-0.4c0.3,0.5-0.7,0.6-1,0.9c0.6,0.5,2.5,0.5,3.5,0c1.4,1.2,3.8,0.5,5.6,0.8c0.4,0.4,0,0.8-0.4,0.8
		C209,14.9,216.3,15.9,223.5,16.4 M185.4,12.5c0.2,0.2,0,0.3-0.3,0.3c0.4,0.5,1.8,0,1-0.6C186,12.7,185.7,12.4,185.4,12.5 M46.3,12
		c0.5-0.1,1,0.7,1.4,0C47.2,11.3,45.7,12.2,46.3,12 M37.6,12.4c2.3,0.1,4.5,0.1,6.7-0.3C42.1,11.4,39.2,12,37.6,12.4"/>
	<path class="st0" d="M199.5,12.2c0.6,0.3,0.4,0.1,0.9,0.7c-0.1,0.2-0.3,0.3-0.4,0.5c-0.1-0.8-1-1.1-1.2-0.6
		c-0.4,0.6-0.2-0.8-0.6-0.2C198,11.8,199.3,12.9,199.5,12.2"/>
	<path class="st0" d="M75.2,21c-0.7,0.3-1.6-0.1-2.3,0.2C73,20.7,74.5,20.9,75.2,21"/>
	<path class="st0" d="M70.7,20.9c-0.4,0.7-2.3,0.1-3.3,0.4C67.8,20.7,69.7,21.1,70.7,20.9"/>
	<path class="st0" d="M62.6,21.2c-0.1,1-1.8,0-2.5,0.5C60.2,21.1,61.9,21.4,62.6,21.2"/>
	<path class="st0" d="M59.2,21.3c-0.1,0.4-1.6,0.6-2.3,0.2C57.7,21.2,58.5,21.6,59.2,21.3"/>
	<path class="st0" d="M54,21.4c0.1,0.6-1.2,0.6-1.8,0.2C52.8,21.2,53.4,21.7,54,21.4"/>
	<path class="st0" d="M49.6,21.5c-1.2,0.9-4-0.1-5.8,0.5C45,21.2,47.8,21.8,49.6,21.5"/>
	<path class="st0" d="M27.2,22.3c4.8-0.2,9.7-0.6,14.5-0.6C38.3,22.3,32,22.4,27.2,22.3"/>
	<path class="st0" d="M26.5,22.3c0,0.5-1.5,0.4-2.1,0.3C25,22.2,25.8,22.5,26.5,22.3"/>
</g>
</svg>
