<?xml version="1.0" encoding="utf-8"?>
<!-- Generator: Adobe Illustrator 23.0.0, SVG Export Plug-In . SVG Version: 6.00 Build 0)  -->
<svg version="1.1" id="Capa_1" xmlns="http://www.w3.org/2000/svg" xmlns:xlink="http://www.w3.org/1999/xlink" x="0px" y="0px"
	 viewBox="0 0 500 130" style="enable-background:new 0 0 500 130;" xml:space="preserve">
<style type="text/css">
	.st0{fill-rule:evenodd;clip-rule:evenodd;fill:#20252D;}
	.st1{fill:#FFFFFF;}
	.st2{font-family:'Cardo-Bold';}
	.st3{font-size:20.9824px;}
</style>
<path class="st0" d="M2,29.8c2.1-1.2,3.1,0.7,5.2-0.2C7.7,32.2,3.1,31.2,2,29.8"/>
<path class="st0" d="M88.7,23.2c0.8-1.3,2.4-1.3,4.6-3c1.1,0.4,0.7,0.8,0.9,1.8c2.1-0.5-0.3-2.5,2.5-2.7c-0.2,0.7-0.1,3.7,1.8,2.1
	c0.8-0.7-0.6-0.7-0.9-1.8c1.3,0.3,3-0.8,3.6,1.3c-2.6,3.1-7.3,0.8-11.3,3.2C89.6,23.4,89.2,23.1,88.7,23.2"/>
<path class="st0" d="M99.9,24.6c-0.8,0.7,0.6,0.7,0.9,1.8c-1.3,0.8-2.2,0.4-2.7-0.9c0.2-0.7,2.3-3,2.7-0.6
	C100.3,25.3,100.1,24.9,99.9,24.6"/>
<path class="st0" d="M130,24.3c0.4-1.1,4.9-1.5,6.1,0.1c1.3-0.3-0.5-3.2-1.5-1.5c0.4-1.7,3.9-4.4,5.2-1.8c-0.1-2.5,2.2-1.2,4.3-2.1
	c-0.5,2.2-4.1,3.9-6.1,3c-1.3,0.7-0.6,2.2,0.3,3.7c-0.8,0.2-1,0.7-0.9,1.2c-2.3-2.5-2.3-2.5-5.8-1C131.8,24.7,131.4,24.1,130,24.3"
	/>
<path class="st0" d="M138.8,25.4c0.5-1.5,4.9-1.5,6.1,0.1C142.5,26.5,140.7,25.8,138.8,25.4"/>
<path class="st0" d="M234.7,14.3c-0.7,1.3-0.6,2.8-2.8,3.6c0.3,0.6,1,0.1,1.5,0c-0.6,1.2-0.6,2.5-2.2,3.3c-0.3-2.3,0.5-3.5-2.4-3.4
	C230.1,16.1,232.4,14.4,234.7,14.3"/>
<path class="st0" d="M237.6,28c-1.6-1.2-2.2-1.2-2.4-3.4c1-0.5,2-1,3.1-1.5c0.9,1.3,1.8,2.7,3.6,1.3c0.4,0.9,0.7,1.8,1.5,1.5
	C241.1,29.4,240.2,25.1,237.6,28"/>
<path class="st0" d="M244.3,21.7c1.4,0.8,3.9-1.4,4.9,0.7C247.2,23.2,245.3,23.7,244.3,21.7"/>
<path class="st0" d="M235.4,29.8c2.8,0.6,4.2-3.6,6.1,0.1C239,31.2,236.7,32.2,235.4,29.8"/>
<path class="st0" d="M245.7,30.9c3.7-3.3,1.3-3.8,4.6-7.5c0.2,1.5,0,3.5,3,1.6c2,0.1-2.7,2.1-3.1,3c1.4,0.4,2.8,0.8,4.2,1
	C254.3,32.1,248.5,29.9,245.7,30.9"/>
<path class="st0" d="M280.7,32.8c-1.7,0.4-3.4,1-4.2-1C278.5,30.3,279.7,31.1,280.7,32.8"/>
<path class="st0" d="M296.6,26.6c0.7-1.8,2.5-1.4,3.7-1.8C299.6,26.8,298.2,27.2,296.6,26.6"/>
<path class="st0" d="M282.5,35c5.2-1.7,2.6,3,5.7,4c-2.3,0.3-4.5,0.2-6.4-0.7c-0.3-1.9,2.4-0.4,3.4-0.9
	C284.9,34.7,282.9,37.1,282.5,35"/>
<path class="st0" d="M327.3,21.5c0,1-0.8,1.8-1.9,2.4c0.1-1.8-0.6-1.1-0.9-3.4c1.5-0.8,2.4,0,3.7-0.3
	C328.9,21.5,323.6,21.8,327.3,21.5"/>
<path class="st0" d="M309.6,28.6c1.8-1.2,2.8-0.3,4.3-0.6C313.9,29.6,309.8,31,309.6,28.6"/>
<path class="st0" d="M304,35.8c0.6-3.2,3.4-0.1,4.9-0.9C308.5,37.4,305.3,35.7,304,35.8"/>
<path class="st0" d="M346.8,16.6c-0.3-2.2,2.2-0.7,2.7-0.6c1.4,1.7-0.2,2.3,1.2,4c-2.4,1.4-0.3-0.9-1.8-2.1c-1.2,0.6,0,2-1.9,2.4
	C345.7,18.3,350.6,16.4,346.8,16.6"/>
<path class="st0" d="M314.7,34.4c-0.6,0.5,0,0.8,0.3,0.6c-0.5,2.7-2.9-1.3-4.9,0.9c0.3-1.7,4.9-3.4,5.5-1.1
	C315.1,35.1,314.9,34.8,314.7,34.4"/>
<path class="st0" d="M356.6,14.9c1.2-0.3,2.5,0,3.1-1.5c1.6-0.6,1.2,2,1.2,2.4C359.2,16.2,357.4,16.8,356.6,14.9"/>
<path class="st0" d="M363.5,22.9c2.8-0.8,5.3-0.5,7.9-0.8C370.5,24.8,365.6,24.9,363.5,22.9"/>
<path class="st0" d="M376.9,19.4c1.9-0.7,4.1-2.1,5.2-0.2c-1.5,0.2-3.7,0.3-2.8,2.1C378.2,21.6,377.4,20.8,376.9,19.4"/>
<path class="st0" d="M371.6,27.2c-2.1-0.3-4.6,0.5-6.7,0.2C364.5,25.3,370.2,25.7,371.6,27.2"/>
<path class="st0" d="M345.7,37.5c1.3-0.2,3.7,3.8,4.2,1c2.6,0.3-2.1,3.8-3.1,3C348.1,39.7,346.6,40.1,345.7,37.5"/>
<path class="st0" d="M372.5,27.5c0.6-3.1,3.5-0.4,5.2-1.8C377.3,28.5,374,26.9,372.5,27.5"/>
<path class="st0" d="M410.1,14.6c0.9-0.2,1.3,1.3,1.8,2.1c-2,0.3-1.2,1.6-2.8,2.1c-0.3-0.6-0.6-1.2-0.9-1.8
	C409.9,16.6,411.1,16.9,410.1,14.6"/>
<path class="st0" d="M374.2,38.8c0.5-1.4,5-1.9,5.8,1C377.7,37.9,376.8,40.4,374.2,38.8"/>
<path class="st0" d="M404.7,30c-1.5,0.8-2.9,1.5-4,1.2C399.9,29.3,403.9,28.2,404.7,30"/>
<path class="st0" d="M422.8,23.6c2.6-0.7,2.7-0.7,4.9-2.4c-0.9,2.5,1.4,1,2.1,2.8C428.6,25.4,424.1,26.1,422.8,23.6"/>
<path class="st0" d="M421.4,34.8c0.3,0.6-0.5,0.8-0.9,1.2c1.3,0.8,3.5-1.2,3.9,1.9c-2.2,0.3-4-0.9-5.5,1.1c0.1-0.7,0.2-1.4-0.6-1.2
	C418.7,36.6,419.9,35.6,421.4,34.8"/>
<path class="st0" d="M321.1,106.9c0.9-1.7,5.5-1.2,7,0.4C325.6,107.7,323.4,107.2,321.1,106.9"/>
<path class="st0" d="M501,86.8c-2.5,2.8-7.9,2.7-11.6,1.1C492.9,84,497.7,85.8,501,86.8"/>
<path class="st0" d="M13.7,38.5c0.4-0.4,0.3-0.9,0.9-1.2c-0.8-1.2-2.2-0.4-3.3-0.6c0.2-2.3,2.9,0.3,4.6-1.5c0.4-0.4,0.3-0.9,0.9-1.2
	c-2.7-5.4-7.5-4.8-11.2-7.4c2.4-1,22-4.3,26.8-3.9c0.2,0-0.4,1.3,0,1.5c5.2-3.4,12.2-1.5,18.3-2.8c-0.3,1.2,0,1.9,1.2,2.4
	c3.4-3.4,7.7-2.1,11.9-3.5c1.6,2.2,1.1,2.2,2.4,3.4c1.4-1.7,3-3.7,5.8-3.6c-0.5,2.8-1.7,3-1.3,6.7c1.3,0.6,3.2-0.4,4.6,0.1
	c0.4-0.7-0.1-1.7,1.2-2.1c-1.7-0.8-2.3-1.1-2.4-3.4c2-0.9,2.6,2.1,5.2-0.2c1.9,2.4,0,3.4-0.7,4.9c1,0.4,2.3,0.3,2.7,2.5
	c0.6-0.3,1.2-0.6,1.8-0.9c1.6-1.3-1.2-1-1.2-2.4c1.3-0.3,2.7-1.1,3.3,0.6c1.5-1.7-0.7-2.1-0.9-4.9c0.7-2.3,1.9,0.7,4-1.2
	c-3.3,1.1,0.3,4.5-1.6,6.1c2.5,1.4,4.1-1.8,8.2-1.7c0.3,1.3-2.8,1.4-0.6,3.3c1.2-0.9,1.3-2.3,2.2-3.3c0.7,0.6,0.7,2.2,1.2,4
	c5-1,4,0.7,7.9-0.8c2,2-1.1,2.3-0.4,3.9c2.9,0.9,1.5-2.5,3.7-3.3c0.4,2.8,3,0.4,2.1,2.8c-1.2,0.9-1.6-0.3-2.1-1.2
	c-0.3,0.6-0.7,1.1-1.5,1.5c1.2,1.5,3.2,0.6,4.9,0.7c-0.7-0.5,0.6-3.1-0.9-3.4c-0.8-1.1,2.4-2.2,2.1-0.3c1.4-1.4-1.8-1.5-1.8-3.7
	c4.2,2.8,5.4-3.8,10.1-5.7c0.7,0.9-0.1,1.3,0.3,2.1c1.8-3.3,2.6-1.2,5.8-2.1c-2.6,3.6-4.1,4.2-10.7,4.4c-0.1,2-0.6,3.9,0.8,6.4
	c1.4-1.6,1.8-3.4,1.9-5.5c2.1-0.5,3.8-0.2,5.8-0.5c0.2,0.8-2.6,3.4,0.3,2.1c-2,3.4,2.1,0.3,0,3c0.6,1.7,3.1-2.2,3.3,0.6
	c7.2-5.6,4.7,1,9.4-0.8c1.9,2.6-2-0.1-1.2,2.1c0.9,1.2,4-0.9,1.9-2.4c2.3-1.9,3.2,0.6,5.2-0.2c0,0.7,0,1.4-0.6,1.8
	c0.6,1.1,2.2-0.6,2.7,0.9c1.3-1.6,0.9-3.8,3.7-4.8c-0.9-1.9-2.7-0.9-4.6-0.1c0.1-1.5,1.3-2.1,1.6-4.5c-0.4-0.7-1.4,0-2.1,0.3
	c-0.5-1.2,1.8-1.4,0.9-2.7c4.5,0,7.3-0.8,10.6,0.1c-1.8,0.4-4.5,3.1-5.8,2.1c-1.1,0.6,0.6,2.3,0,3c1.7,0.2,1.6-1,3.3,0.6
	c-2,3.9-3.2,4-6.7,4.8c4.5,2.2,6.9-3.3,11.9-3.5c0.4-1.5-2-2.8,1.9-3.9c-1-1.1-2.1-1.9-3.9-0.4c-2.4-0.1,2.9-1.7,2.5-2.7
	c-0.4-0.7-1.4,0-2.1,0.3c0.7-4.4,6.4,0.7,7.9-0.8c-0.2,0.7-1.5,1.6-3.1,1.5c0.6,0.6,1.4,0.9,2.4,0.3c0.1,1.3-1.1,0.6-1.8,0.9
	c-1.2,1.7,2.9,0.3,3,3.1c1.3-1.5,1.9-2.6,4-2.7c-4.2,3.4-2.8,3.9-6.8,6.3c0.6,0.4,1.3,0.7,0.6,1.2c0.8,0.6,1.9,0.5,3,0
	c-0.2,1.1-1.1,2-0.6,3.3c1.8-2.6,2.8-4,4.9-5.4c-2.8,0.3-0.2-2-1.8-2.1c0-1,1.8-0.5,2.8-2.1c1.2-0.8-1.2-2.8,0.6-3.3
	c-0.3-1.3-3.8-0.6-3.4,0.9c-1.6-0.4-1.5-2.9,1.9-3.9c1.5,2.9,4,3.1,6.7,2.8c1.3-0.9,0.6-2.3-0.9-1.8c0.3-1.8,4.2-1.4,4.5,1.6
	c-1,0.5-2,1-3.1,1.5c2.5-1.1,5.4,2.1,5.1,4.3c3-0.3,1.9,2.3,5.2,1.3c0.1-1.5-2.5-0.2-2.7-4c0.8,0.2,1.7,0,2.7-0.6
	c0.5,2.1,0.1,1.4,1.5,3.1c0.9-0.5,2.5-0.8,2.1-1.8c2.1,1.3,1.9,6.9,3.9,6.4c-1.5,0.8-1.9,5.8-6.1,4.5c1.9,2.4,6-1.5,7.9,0.7
	c1.6-3.2-3.5-1.1-1.8-2.2c0.6-1.9,4-2.2,6.4-3.9c-1.3-0.6-2.9-0.5-4.6-0.1c0.1-0.7,0.3-2.9-1.5-1.5c0.6-2.6,6.1,3.9,6.1-1.4
	c1.5,1.8,2.1,4.2,5.4,3.4c0.3-3.1,1.7-5,6.4-5.4c-1.5,2.3,2.2,1.7-0.1,4.6c3.5-1.9,9.5-4.2,13.2-8.7c-1.3,2-0.2,2.9-0.1,4.6
	c-1.9-0.8-3.4,3.1-5.8,2.1c0.8,1.6,1.6,3.3,2.4,4.9c-4.9,2.3-8.5,1.1-12.8,1.7c1.4,1.8,3.7,1.2,6.1,0.1c0.3,2,1.6,1.2,2.1,2.8
	c0.2-3.6,2.5-0.7,4.6-1.5c1.8-0.4,0.6-1.8,0.9-2.7c2.4,0.2,4-2.8,4.9-0.9c1.4,2.4-0.9,0.3-2.1,1.8c-1.5,1.4,1.9,0.2,1.8,2.1
	c-1.1,0.6-1.7-0.1-2.7,0.6c1,1.5,2.2-0.1,3.9,1.9c0.9-1.6-1.2-1.3-0.9-3.4c3,0.3,5.3-1.7,8.8-0.5c0.5,1.3-2.6,1.5-2.5,2.7
	c0.7,0.4,1.6,0.4,2.4,0.3c-6.5,2.2-16.2,0.7-24,1.8c-1.4,1.4,2.2,0.3,2.1,2.8c-4.2-2.1-6.7-3.1-12.4-2.3c2.2,5.8,8.3,0.4,11.8,4.1
	c2.1-0.6,1.3-2.1,3.1-1.5c-0.4-0.9-0.7-1.8-1.5-1.5c0.4-2.1,3.2,0.3,1.8,2.1c26.2-0.7,51.4,1.5,77.5,0.9c1.4,1.1,0.7,1.7,2.7,2.5
	c3.8-2.7,5.7,0.3,8.8-0.5c-0.4-1.8-1.8-0.6-2.7-0.9c3.7-3.4,9.9-0.3,14-0.7c1.2-0.1,3.3-2.1,2.8-2.1c1.6,0,2.4,1.6,4.8,2.2
	c5,1.2,10.5-2.7,13.3,2.6c8.5-0.7,16.5,0.5,24.9,0c-0.6-0.3-1.1-0.7-1.5-1.5c2.5,1.2,5,2.2,7.9,2.2c3.5-5.2,14.1-3.3,19.5-0.4
	c0.5-2.4,2.7-2,4.6-4.5c0.8,1.9,3.3,2.2,3.9,0.4c-1.4-1-3.7,0.9-4.2-2.5c5.8,0.3,4.5,0.7,9.4-0.8c1,1.7-0.5,2.5,0.6,4.3
	c0.2-1.6,0.5-3.2,3.4-3.9c0.2,2.3,2.2-0.5,2.4,1.9c-2.1,1.7-2.6-1.4-4.9,0.9c0.8,1.1,2.8-1.3,3,1.6c6-1.8,15.5,3.9,23.4,0
	c0.6,1.6-2,1.2-2.4,1.2c2.9,1.9,6.7,1.2,10,1.9c-0.4,2.1-4.1,1.1-5.5,1.2c-1.1,1.1,2.1,1.5,3,1.6c-1.3,1.3-6.5,1.3-8.8,0.5
	c-1.4,2.2-1.8,1.7-3.7,3.3c0.2-3.3-5.9,1-7.3-2.5c-2,0.3-1.2,1.6-2.8,2.1c1.4,4.6,9.9,3.2,10.3,1c2.5-0.4,4.8-0.1,7,0.4
	c0.2,0.9-0.6,1.5-0.3,2.4c12.3-1.2,30.5,0.7,45.6,0.5c-0.2,0.7-0.1,2.1,0.9,1.8c-2.8-0.2-10.9-2.2-11.6,1.1c0.1,1.8-2.9,0.8-3.3-0.6
	c-4,3.9-7.6-1.2-12.5,3.8c0.6-1.6-1.3-1.3-1.8-3.7c-0.3,3.4-5.3,1.7-7.7,4.5c0.3-1.2-0.2-1.1-0.9-1.8c-2.3,3.1-2.8-2.4-8.8,2
	c-0.7-0.3-1.3-1.1-1.8-2.1c-2.9,3.1-2.9-0.9-5.8,2.1c13.8,1.4,28.1,1.1,42.2,1.4c1.1,3.5,4.8,1.3,4.5,4.6c2-0.3,1.2-1.6,2.8-2.1
	c1,2,3.4,3.4,5.2,1.3c-0.3-0.6-1-0.1-1.5,0c2.8-2.6,7.8,1.1,11.2,1.3c-13.4,3-29-0.6-43.8,1.6c6.9,2.7,17.8-1.6,25.5,2.7
	c-2.8,1.7-3.9-1.5-6.4-0.7c-0.4,0.7,0,1.7-1.2,2.1c-1.3-1.6-3.6-0.4-4.8-2.2c-1.4,3.3-5.3,2.5-6.1,3c-1.4,0.6,0-1.9-1.5-3.1
	c-1.8,2.8-6.9,2.1-11.3,3.2c0-2.6-2.5-3.6-5.1-2.8c0.7,5.5,8.2,3.4,10.9,3.8c3,0.6-0.5,3.2,0.9,4.9c-8.4-0.7-16.1-3.4-25.2-2.1
	c-0.5,2.4,6.3,4.3,7.6,1.6c4,3.4,14.7-0.5,20,3.9c2.5-3.1,4.9-0.1,6.4-2.4c2,1.1-0.1,2.3,3,0c0.9,1.8,3,0.2,3.6,2.8
	c1.6-0.5,0.8-1.8,2.8-2.1c9.5,2.6,16,2.5,25.2,2.1c-4.2,6.8-17.5,0.4-23.8,4c-1,0-1.8-0.8-2.4-1.9c-9,7-16.2-2.7-25.3,2.4
	c-0.2-0.7,1-1,0.6-1.8c-1-0.7-2.4,0.1-3.7,0.3c0.7,0.4,1.7-0.1,2.1,1.2c-3-0.1-2.6-2-5.7-2.5c-0.7,0.4,0,1.4,0.3,2.1
	c-5.7-4.3-13.1,4.4-19.8-0.2c-0.6,1.2-1.2,1.5-2.4,1.2c1.3,2.5,2.3,1.1,5.5,0.4c5.8,2.3,12.7,1.4,19.1,2.1c0.6,1.7,1.5,2.5,3,1.6
	c0.8-0.7-0.6-0.7-0.9-1.8c2.9-0.1,5.7,0.1,7.9,2.2c2-3,9.4,1.8,13.7,1.7c1-0.7,0.9-1.7,0-3c5.6,3.1,10.9,1.7,19.4,4.2
	c-11.6,0.1-16.5,0.7-26.5,1.5c-0.8,0.7,0.6,0.7,0.9,1.8c-2.5,0.3-2-1.2-3.3-2.2c-1.4,0.7-2.9,1.4-4.3,2.1c-0.9-3.7-4.5,0.3-6.1-1.6
	c0.2,3,6.1,1.8,8.8,2.5c-2,1.9-7-0.3-10.3,0.5c0.3-0.7-0.4-1.8,0.3-2.4c-6.1-1-12.7-0.5-19.1-0.5c4.8,1.3,10.3,0.7,15.2,1.7
	c-4.3,2-10,2-14.9,2c-11-0.2-22.6-1.2-32.8-2.2c-9.4,0.6-18.6,0.7-27-1.2c-5.7,2.2-10.2,1-15.2,1.3c-1.8,2.7-3.2,0.8-5.8,2.1
	c-0.3-0.9,1.7-1.1,1.2-2.1c-3.1,0.2-5.9-0.7-9.1-0.1c0.6,2.6,3.3-0.7,3.9,1.9c-6.7-1.2-12.9-3.9-20.6-2.1c-1.2,2.2,3.5-0.5,3.9,1.9
	c-3.3,1.1-5.5-0.7-8.5-0.4c-0.2-0.8,0.9-1.1,1.5-1.5c-6-1.1-12.4-1.4-19.5,0.4c1.3,0.6,2.9,0.5,4.6,0.1c-3.4,2.9-9.1,0-13.7,1.4
	c-0.1-1.3,1.1-0.6,1.8-0.9c-9.7-2.3-24-0.2-35.9-0.7c-0.6,0.3-0.1,1,0,1.5c-8.6-0.1-21.2,3.5-26.7-0.6c-1.5,3.1-4.7,2.1-7.9,2.3
	c-0.3-0.6,0.5-0.8,0.9-1.2c-1.7-0.9-4.1,0-6.1-0.1c-1.4,0.7,1,1.6,1.8,0.6c-0.8,2.7-4.4,1.1-6.1,1.4c-0.5-2,1.6-0.1,2.4-1.2
	c-1.3-1.8-2.7,0.2-4,1.2c-2.1-3.9-2.4-0.4-4.6-0.1c-7.4,1.2-17.5,2.5-26.2,2.1c-2-0.1-4-1.5-6.1-1.6c-7.9-0.2-16.1,1.8-24,1.8
	c-3.7,0-7.7-0.4-11.5-0.4c-4.5,0-9.8,0.5-12.8-1.4c-6.3,3-10.9,1-16.4,1.9c63.5,5,132-3.7,195.8-1.3c-30.6,3.2-63.3-0.5-96.1,4.3
	c-31.9,0-63.7-0.2-96.1,1.3c-26.1-2.1-54.9,3.7-80.9,1.5c0.7-2.5-2.6-2.4-3.9-3.4c0.2-1.1,1.7-1.8,1.6-3c-2.2-4-6.7-1.2-9.1-4.7
	c2.9-1.5-0.2-5.1,1.9-7c-2.5,0.9-3.2-3.5-5.1-4.3c-0.1-1.3,1.1-0.6,1.8-0.9c-0.6-2.1-2.5-0.5-3-3.1c2.1-0.6,0.8-2.4,2.2-3.3
	c-2.5-2.8-3.3-2.8-6-6.2c1.7-2.1,3.5-4.2,6.2-6c-1.2-1.3-2.8-1.6-4.2-2.5c-0.3-1.4,0.2-2.7,1.3-3.6c-0.8-1.5-2.8,0.3-3.6-1.3
	c-1.3-2.3,1.9-4.7,4-4.2c-1.2-1.2-3.1-4-1.1-5.5c-2.5-0.3-1.5-2.3-3.6-4.3c0.8-1.7,4.1-1.8,1.3-3.6C5.5,45.4,4.7,45,7,44.8
	c-1.4-1.9-3.7-1-5.5-1.9c-1.9-1.7,2.8-3.7,0.4-3.9c1.9-2.6,6.9-1.3,9.1,0.1c0.4-0.2,0.8-0.4,1.2-0.6C8.9,37.6,12.4,37.3,13.7,38.5
	 M443.1,79.4c-3.7,1.5-9.3-6.9-14-2.3c-0.4-0.8-0.4-1.5-0.3-2.1c-0.4,0.2-0.8,0.4-1.2,0.6c-0.4,0.4-1.2,0.6-0.9,1.2
	c1.5-0.5,2.3,1.2,3.6,1.3c-0.2-0.8,0.6-1.1,1.5-1.5C433.3,78.6,440.4,81.1,443.1,79.4 M22.3,31.3c-1.4-1.2-3.2-1.6-5.5-0.4
	C18,32.9,21.7,32.3,22.3,31.3 M26.6,30.7c0.5,2.5,2.8-0.3,4.3-0.6C30,28.2,26.8,30,26.6,30.7 M50.9,26.4c-1.9,1-2.8-0.6-4.9,0.9
	C47.4,29.8,50.4,28.5,50.9,26.4 M56.4,28.3c2.3-2.6,5,1.1,5.8-2.1C61,25,55.9,25.5,56.4,28.3 M87.3,34.5c1.8-3.6,0.8,0.3,3.7-0.3
	c-0.7-1.4-1.4-2.9-2.1-4.3c-1.1,1.8-2.5,0.3-2.8,2.1C88.2,31.5,86.2,33.6,87.3,34.5 M114.4,32.7c-1.3,0.3-2.2-0.6-3.7,0.3
	C111.6,36.2,113.9,34.4,114.4,32.7 M110.4,38.4c1.1-0.1,2,0.2,3,0c0-0.5,0.4-3.1-1.2-2.4C113.5,37.4,109.1,36.9,110.4,38.4
	 M126,31.6c0.7,1.9,4.5,2.4,4.9,0.7c-3.3,1.4-1.4-3.1-4.2-2.5C126.8,30.5,126.4,31,126,31.6 M104.2,45.9c4.6,0.2,9.4,0.1,13.4-2
	c-3.4-1.8-5,0.1-8.5-1.9C110.1,46.4,105.3,42.6,104.2,45.9 M138.4,33.9c0.8,0.2,2.7-0.6,4.9-0.9c0.2-1.6-0.4-6.1-2.1-2.8
	c0.7-0.2,1.3,0.2,1.8,0.6C142.2,33.5,137.6,30.3,138.4,33.9 M130.5,37.7c-0.3-0.7,0.6-0.9,0.9,0.3c3.6-3.1,9.7,3.6,11.6-1.1
	c-1.8,1.4-1.6-0.8-1.5-1.5c-2.1,0-3.8,0-5.2,1.8c-1.2-2-8.2-0.9-7-0.4C130.5,36.4,129.4,38,130.5,37.7 M157,28.6
	c-1.1-0.2-2.5,0.5-3.7,0.3C154.4,31.1,157,30.9,157,28.6 M173.5,23.6c1.3,3,4.5,1.9,4.2,5.5c2.1,0,4.6-0.9,5.5-1.1
	c-0.1,1.9-1.6,2.1-3.4,2.4c0.4,2.8,4.9,1.4,5.2-0.2c-0.9,0.1-1.7,0-2.4-0.3c1.4,0,1.2-2.8,2.4-1.2c-0.4,0.4-1.2,0.6-0.9,1.2
	c1.6-0.6,1.5-1.9,1.6-3c-2.5,2.7-2.2-2.3-3.9-1.9C179.2,26.6,176.6,22.4,173.5,23.6 M153.5,41.6c-1.2-1.9-8.2-1-7-0.4
	C148.9,41.1,151.1,41.8,153.5,41.6 M166,36.3c-1.1-3.6-9.3-0.9-8.8,0.5c4.4-2.3,3,3.1,7.3,1c0.1-1.9-3.6-0.1-1.8-2.1
	C163.8,35.9,164.7,36.7,166,36.3 M168.4,41.2c-0.1-0.5,0.2-1,0.9-1.2c-0.6,1.6,1.1,1.8,2.4,1.9c1.3-3.2-5-2.4-5.2-1.3
	C167.4,40.2,167.7,41.4,168.4,41.2 M187.6,35.7c-0.4,0.1-0.8,0.3-0.9-0.3c0.4-0.4,1.2-0.6,0.9-1.2c-0.8,0.5-3.3-1-2.7,0.6
	C185.9,34.7,186.5,38.5,187.6,35.7 M200.1,34.9c2-1.8,2.5,0.7,4.3-0.6c0.4-1.7-0.4-0.8-1.2-2.4c-1.3,1.5-4.2,0.6-3.7,1.8
	C200.3,33.4,200.2,34.2,200.1,34.9 M352.5,48.6c-4.3-0.5-11.8,2.3-13.1,2.6c10.2,1.8,21.6,0.4,32.2,1c-5-3.6-12.5-3.1-17.9-1.1
	C353.3,50.2,352.9,49.4,352.5,48.6 M286.7,88.8c12.4-0.2,26.6,2.6,38,0.5C312.8,88.9,295.8,87.6,286.7,88.8 M372.3,51.8
	c1.3-0.9,1.5,1.4,2.7,0.9c0.9-2.5,4.4,0,6.4-0.8c-2.1-2.7-5.6-1.6-8.5-1.9C373.3,50.8,372.1,51.1,372.3,51.8 M412.1,51.4
	c-0.8,0.3-1.5,0.5-1.8-0.6c-7.2,0.8-18.5-2.2-23.4,1.5C395.2,51.1,404.1,53.8,412.1,51.4 M341.8,79.4c-1.4,0.3-2.7-0.2-3.6-1.3
	c-1.4,2.9-5.9-0.1-7,2.7C334.7,79.6,339.7,81.8,341.8,79.4 M358.2,80.6c-0.4-0.8-0.8-1.6-1.2-2.4c-2.1,1.4-7.6-0.5-6.4,0.8
	C353.4,78.8,355,82.1,358.2,80.6 M362.1,90c-5.8-1.3-12.1-1.1-18.5-0.8C349.6,90.6,356.1,91.7,362.1,90 M375,79.2
	c-2,1.3-2.3-0.9-5.2,0.2C371.2,80.3,375.5,81.8,375,79.2 M368.5,90.7c-1.1-1.8-3.1-0.9-4.9-0.7C364.7,91.9,366.7,90.9,368.5,90.7
	 M377.6,92.3c2.4-2.4,9.2,0.2,11.6-2.6c-4-1.2-8.6-0.5-13.1-0.5C375.5,91,377,90.2,377.6,92.3 M437.7,71.5c-1.9-1.1-6.1-2.7-7.6-0.1
	C432.4,71.9,435.1,71.7,437.7,71.5"/>
<path class="st0" d="M129.5,18.6c1.8,1.3,5-1.8,6.1,1.6C134,18.1,130.9,20.9,129.5,18.6"/>
<path class="st0" d="M218.8,17.5c-2.1-0.8,2.5-0.8,3,0c-0.6,0.2-2.6,2.9,0.6,2.7c0.4,2-2.1,0.6-3.1,1.5
	C218,20.2,220.6,17.5,218.8,17.5"/>
<path class="st0" d="M230.9,25.2c-1.9-1.2,1.5,0.8,2.1,1.2c0.5,1.2-1.8,1.4-0.9,2.7c-1.1,0.3,0-1.3-1.2-0.9
	C230.7,27.2,232.5,26.8,230.9,25.2"/>
<path class="st0" d="M264.8,37.5c-0.7,0.4,0,1.4,0.3,2.1c-1.8-2.2-5.2,0.5-7.3-1c-0.2-1.6,3.3-2,3.7-0.3c1.2-2.3-2.4-2.8-3.9-1.9
	c-0.5-1.5,2.5-1.7,3.1-1.5c-1.4-2.4-3.9-1.5-6.4-0.7c-2.1-3.3,2-4.4,3.7-6.3c0.3,1.4,1.4,0.7,2.4,0.3c-0.2,2.4,0.4,2,0.6,4.3
	c0.9,0.4,1.9-1.1,1.5,1.5c1.2,1.4,3.5-0.2,4.9,0.7c0,2.1-2.9,0.8-4,1.2c-1.4,0.9,1.5,1.3,2.1,1.2C265.6,37.9,265,37.8,264.8,37.5"/>
<path class="st0" d="M280,17.3c0.7-1.7-1.1-3-2.1-4.3c1.7,0,4.6,0.8,3.9,3.4c0.4-0.2,0.8-0.4,1.2-0.6
	C283.4,17.9,281.1,15.8,280,17.3"/>
<path class="st0" d="M274.2,17.8c0.7-0.2,0.6,0.4,0.3,0.6c0.5,0.7,2.2-0.1,1.8-0.9c0.5,1.1,2.9,2.7,5.5,1.9
	c-1.2,2.7,1.3,3.3,3.9,3.4c2.9,0-3.2,0.6-0.3,0.9c-1.3,0.4,0,3-3.4,3.9c0.4,0.9,0.7,1.8,1.5,1.5c-0.6,2-4.1,0.2-6.1,1.5
	c2.2-2.3-2.7-1,0.9-2.7c-0.6-0.6-1.4-0.9-2.4-0.3c-0.3-0.8,0.9-1.1,1.5-1.5c-0.2-0.4-0.4-0.8-0.6-1.2c-1.6-0.3-3.5,0.2-4.2-2.5
	c1.3-0.3,2.2,0.6,3.7-0.3c0.6-1.7-0.1-1.4,2.1-1.8c-1.7-0.3-3.5-0.8-5.5-0.4C272.6,19,274.6,18.9,274.2,17.8"/>
<path class="st0" d="M243.3,33.6c0.8-0.2,0.6,0.5,0.3,0.6c1.7,1.1,3.6,1.4,5.8,1c0,1.3-4.1,2.1-4.6-0.1c-0.7,2-3.1,1.5-4.6,1.5
	c-0.7-1,2.9-2.8,2.7-0.6C243.3,35.3,243.3,34.5,243.3,33.6"/>
<path class="st0" d="M267.6,30.8c-1-0.5-2.2-0.4-3.3-0.6c0.1-0.6,0.2-1.3-0.3-2.1c1.3-0.3,2,1.2,3.7-0.3c1.3,2.4-0.9,4.8,2.7,4
	c-0.1,0.6-0.2,1.3,0.3,2.1c-1.3,0.3-2-1.2-3.7,0.3C268.2,32.3,265.6,31.9,267.6,30.8"/>
<path class="st0" d="M272.8,29.1c0.5,0.4,1.1,0.8,1.8,0.6c1.2,1-3.5,0.6-0.9,1.2c0.6,1.6-1.5-0.3-2.4,1.2c-0.3-0.6,0.5-0.8,0.9-1.2
	c-0.1-0.6-0.5-0.5-0.9-0.3c-0.4-1.1,0.4-1.9,1.9-2.4C273.5,28.6,273.2,28.9,272.8,29.1"/>
<path class="st0" d="M292.6,29.3c-1.2-2.3,0.4-0.5,1.5-1.5c-0.6-2.1-2.9-0.6-2.1-2.8c-0.8,0.4-1.6,0.8-2.4,1.2
	c-1.2-1.2,0.9-3.7-0.9-3.4c-0.4-1.5,3-2.1,3.7-1.8c-0.3,1.6,1.4,6.4,3,3.1c1.4,1.4-3.1,3.3,0.3,3.7
	C295.8,28.2,292.7,29.7,292.6,29.3"/>
<path class="st0" d="M285,30.7c0-3,2.1-2.6,4.6-3c0.4,0.9,0.7,1.8,1.5,1.5C289.1,30.6,289.3,28.2,285,30.7"/>
<path class="st0" d="M313.3,20.7c-0.5-2,4.1,0.5,3.4-0.9c2.6,0.6-0.5,2.1-0.3,2.4C314.8,23.4,314.7,20.3,313.3,20.7"/>
<path class="st0" d="M296.5,29.7c1-1.2,0.6,3.5,1.2,0.9c0.9-0.8,1.1,2.3,0.6,2.7c2,0.5,1.4,1.5,3.9,1.9c0.5,1.4-3.6,0.9-0.6,1.8
	c2,1-2.4,0.5-2.7-0.9c-0.6,0.5,0,0.8,0.3,0.6c0.1,1.6-2.5,3.5-3.4,0.9c3.4-0.2-2.8-2.6-4.5-1.6C293,33.9,294.1,31.5,296.5,29.7"/>
<path class="st0" d="M322.9,34.2c2.5-1,3.5,2.3,5.2-0.2c-0.3,1.2,0.1,1.8,1.5,1.5C328.9,36.5,324,37,322.9,34.2"/>
<path class="st0" d="M331.1,34c2.3,1.2,6.3,2.8,6.7,1.3c1.2,0.8,0,3.6,3.6,2.8c0.7,1.6-5.7,0.4-7.9,0.8
	C336.6,35.6,332,37.8,331.1,34"/>
<path class="st0" d="M377.3,13.9c-0.2,2.8-2.4,5.2-4.9,2.4C374.2,16.9,376.1,15,377.3,13.9"/>
<path class="st0" d="M391.7,29.6c-2.1-0.4,1-0.6,1.8-0.9c-1.1-1.2-2.7-0.9-4.2-1c0.2-1.1,1-2,1.6-3c-1-0.5-2.2-0.4-3.3-0.6
	c-1,0.7-0.9,1.7,0,3c-1.8,0.2-3.8,1.2-4.9-0.7c1-0.5,2-1,3.1-1.5c-1.4-1.4-3.9,0.4-4.5-3.1c2.6,0.6,3-0.3,4.9,0.7
	c-1.2-3.1-0.3-3.7-1.8-5.2c0.5-2.4,4.4-2,5.5-1.2c0.4,2-2.1,0.6-3.1,1.5c0.2,2.3,2.2-0.5,2.4,1.9c1.2-0.6,2.4-1.2,3.7-1.8
	c1,4,4.9,6.2,1.4,10.7c1.1,0.7,3-0.9,3.9,0.4c-0.9,0.6-0.2,1.5-2.5,2.7c3.7-0.5,5.9,3.5,10.3,1c2,1.7-1.9,1.4-0.9,2.7
	c0.7,1.3,2.7-1,4-1.2c0.4,1.8,1.3,2.1,2.7,0.9c-0.1,0.7-0.2,1.4,0.6,1.2c-2.4,1.8-3.9-1.5-8.8,0.5c-0.3-2.2-0.5-1.8-2.1-2.8
	c-1.2,0.6,0,2-1.9,2.4C397,35.2,395.4,30.4,391.7,29.6"/>
<path class="st0" d="M372.8,28.1c-0.1,0.8-1.1,1.3-0.3,2.4c-2.2,0.4-3.8-0.7-6.1-0.1c-0.5,0.6,0.2,4,0.9,3.4
	c1.4,2.7-3.6-3.3-3.9-0.3c-2-0.4,3.1-2.6,1.6-4.5C370.2,27,369.9,31.3,372.8,28.1"/>
<path class="st0" d="M354.2,36.4c0.3-1.6,5.2,0.3,7.9-0.8C360.5,38.8,356.7,35.5,354.2,36.4"/>
<path class="st0" d="M378.6,29.1c1.4-1,1.9,0.5,3.4-0.9c0.6,1.6,1.9,1.4,2.7,2.5c-0.5-2.6-0.6-1.4,2.8-2.1c0.3,2.3,0.9,2.2,0.9,4.9
	c-0.9,0.5-3.6-1.1-3.4,0.9c-3.3-1,0.9-3.1,2.1-1.8C385.3,28.5,380.3,33.5,378.6,29.1"/>
<path class="st0" d="M366.1,36c1.8-0.1,1.4-0.4,4-1.2c-0.5,2.6,3.9,0.6,5.8,1C374,37.4,368.5,37.3,366.1,36"/>
<path class="st0" d="M403,21.8c1.7,2.1,5-0.6,6.7,1.3c-1.1,1-2.8-0.8-1.5,1.5c-2.4,0.6-4.2-0.6-6.7,0.2c-1.1-1.9,1.5-2.5,1.9-3.9
	C399.7,18.5,405.6,19.8,403,21.8"/>
<path class="st0" d="M389.8,33.5c-0.2-0.8,0.4-0.6,0.6-0.3c2-0.3,1.2-1.6,2.8-2.1c0.7,0.3,1.3,1.1,1.8,2.1c-1.1-0.3-1.5,0.1-0.9,1.2
	C392.5,34.4,391.2,34,389.8,33.5"/>
<path class="st0" d="M386.1,36.8c-1.1-0.8,1.3,0.4,2.1,2.8c2-0.3,1.2-1.6,2.8-2.1c0.4,1.8,1.8,0.6,2.7,0.9c-0.1,0.7-0.2,1.5,0.6,1.2
	c-3.4,1.4-8.3,1.4-11.2-1.3C384,37.4,386.5,38.8,386.1,36.8"/>
<path class="st0" d="M411.5,26.8c0,1.9,0.3,3.8-2.2,4.8c0.2-0.7,0.1-2.1-0.9-1.8c-0.4-0.5,0-0.7,0.3-0.9
	C411.4,29.4,409.2,29.4,411.5,26.8"/>
<path class="st0" d="M431,23.4c0.8-0.2,0.6,0.4,0.3,0.6c1.3,1.6,1-1.2,2.4-1.2c2.2,0.1,2.8,3.7,0,3c-0.2-0.7,1-1,0.6-1.8
	c-1.5-0.8-1.8,1.6-4,1.2C430.2,24.4,431.3,24.2,431,23.4"/>
<path class="st0" d="M302.3,106.9c4.3-1.1,16-2,17.6,0.5C315.9,106.5,307.9,107.9,302.3,106.9"/>
<path class="st0" d="M330,106.4c2.3,0.4,13.7-0.4,19.1,0.5C344.4,107.9,335.4,108.4,330,106.4"/>
<path class="st0" d="M468.6,51.2c0.1-0.7,0.2-1.5-0.6-1.2c0.2-1.8,4.1-2.3,5.8-3.6c0.4,0.9-3.4,2.8-0.9,2.7
	C473.3,50.1,470,49.7,468.6,51.2"/>
<path class="st0" d="M350.3,107.8c1.3-2.3,5.6-0.5,7.9-0.8C357.2,108.4,352.8,107.1,350.3,107.8"/>
<path class="st0" d="M367.1,103.5c1.8-1.8,6.6,0.5,9.7-0.2C374.8,105.7,370.3,102.5,367.1,103.5"/>
<path class="st0" d="M456.6,62.3c0.2,1-0.9,0.1-1.8,0.9c0.1-0.7,0.2-1.3-0.3-2.1c1.2-0.5,2.2-0.6,3,0
	C460.7,61,453.7,61.9,456.6,62.3"/>
<path class="st0" d="M365.2,107.4C374.2,106.5,373.2,109.5,365.2,107.4"/>
<path class="st0" d="M479.6,98.7c-0.2-0.8-0.7-1-1.2-0.9c1-1.4,5.6-0.7,7.9-0.8C485.5,99.4,482.1,96.4,479.6,98.7"/>
<path class="st0" d="M487.5,97.9c0.7-2.4,4.1-0.1,5.8-0.5C494.8,98.4,489,97.8,487.5,97.9"/>
<path class="st0" d="M235.8,19.8c0.6-0.3,1.2-0.6,1.8-0.9c0.6,2,1.9,2.5,3.6,1.3c-0.2,0.8,0,1.7,0.6,2.7
	C240.1,21.2,237,23.2,235.8,19.8"/>
<text transform="matrix(1 0 0 1 313.0898 98.3125)" class="st1 st2 st3"> </text>
</svg>
