<?xml version="1.0" encoding="utf-8"?>
<!-- Generator: Adobe Illustrator 23.0.0, SVG Export Plug-In . SVG Version: 6.00 Build 0)  -->
<svg version="1.1" id="Capa_1" xmlns="http://www.w3.org/2000/svg" xmlns:xlink="http://www.w3.org/1999/xlink" x="0px" y="0px"
	 viewBox="0 0 300 104" style="enable-background:new 0 0 300 104;" xml:space="preserve">
<style type="text/css">
	.st0{fill-rule:evenodd;clip-rule:evenodd;fill:#ABA797;}
	.st1{fill:#FFFFFF;}
</style>
<g>
	<path class="st0" d="M214.5,76c0.4,0.3,1,0.4,1.5,0.6c1.4,2.2,3.3,4.3,4.1,7.1c0.2,0.6,0,1.2,0.2,1.7c0.8,2.4,3.4,3.4,4.2,5.6
		c-1-0.3-1.2-1.2-2-1.6c-0.3-0.1-0.6,0.1-1-0.1c-0.7-0.4-1.2-1.3-1.6-2.2c-1.2-0.4-2-0.5-2.9-1.2c-1-0.8-1.2-2.2-2-3.1
		c-0.9-1-2.3-1.3-3-2.6c-0.4-0.7-0.3-1.6-0.6-2.7c-0.3-1.1-1.1-2.5-1.9-3.7c-0.8-1.2-1.4-2.3-2.1-3.5c-0.5-0.8-1.1-1.3-1.5-2.1
		c-0.7-1.7-0.6-4.1-1.2-6.1c-0.2-0.6-0.7-1.2-0.9-1.7c-0.7-2.6-0.6-5.6-0.6-8.1c0-1.5,0.2-3,0.4-4.5c0.1-1.2,0.4-2.8,0.7-4
		c0.2-0.6,0.7-1.2,0.9-1.9c0.3-1.2,0.3-2.3,0.7-3.3c0.6-1.5,1.1-3.1,2-4.3c0.1-0.5-0.2-0.5-0.1-1c2.5-4.2,4.7-8.7,7.6-12.5
		c1-0.6,2.4-1.8,3.1-1.5c0.7-0.5,2.1-1.6,2.4-1.1c0.2,0.3-0.4,0.6-1,1c-0.6,0.4-1.4,0.9-1.5,1c-1.9,1.7-2.3,1.9-3.7,3.8
		c-1,1.3-2.3,2.7-3.1,4.2c-0.4,0.6-0.6,1.6-1,2.5c-1,1.8-1.4,2.9-2.2,5.1c-0.7,2-1.3,4-1.6,6.4c-0.2,1.9-0.8,3.7-0.6,5.6
		c0.1,0.5,0.5,1.5,0.5,2.1c0.1,2.9-1.4,5.1-0.9,8.2c0.1,0.4,0.4,0.8,0.5,1.2c0.3,1.9,0.1,4,1,5.8c0.3,0.6,0.9,1.1,1.4,1.7
		c0.5,0.6,0.8,1.3,1.2,1.9c0.6,0.8,1.3,1.3,1.7,2c0.5,0.7,0.6,1.6,1.1,2.5C213.3,74.1,214.2,74.8,214.5,76"/>
	<path class="st0" d="M224.1,15.8c0.3-1.1,1.9-2.2,3-1.1C226.6,15.5,225.4,15.7,224.1,15.8"/>
	<path class="st0" d="M250.8,99.2c3-0.7,7.9,0.1,10.7-0.6c2.4-0.8,4.9-1.5,6.2-3.3c-0.2-1.1,0.4-2.3,1-3.3c1.8-0.4,4.4-0.1,5.2-1.6
		c-0.1-0.3-0.2-0.7-0.1-1.1c0.9-0.8,1.8,0,2.4,0.6c0.7,0,1-0.4,1.2-0.9c1.8-0.1,2.7-2.2,4.3-1.6c-0.1,1.2-1.3,1.2-1.6,2.2
		c0.2,0.2,0.5,0.1,0.4,0.6c-0.6,0-0.9,0.3-0.6-0.4c-1.8,1-2.6,3-5.7,2.7c-0.2-0.3-0.5-0.3-0.3-0.7c-1.3,0.1-0.9,1.9-1,3.1
		c-1.9,0.5-3.4,1.8-5.1,2.6c-1.4,0.7-3.2,0.5-5.2,1c-2.6,0.7-7.1,0.6-9.7,1.5C251.9,99.7,251.3,99.9,250.8,99.2"/>
	<path class="st0" d="M274.9,11.1c-0.5-0.3-1.1-0.5-1.4-1.1c-2.9-0.5-5-1.7-7.6-2.8c-0.6,0.1-0.8,0.4-1.4,0.5
		c-2.7-1.1-6.9-0.6-9-2.2c-0.1-1.5,1.8-1.3,3.1-1.2c4,0.3,9.1,3.2,12.5,4.1c0.4,0,0.3,0.4,0.5,0.6C273.2,9.2,274.7,10,274.9,11.1"/>
	<path class="st0" d="M275.2,11.1c0-0.5,0.6,0.2,0.9,0.2c2.6,0.4,4,2,5.9,3c0.1,0.3-0.2,0.3-0.1,0.6c2.1,0.5,2.7,2.5,4,3.8
		c-0.2,0.6,0.1,0.9,0,1.6c-2-1.3-2.6-3.7-4.3-5.2C279.6,13.5,276.8,13.2,275.2,11.1"/>
	<path class="st0" d="M282.2,87.1c0-0.3,0.2-0.4,0.5-0.4C282.8,87,282.6,87.1,282.2,87.1"/>
	<path class="st0" d="M287.2,22.8c0.6,0,0.2,0.9,0.6,1C287.4,24.1,287.3,23.2,287.2,22.8"/>
	<path class="st0" d="M294,76.4c-0.1-0.3,1.1-0.1,1.1,0C294.9,76.8,294.5,76.2,294,76.4"/>
	<path class="st0" d="M225.7,91c2.1,0.6,4.3,1.1,5.6,2.6c3.2,1.7,6.5,3.2,10.3,4.3c0.6,0.1,1.4-0.1,2,0.1c0.5,0.2,2,0.5,3.2,0.6
		c1.1,0.1,2.4-0.4,3.3,0.4c-0.9,1.5-4.4-0.6-5.6-0.1c-0.2-0.1-0.6-0.6-0.7-0.4c-2.4-0.3-5.4-1.3-8.3-2c-1.5-0.3-2.8-1-4-1.2
		c-0.9-0.2-1.7,0-2.4-0.2C227.4,94.4,227,92.2,225.7,91"/>
	<path class="st0" d="M230.9,12c-0.2,0-0.1-0.3-0.1-0.5c0.3-0.4,0.9-0.5,0.9-1.2c0.6-0.4,1.1-0.8,1.9-1.1c1.8-3.4,6.6-4.2,11-4.3
		c0.4,0,1.1-0.4,1.5-0.5c3.3-0.5,6.6-0.2,9.2,0.7c-2.1,0.8-6.1,0-9.2,0.4c-1.2,0.2-2.5,0.6-3.7,0.9c-4.4,1.1-6.6,4.1-10.5,5.6
		c-0.5,0,0-0.3-0.2-0.6C231.4,11.5,230.8,11.4,230.9,12"/>
	<path class="st0" d="M294.1,72.6c0.5-1.3,1-2.7,1.9-3.7c-0.4-1.7,0.8-2.7,1-4.2c-0.1-0.2-0.4-0.2-0.6-0.4c0.1-0.4,0.3,0.2,0.6,0
		c2.5-4.8,2-11.1,1.9-17.3c-0.1-2.7-1.8-4.9-1.9-6.9c0-0.3-0.1-0.6,0.4-0.9c-2.3-2.6-4.7-5.1-6.2-8.4c0.2-0.5,0.3,0.1,0.7,0
		c-0.8-2.3-3.3-2.9-3.8-5.5c0.6-0.1,0.6,0.5,1,0.6c0.3-0.8,1.6-0.2,2,0.1c0.2,0.6-0.1,0.5-0.1,1.1c0.7,2.4,2.8,3.9,4.3,5.6
		c0.3,0.4,0.2,1.1,0.5,1.7c0.7,1.7,3.1,2.8,3,5.2c0,0.4,0.3,0.6,0.4,0.9c-0.2,0.9,0,1.2,0.1,2.2c0.1,0.4-0.4,0.2-0.6,0.2
		c-0.1,0.2,0.1,0.6-0.1,0.6c0.7,1.3,0.4,3.5,1.2,4.7c0.9,6.1-0.2,14.6-2.6,19.9c0,0.6-0.1,0.6,0,1.1c-1.9,4-4.2,8.6-6.4,12.4
		c-1.4,2.4-2.9,5.4-6.9,4.3c0.3-2.7,2.9-3.3,4.7-4.7c1.4-1.1,2-2.5,2.8-4.2c1.9-0.9,2-3.6,3.7-4.7c0-0.1,0.1-0.1,0.1-0.2
		C294.8,72.3,294.6,72.6,294.1,72.6"/>
	<path class="st0" d="M289.7,72c-1.2,0.8-1.8-0.3-3,0.3C286.3,70.8,289,71.2,289.7,72"/>
	<path class="st0" d="M239.8,78.3c-0.4,0.8-1.4,0.8-2.6,1.9c-0.7-0.2-0.4-0.5-0.6-1c-1.2,0.3,0.2,1.4-1.3,1.6
		c0.1-0.4-0.1-2.2-1.1-1.2c-0.4,0.4,0.4,0.4,0.6,1c-0.7-0.1-1.7,0.5-2.1-0.6c1.4-1.9,4.2-0.7,6.4-2.2
		C239.3,78.2,239.5,78.4,239.8,78.3"/>
	<path class="st0" d="M233.3,77.9c0.4-0.4-0.4-0.4-0.6-1c0.7-0.5,1.3-0.3,1.6,0.5c-0.1,0.4-1.2,1.8-1.6,0.4
		C233,77.5,233.2,77.7,233.3,77.9"/>
	<path class="st0" d="M215.9,78.9c-0.2,0.7-2.8,1-3.5,0.1c-0.7,0.2,0.4,1.8,0.9,0.8c-0.2,1-2.1,2.6-2.9,1.2c0.2,1.4-1.2,0.8-2.4,1.3
		c0.2-1.3,2.3-2.4,3.4-1.9c0.7-0.5,0.3-1.3-0.3-2.1c0.4-0.2,0.6-0.4,0.5-0.7c1.4,1.4,1.4,1.4,3.4,0.4
		C214.9,78.7,215.1,79.1,215.9,78.9"/>
	<path class="st0" d="M210.8,78.6c-0.3,0.9-2.8,1-3.5,0.1C208.7,78,209.7,78.4,210.8,78.6"/>
	<path class="st0" d="M155.8,87.7c0.4-0.8,0.3-1.7,1.5-2.2c-0.2-0.3-0.6,0-0.9,0c0.3-0.7,0.3-1.5,1.2-2c0.3,1.3-0.2,2.1,1.5,1.9
		C158.4,86.6,157.1,87.6,155.8,87.7"/>
	<path class="st0" d="M153.8,79.9c0.9,0.7,1.3,0.6,1.5,1.9c-0.6,0.3-1.1,0.6-1.7,0.9c-0.6-0.7-1.1-1.5-2.1-0.6
		c-0.2-0.5-0.5-1-0.9-0.8C151.7,79.2,152.3,81.7,153.8,79.9"/>
	<path class="st0" d="M150,83.7c-0.8-0.4-2.2,0.9-2.8-0.2C148.3,83,149.4,82.6,150,83.7"/>
	<path class="st0" d="M154.9,78.8c-1.6-0.2-2.3,2.2-3.5,0.1C152.8,78.1,154.2,77.5,154.9,78.8"/>
	<path class="st0" d="M149,78.5c-2,2-0.7,2.2-2.5,4.5c-0.2-0.9-0.1-2-1.8-0.8c-1.1,0,1.5-1.3,1.7-1.8c-0.8-0.2-1.6-0.4-2.5-0.4
		C144,78.1,147.4,79.1,149,78.5"/>
	<path class="st0" d="M128.7,78.4c0.9-0.3,1.9-0.7,2.5,0.4C130.1,79.8,129.3,79.4,128.7,78.4"/>
	<path class="st0" d="M119.8,82.5c-0.4,1.1-1.4,0.9-2.1,1.1C118,82.4,118.8,82.1,119.8,82.5"/>
	<path class="st0" d="M127.6,77.2c-2.9,1.1-1.6-1.7-3.4-2.2c1.3-0.2,2.6-0.3,3.7,0.2c0.2,1.1-1.4,0.3-1.9,0.6
		C126.2,77.5,127.3,76,127.6,77.2"/>
	<path class="st0" d="M102.2,86.3c0-0.6,0.4-1,1-1.4c0,1.1,0.4,0.6,0.6,1.9c-0.8,0.5-1.4,0-2.1,0.3C101.3,86.3,104.3,86,102.2,86.3"
		/>
	<path class="st0" d="M112.2,81.7c-1,0.8-1.6,0.2-2.4,0.4C109.6,81.2,112,80.3,112.2,81.7"/>
	<path class="st0" d="M115.2,77.4c-0.3,1.8-2,0.2-2.8,0.6C112.5,76.6,114.4,77.5,115.2,77.4"/>
	<path class="st0" d="M91,89.7c0.2,1.2-1.2,0.5-1.6,0.4c-0.8-0.9,0-1.3-0.8-2.3c1.3-0.9,0.2,0.5,1.1,1.2c0.7-0.4-0.1-1.2,1-1.4
		C91.6,88.7,88.9,89.9,91,89.7"/>
	<path class="st0" d="M109.1,78.5c0.4-0.3,0-0.4-0.2-0.3c0.2-1.6,1.7,0.7,2.8-0.6c-0.1,1-2.7,2.1-3.1,0.8
		C108.8,78.1,108.9,78.3,109.1,78.5"/>
	<path class="st0" d="M85.5,91c-0.7,0.2-1.5,0.1-1.7,0.9c-0.9,0.4-0.7-1.1-0.8-1.4C83.9,90.3,84.9,89.9,85.5,91"/>
	<path class="st0" d="M81.3,86.6c-1.6,0.5-3,0.4-4.5,0.7C77.1,85.7,80,85.4,81.3,86.6"/>
	<path class="st0" d="M73.6,89c-1.1,0.5-2.3,1.3-3,0.3c0.8-0.1,2.1-0.3,1.5-1.3C72.8,87.7,73.3,88.2,73.6,89"/>
	<path class="st0" d="M76.4,84.3c1.2,0.1,2.6-0.4,3.9-0.3C80.6,85.2,77.3,85.1,76.4,84.3"/>
	<path class="st0" d="M91.1,77.6c-0.7,0.2-2.3-2.1-2.5-0.4c-1.5-0.1,1.1-2.3,1.7-1.8C89.6,76.4,90.5,76.1,91.1,77.6"/>
	<path class="st0" d="M75.9,84.2c-0.3,1.8-2,0.3-2.9,1.2C73.1,83.8,75.1,84.6,75.9,84.2"/>
	<path class="st0" d="M54.6,92.7c-0.5,0.2-0.8-0.7-1.1-1.2c1.1-0.2,0.6-1,1.5-1.3c0.2,0.3,0.4,0.7,0.6,1
		C54.6,91.6,53.9,91.4,54.6,92.7"/>
	<path class="st0" d="M74.6,77.7c-0.3,0.8-2.9,1.2-3.4-0.4C72.6,78.3,73,76.8,74.6,77.7"/>
	<path class="st0" d="M57.2,83.7c0.8-0.5,1.6-1,2.3-0.8C60,84,57.7,84.7,57.2,83.7"/>
	<path class="st0" d="M47,87.9c-1.5,0.5-1.5,0.5-2.8,1.5c0.4-1.4-0.8-0.5-1.3-1.5C43.6,87,46.2,86.5,47,87.9"/>
	<path class="st0" d="M47.5,81.4c-0.2-0.3,0.3-0.5,0.5-0.7c-0.7-0.4-2,0.8-2.3-1c1.3-0.2,2.3,0.4,3.1-0.8c0,0.4-0.1,0.8,0.4,0.7
		C49,80.3,48.3,80.9,47.5,81.4"/>
	<path class="st0" d="M103.2,36.9c-0.5,1-3.1,0.8-4,0C100.6,36.5,101.9,36.8,103.2,36.9"/>
	<path class="st0" d="M0,53.7c1.4-1.7,4.5-1.8,6.6-1C4.8,55.1,1.9,54.2,0,53.7"/>
	<path class="st0" d="M282.6,67.3c-0.2,0.2-0.2,0.5-0.5,0.7c0.5,0.7,1.3,0.2,1.9,0.3c0,1.3-1.7-0.1-2.6,1c-0.2,0.2-0.2,0.5-0.5,0.7
		c1.7,3.1,4.5,2.6,6.7,4c-1.3,0.7-12.6,3.1-15.3,3.1c-0.1,0,0.2-0.8,0-0.9c-2.9,2.1-7,1.2-10.5,2.2c0.1-0.7-0.1-1.1-0.8-1.4
		c-1.9,2.1-4.4,1.5-6.8,2.4c-1-1.2-0.7-1.2-1.5-1.9c-0.7,1-1.6,2.2-3.3,2.2c0.2-1.7,0.9-1.8,0.6-3.9c-0.8-0.3-1.8,0.3-2.6,0.1
		c-0.2,0.4,0.1,1-0.7,1.3c1,0.4,1.3,0.6,1.5,1.9c-1.1,0.6-1.6-1.2-3,0.3c-1.2-1.3-0.1-2,0.2-2.8c-0.6-0.2-1.3-0.1-1.6-1.3
		c-0.3,0.2-0.7,0.4-1,0.6c-0.9,0.8,0.7,0.6,0.8,1.4c-0.7,0.2-1.6,0.7-1.9-0.3c-0.8,1,0.4,1.2,0.6,2.8c-0.4,1.3-1.1-0.3-2.3,0.8
		c1.9-0.7-0.3-2.6,0.7-3.5c-1.5-0.8-2.3,1.2-4.7,1.2c-0.2-0.7,1.6-0.9,0.3-1.9c-0.7,0.6-0.7,1.3-1.2,2c-0.4-0.3-0.5-1.3-0.8-2.3
		c-2.8,0.7-2.3-0.3-4.5,0.7c-1.2-1.1,0.5-1.4,0.1-2.3c-1.7-0.5-0.8,1.5-2,2c-0.3-1.6-1.7-0.1-1.3-1.5c0.6-0.6,0.9,0.1,1.3,0.7
		c0.2-0.3,0.4-0.7,0.8-0.9c-0.7-0.9-1.9-0.2-2.8-0.2c0.4,0.2-0.3,1.8,0.6,1.9c0.5,0.6-1.3,1.4-1.2,0.2c-0.8,0.8,1.1,0.8,1.1,2.1
		c-2.5-1.5-3,2.4-5.7,3.6c-0.4-0.5,0-0.8-0.2-1.2c-0.9,1.9-1.4,0.7-3.3,1.4c1.4-2.1,2.3-2.5,6-2.9c0-1.2,0.2-2.3-0.7-3.7
		c-0.8,0.9-0.9,2-0.9,3.2c-1.2,0.4-2.2,0.3-3.3,0.5c-0.1-0.5,1.4-2.1-0.2-1.2c1.1-2-1.2-0.1-0.1-1.8c-0.4-1-1.7,1.4-1.9-0.3
		c-4,3.5-2.8-0.4-5.4,0.7c-1.2-1.4,1.2,0,0.7-1.3c-0.6-0.7-2.3,0.6-1,1.4c-1.3,1.1-1.9-0.2-3,0.3c0-0.4,0-0.8,0.3-1.1
		c-0.4-0.6-1.3,0.4-1.6-0.5c-0.7,1-0.4,2.2-2,2.9c0.6,1.1,1.6,0.5,2.6-0.1c0,0.9-0.7,1.2-0.8,2.7c0.3,0.4,0.8-0.1,1.2-0.2
		c0.3,0.7-1,0.9-0.5,1.6c-2.6,0.1-4.2,0.7-6.1,0.2c1.1-0.3,2.5-1.9,3.3-1.4c0.6-0.4-0.4-1.3-0.1-1.8c-1-0.1-0.9,0.6-1.9-0.3
		c1-2.3,1.7-2.4,3.8-3c-2.7-1.1-3.9,2.1-6.8,2.4c-0.2,0.8,1.3,1.6-1,2.3c0.6,0.6,1.2,1,2.3,0.1c1.4,0-1.6,1-1.3,1.6
		c0.3,0.4,0.8-0.1,1.2-0.2c-0.3,2.5-3.7-0.2-4.5,0.7c0.1-0.4,0.8-1,1.7-0.9c-0.4-0.3-0.8-0.5-1.4-0.1c-0.1-0.7,0.6-0.4,1-0.6
		c0.6-1-1.7-0.1-1.8-1.7c-0.7,0.9-1,1.5-2.2,1.7c2.3-2.1,1.5-2.4,3.7-3.8c-0.4-0.2-0.8-0.4-0.4-0.7c-0.5-0.3-1.1-0.2-1.8,0.1
		c0.1-0.6,0.6-1.2,0.3-1.9c-0.9,1.5-1.5,2.4-2.7,3.3c1.6-0.3,0.2,1.2,1.1,1.2c0,0.6-1,0.3-1.5,1.3c-0.7,0.5,0.8,1.6-0.3,1.9
		c0.2,0.8,2.2,0.2,1.9-0.6c0.9,0.2,0.9,1.6-1,2.3c-1-1.7-2.4-1.6-3.9-1.4c-0.7,0.5-0.3,1.4,0.6,1c-0.1,1.1-2.4,0.9-2.7-0.8
		c0.6-0.3,1.1-0.6,1.7-0.9c-1.4,0.7-3.2-1.1-3.1-2.3c-1.7,0.3-1.1-1.3-3-0.6c0,0.9,1.4,0.1,1.7,2.2c-0.5-0.1-1,0.1-1.6,0.4
		c-0.3-1.2-0.1-0.8-0.9-1.7c-0.5,0.3-1.4,0.6-1.2,1.1c-1.3-0.7-1.3-3.9-2.4-3.6c0.9-0.5,0.9-3.4,3.4-2.8c-1.2-1.3-3.4,1.1-4.6-0.2
		c-0.8,1.9,2.1,0.5,1.1,1.2c-0.3,1.1-2.2,1.4-3.6,2.4c0.8,0.3,1.7,0.2,2.6-0.1c0,0.4-0.1,1.7,0.9,0.8c-0.2,1.5-3.6-2-3.5,1
		c-0.9-1-1.3-2.4-3.2-1.8c-0.1,1.8-0.9,2.9-3.6,3.3c0.8-1.4-1.3-0.9-0.1-2.6c-2,1.2-5.4,2.7-7.3,5.4c0.7-1.2,0-1.7-0.1-2.6
		c1.1,0.4,1.9-1.9,3.3-1.4c-0.5-0.9-1-1.8-1.5-2.8c2.7-1.5,4.9-0.9,7.3-1.3c-0.9-1-2.1-0.6-3.5,0.1c-0.2-1.1-1-0.6-1.3-1.5
		c0,2.1-1.4,0.5-2.6,1c-1.1,0.3-0.3,1.1-0.5,1.6c-1.4,0-2.2,1.7-2.8,0.6c-0.9-1.3,0.5-0.2,1.2-1.1c0.9-0.9-1.1-0.1-1.1-1.2
		c0.6-0.4,1,0,1.6-0.4c-0.6-0.9-1.2,0.1-2.3-1c-0.5,0.9,0.7,0.7,0.6,1.9c-1.8-0.1-3,1.1-5.1,0.5c-0.3-0.8,1.5-0.9,1.3-1.6
		c-0.4-0.2-0.9-0.2-1.4-0.1c3.7-1.5,9.3-0.9,13.8-1.8c0.8-0.8-1.3-0.1-1.3-1.5c2.5,1.1,3.9,1.6,7.2,0.9c-1.5-3.3-4.8,0-6.9-2
		c-1.2,0.4-0.7,1.2-1.7,0.9c0.2,0.5,0.5,1,0.9,0.8c-0.2,1.2-1.9-0.1-1.1-1.2c-15.1,1.2-29.7,0.6-44.8,1.7c-0.8-0.6-0.4-1-1.6-1.3
		c-2.1,1.7-3.3,0-5.1,0.5c0.3,1.1,1.1,0.3,1.6,0.5c-2.1,2.1-5.7,0.4-8.1,0.8c-0.7,0.1-1.9,1.3-1.5,1.3c-0.9,0-1.5-0.9-2.9-1.1
		c-2.9-0.5-6,1.9-7.8-1.1c-4.9,0.7-9.5,0.2-14.4,0.7c0.3,0.2,0.7,0.4,0.9,0.8c-1.5-0.6-2.9-1.1-4.6-1.1c-1.9,3.1-8,2.3-11.2,0.8
		c-0.2,1.4-1.5,1.2-2.5,2.7c-0.5-1-2-1.2-2.3-0.1c0.8,0.5,2.1-0.6,2.5,1.3c-3.3,0-2.6-0.3-5.4,0.7c-0.6-1,0.2-1.5-0.4-2.4
		c-0.1,0.9-0.2,1.9-1.8,2.4c-0.2-1.3-1.3,0.3-1.4-1c1.2-1.1,1.5,0.7,2.8-0.6c-0.5-0.6-1.6,0.8-1.8-0.8c-3.4,1.2-9.1-1.8-13.5,0.7
		c-0.4-0.9,1.1-0.7,1.4-0.8c-1.7-1-3.9-0.5-5.8-0.8c0.2-1.2,2.3-0.7,3.1-0.8c0.6-0.6-1.3-0.8-1.8-0.8c0.7-0.8,3.7-0.9,5.1-0.6
		c0.7-1.3,1-1.1,2-2c0,1.9,3.4-0.7,4.3,1.2c1.1-0.2,0.6-1,1.5-1.3c-0.9-2.6-5.8-1.6-6-0.3c-1.4,0.3-2.8,0.2-4,0
		c-0.1-0.5,0.3-0.9,0.1-1.4c-7.1,1.1-17.6,0.5-26.3,1c0.1-0.4,0-1.2-0.6-1c1.6,0.1,6.3,0.9,6.6-1c-0.1-1.1,1.7-0.6,1.9,0.3
		c2.2-2.4,4.4,0.5,7.1-2.6c-0.3,1,0.8,0.7,1.1,2.1c0.1-2,3-1.1,4.3-2.8c-0.2,0.7,0.2,0.6,0.6,1c1.2-1.9,1.7,1.3,5-1.4
		c0.4,0.2,0.8,0.6,1.1,1.2c1.6-1.9,1.7,0.4,3.3-1.4c-8-0.4-16.2,0.2-24.4,0.4c-0.7-2-2.8-0.6-2.7-2.5c-1.1,0.3-0.6,1-1.5,1.3
		c-0.6-1.1-2.1-1.9-3-0.6c0.2,0.3,0.6,0,0.9,0c-1.5,1.6-4.5-0.4-6.5-0.4c7.7-2.1,16.7-0.5,25.2-2.2c-4.1-1.3-10.2,1.4-14.8-0.8
		c1.6-1.1,2.3,0.8,3.7,0.2c0.2-0.4-0.1-1,0.7-1.3c0.8,0.9,2.1,0.1,2.9,1.1c0.7-1.9,3-1.6,3.4-1.9c0.8-0.4,0,1.1,0.9,1.7
		c1-1.7,3.9-1.4,6.4-2.2c0.1,1.5,1.6,2,3,1.5c-0.6-3.1-4.8-1.7-6.4-1.9c-1.7-0.3,0.2-1.8-0.6-2.8c4.9,0.2,9.4,1.5,14.6,0.5
		c0.2-1.4-3.7-2.3-4.4-0.7c-2.4-1.8-8.5,0.7-11.7-1.7c-1.4,1.9-2.8,0.2-3.6,1.5c-1.2-0.5,0-1.3-1.8,0.1c-0.6-1-1.7,0-2.2-1.5
		c-0.9,0.3-0.4,1-1.5,1.3c-5.5-1.2-9.3-1-14.6-0.5c2.2-4.1,10.1-0.8,13.6-3c0.6,0,1,0.4,1.4,1c5-4.3,9.4,1.1,14.5-2.1
		c0.1,0.4-0.6,0.6-0.3,1.1c0.6,0.4,1.4-0.1,2.1-0.3c-0.4-0.2-1,0.1-1.3-0.7c1.7-0.1,1.6,1.1,3.4,1.3c0.4-0.3-0.1-0.8-0.2-1.2
		C43,52.2,47,47,51,49.4c0.3-0.7,0.6-0.9,1.4-0.8c-0.8-1.4-1.4-0.6-3.2-0.1c-3.4-1.2-7.4-0.5-11.1-0.6c-0.4-1-0.9-1.4-1.8-0.8
		c-0.4,0.4,0.4,0.4,0.6,1c-1.7,0.1-3.3,0.1-4.6-1.1c-1.1,1.8-5.4-0.7-7.9-0.6c-0.6,0.4-0.5,1,0.1,1.8c-3.3-1.6-6.3-0.7-11.3-1.8
		c6.7-0.4,9.5-0.9,15.2-1.6c0.4-0.4-0.4-0.4-0.6-1c1.4-0.2,1.2,0.7,2,1.2c0.8-0.4,1.6-0.9,2.4-1.3c0.6,2.1,2.6-0.3,3.5,0.7
		c-0.2-1.7-3.6-0.9-5.1-1.2c1.1-1.2,4.1,0,6-0.6c-0.1,0.4,0.3,1.1-0.1,1.4c3.5,0.4,7.3-0.1,11.1-0.3c-2.8-0.6-6-0.1-8.8-0.5
		c2.4-1.3,5.7-1.5,8.6-1.6c6.3-0.2,13.1,0,19,0.3c5.4-0.6,10.7-1,15.6-0.1c3.2-1.4,5.8-0.9,8.7-1.2c0.9-1.6,1.8-0.6,3.3-1.4
		c0.2,0.5-1,0.7-0.7,1.3c1.8-0.2,3.4,0.2,5.3-0.2c-0.4-1.5-1.9,0.5-2.3-1c3.9,0.5,7.6,1.9,12,0.6c0.6-1.3-2,0.4-2.3-1
		c1.9-0.8,3.2,0.2,4.9,0c0.2,0.4-0.5,0.6-0.8,0.9c3.5,0.5,7.2,0.4,11.2-0.8c-0.8-0.3-1.7-0.2-2.6,0.1c1.9-1.8,5.3-0.2,7.9-1.2
		c0.1,0.8-0.6,0.4-1,0.6c5.6,1,13.9-0.6,20.7-0.6c0.3-0.2,0-0.6,0-0.9c5-0.2,12.1-2.7,15.5-0.4c0.8-1.8,2.7-1.3,4.5-1.6
		c0.2,0.3-0.3,0.5-0.5,0.7c1,0.5,2.4-0.1,3.5-0.1c0.8-0.4-0.6-0.9-1.1-0.3c0.4-1.6,2.5-0.7,3.5-1c0.3,1.2-0.9,0.1-1.4,0.8
		c0.8,1,1.6-0.2,2.3-0.8c1.3,2.2,1.4,0.2,2.6-0.1c4.2-0.9,10-1.9,15-2c1.2,0,2.3,0.8,3.5,0.7c4.5-0.1,9.3-1.5,13.8-1.8
		c2.1-0.1,4.4,0,6.7-0.1c2.6-0.1,5.6-0.6,7.4,0.4c3.5-1.9,6.2-0.9,9.4-1.6c-36.8-1-76.1,6-112.9,6.5c17.6-2.8,36.5-1.6,55.3-5.3
		c18.4-0.9,36.8-1.7,55.4-3.6c15.1,0.4,31.5-3.7,46.6-3.2c-0.3,1.5,1.5,1.3,2.4,1.8c-0.1,0.7-0.9,1.1-0.8,1.8
		c1.4,2.3,3.9,0.5,5.4,2.4c-1.6,1,0.2,3-0.9,4.1c1.4-0.6,2,1.9,3.1,2.3c0.1,0.8-0.6,0.4-1,0.6c0.4,1.2,1.5,0.2,1.8,1.7
		c-1.2,0.4-0.4,1.4-1.2,2c1.5,1.5,2,1.5,3.6,3.4c-0.9,1.3-1.9,2.5-3.4,3.6c0.8,0.7,1.7,0.9,2.5,1.3c0.2,0.8,0,1.5-0.6,2.1
		c0.5,0.9,1.6-0.2,2.1,0.6c0.8,1.3-0.9,2.8-2.2,2.5c0.7,0.7,1.9,2.2,0.8,3.1c1.5,0.1,0.9,1.3,2.2,2.4c-0.4,1-2.3,1.2-0.6,2.1
		c-1.3,0.7-0.8,0.9-2.1,1.1c0.9,1,2.2,0.5,3.2,0.9c1.1,0.9-1.5,2.2-0.1,2.3c-1,1.5-3.9,1-5.3,0.2c-0.2,0.1-0.5,0.3-0.7,0.4
		C285.4,67.7,283.4,68,282.6,67.3 M33.7,56.3c2.1-1,5.6,3.7,8.1,0.9c0.3,0.5,0.3,0.8,0.2,1.2c0.2-0.1,0.5-0.3,0.7-0.4
		c0.2-0.2,0.7-0.4,0.5-0.7c-0.9,0.3-1.4-0.6-2.1-0.6c0.2,0.4-0.3,0.7-0.8,0.9C39.3,56.5,35.1,55.3,33.7,56.3 M277.9,71.7
		c0.9,0.7,1.9,0.8,3.2,0.1C280.3,70.7,278.2,71.1,277.9,71.7 M275.4,72.2c-0.4-1.4-1.6,0.3-2.4,0.4
		C273.5,73.7,275.3,72.6,275.4,72.2 M261.5,75.4c1.1-0.7,1.7,0.3,2.8-0.6C263.4,73.3,261.7,74.1,261.5,75.4 M258.3,74.4
		c-1.2,1.6-2.9-0.5-3.3,1.4C255.8,76.5,258.6,76,258.3,74.4 M240.3,71.8c-0.9,2.1-0.5-0.2-2.1,0.3c0.4,0.8,0.9,1.6,1.3,2.4
		c0.6-1.1,1.4-0.3,1.5-1.3C239.9,73.5,241,72.2,240.3,71.8 M224.7,73.6c0.7-0.2,1.3,0.3,2.1-0.3C226.2,71.5,224.9,72.6,224.7,73.6
		 M226.9,70.2c-0.6,0.1-1.1,0-1.8,0.1c0,0.3-0.1,1.8,0.8,1.4C225.1,70.8,227.6,71,226.9,70.2 M218.1,74.6c-0.5-1.1-2.7-1.3-2.8-0.2
		c1.9-0.9,0.9,1.7,2.5,1.3C217.6,75.2,217.8,74.9,218.1,74.6 M230.2,65.7c-2.6,0-5.4,0.2-7.7,1.5c2,0.9,2.9-0.2,5,0.9
		C226.8,65.6,229.7,67.6,230.2,65.7 M210.8,73.6c-0.4-0.1-1.6,0.4-2.8,0.6c-0.1,0.9,0.4,3.5,1.3,1.5c-0.4,0.1-0.7-0.1-1.1-0.3
		C208.6,73.9,211.4,75.7,210.8,73.6 M215.3,71.2c0.2,0.4-0.3,0.5-0.5-0.2c-2,1.9-5.7-1.8-6.6,1c1-0.9,0.9,0.4,0.9,0.8
		c1.2-0.1,2.2-0.1,2.9-1.2c0.7,1.1,4.8,0.3,4,0C215.3,71.9,215.9,71,215.3,71.2 M200.2,77.2c0.6,0.1,1.5-0.4,2.1-0.3
		C201.7,75.7,200.2,75.9,200.2,77.2 M190.9,80.6c-0.8-1.7-2.7-1-2.6-3.1c-1.2,0.1-2.6,0.6-3.1,0.8c0-1.1,0.9-1.3,1.9-1.5
		c-0.3-1.6-2.9-0.7-3,0.3c0.5-0.1,1-0.1,1.4,0.1c-0.8,0-0.6,1.7-1.4,0.8c0.2-0.2,0.7-0.4,0.5-0.7c-0.9,0.4-0.8,1.1-0.8,1.8
		c1.3-1.6,1.4,1.3,2.3,1C187.5,79,189.1,81.4,190.9,80.6 M201.9,69.6c0.8,1.1,4.8,0.3,4,0C204.5,69.7,203.3,69.4,201.9,69.6
		 M194.8,73c0.7,2,5.4,0.3,5.1-0.5c-2.5,1.4-1.8-1.7-4.2-0.4c0,1.1,2.1,0,1.1,1.2C196.1,73.2,195.6,72.7,194.8,73 M193.3,70.3
		c0.1,0.3-0.1,0.6-0.5,0.7c0.3-1-0.7-1-1.4-1c-0.6,1.9,3,1.2,3,0.6C193.9,70.8,193.7,70.2,193.3,70.3 M182.4,74
		c0.2-0.1,0.4-0.2,0.5,0.2c-0.2,0.2-0.7,0.4-0.5,0.7c0.4-0.3,1.9,0.5,1.6-0.4C183.4,74.5,182.9,72.3,182.4,74 M175.2,74.8
		c-1.1,1.1-1.5-0.3-2.4,0.4c-0.2,1,0.3,0.4,0.8,1.4c0.7-0.9,2.4-0.5,2.1-1.1C175.1,75.7,175.1,75.3,175.2,74.8 M86.8,71.4
		c2.5,0.1,6.8-1.7,7.5-1.9c-6-0.7-12.5,0.4-18.6,0.4c3,1.9,7.3,1.4,10.4,0.1C86.3,70.5,86.6,71,86.8,71.4 M123.6,46.3
		c-7.2,0.5-15.4-0.7-21.9,0.9C108.6,47,118.4,47.2,123.6,46.3 M75.3,70.1c-0.7,0.5-0.9-0.8-1.6-0.5c-0.5,1.5-2.5,0.1-3.7,0.7
		c1.3,1.5,3.3,0.7,5,0.9C74.8,70.7,75.5,70.5,75.3,70.1 M52.4,71.5c0.4-0.2,0.9-0.3,1.1,0.3c4.2-0.7,10.8,0.7,13.5-1.6
		C62.1,71.2,56.9,69.9,52.4,71.5 M92.1,53.3c0.8-0.2,1.5,0,2.1,0.6c0.7-1.7,3.4-0.1,4-1.7C96.2,53,93.3,51.9,92.1,53.3 M82.6,53.1
		c0.3,0.5,0.5,0.9,0.8,1.4c1.1-0.8,4.4,0.1,3.7-0.7C85.4,54,84.4,52.1,82.6,53.1 M80.1,47.8c3.4,0.6,7,0.3,10.7-0.1
		C87.3,47.1,83.5,46.6,80.1,47.8 M73,54.4c1.1-0.8,1.3,0.4,3-0.3C75.1,53.7,72.6,52.9,73,54.4 M76.4,47.6c0.7,1,1.8,0.4,2.8,0.2
		C78.6,46.8,77.4,47.4,76.4,47.6 M71.1,46.9c-1.3,1.5-5.3,0.1-6.6,1.8c2.3,0.6,5,0,7.6-0.1C72.3,47.6,71.5,48.1,71.1,46.9 M37,60.7
		c1.1,0.6,3.6,1.4,4.4-0.2C40,60.3,38.5,60.5,37,60.7"/>
	<path class="st0" d="M216.4,82.2c-1.1-0.7-2.8,1.2-3.5-0.7C213.8,82.6,215.5,80.9,216.4,82.2"/>
	<path class="st0" d="M164.9,85.4c1.2,0.4-1.4,0.6-1.8,0.1c0.4-0.1,1.4-1.8-0.4-1.6c-0.3-1.2,1.2-0.4,1.7-0.9
		C165.3,83.9,163.9,85.5,164.9,85.4"/>
	<path class="st0" d="M157.7,81.3c1.1,0.6-0.9-0.4-1.3-0.7c-0.3-0.7,1-0.9,0.5-1.6c0.6-0.2,0,0.8,0.7,0.5
		C157.8,80.2,156.7,80.5,157.7,81.3"/>
	<path class="st0" d="M137.8,75.2c0.4-0.3-0.1-0.8-0.2-1.2c1.1,1.2,3-0.4,4.2,0.4c0.2,0.9-1.9,1.2-2.1,0.3c-0.6,1.3,1.5,1.5,2.3,1
		c0.4,0.9-1.4,1-1.7,0.9c0.9,1.4,2.3,0.8,3.7,0.2c1.3,1.8-1.1,2.6-2,3.8c-0.2-0.8-0.9-0.4-1.4-0.1c0.1-1.4-0.3-1.1-0.4-2.4
		c-0.5-0.2-1,0.7-0.9-0.8c-0.7-0.8-2,0.2-2.8-0.2c-0.1-1.2,1.7-0.6,2.3-0.8c0.8-0.6-0.9-0.7-1.3-0.7C137.3,75,137.7,75.1,137.8,75.2
		"/>
	<path class="st0" d="M129.6,87.3c-0.3,1,0.7,1.7,1.3,2.4c-1,0.1-2.7-0.3-2.4-1.8c-0.2,0.1-0.5,0.3-0.7,0.4
		C127.6,87.1,129,88.3,129.6,87.3"/>
	<path class="st0" d="M132.9,86.9c-0.4,0.2-0.4-0.2-0.2-0.3c-0.3-0.4-1.3,0.1-1,0.6c-0.3-0.6-1.7-1.5-3.2-0.9
		c0.6-1.6-0.8-1.8-2.4-1.8c-1.7,0.1,1.8-0.5,0.2-0.5c0.7-0.3-0.1-1.7,1.8-2.4c-0.2-0.5-0.5-1-0.9-0.8c0.3-1.2,2.4-0.2,3.5-1
		c-1.2,1.4,1.6,0.5-0.5,1.6c0.4,0.3,0.8,0.5,1.4,0.1c0.2,0.4-0.5,0.6-0.8,0.9c0.1,0.2,0.3,0.5,0.4,0.7c0.9,0.2,2-0.2,2.5,1.3
		c-0.7,0.2-1.3-0.3-2.1,0.3c-0.3,1,0.1,0.8-1.2,1.1c1,0.2,2,0.4,3.2,0.1C133.8,86.1,132.6,86.3,132.9,86.9"/>
	<path class="st0" d="M150.3,76.9c-0.4,0.1-0.4-0.2-0.2-0.3c-1-0.6-2.1-0.7-3.4-0.4c0-0.7,2.3-1.3,2.6-0.1c0.3-1.2,1.7-0.9,2.6-1
		c0.4,0.5-1.6,1.7-1.6,0.4C150.2,75.9,150.2,76.4,150.3,76.9"/>
	<path class="st0" d="M136.3,79.2c0.6,0.3,1.3,0.2,1.9,0.3c0,0.4-0.1,0.8,0.2,1.2c-0.7,0.2-1.2-0.6-2.1,0.3
		c-0.8-1.4,0.4-2.8-1.7-2.2c0-0.4,0.1-0.8-0.2-1.2c0.7-0.2,1.2,0.6,2.1-0.3C136,78.4,137.5,78.5,136.3,79.2"/>
	<path class="st0" d="M133.4,80.3c-0.3-0.2-0.6-0.5-1.1-0.3c-0.7-0.6,2-0.5,0.5-0.7c-0.4-0.9,0.9,0.1,1.4-0.8
		c0.2,0.3-0.3,0.5-0.5,0.7c0.1,0.3,0.3,0.3,0.5,0.2c0.2,0.7-0.2,1.1-1,1.4C133,80.6,133.2,80.5,133.4,80.3"/>
	<path class="st0" d="M122,80.8c0.8,1.3-0.2,0.3-0.8,0.9c0.4,1.2,1.7,0.3,1.3,1.5c0.5-0.2,0.9-0.5,1.4-0.8c0.7,0.6-0.4,2.1,0.6,1.9
		c0.3,0.8-1.7,1.3-2.1,1.1c0.1-0.9-1-3.7-1.8-1.7c-0.8-0.8,1.7-2-0.3-2.1C120.1,81.5,121.9,80.6,122,80.8"/>
	<path class="st0" d="M126.3,79.7c0.1,1.7-1.1,1.6-2.6,1.9c-0.2-0.5-0.5-1-0.9-0.8C123.9,79.9,123.9,81.4,126.3,79.7"/>
	<path class="st0" d="M110.2,86.3c0.4,1.2-2.4-0.2-1.9,0.6c-1.5-0.3,0.3-1.2,0.1-1.4C109.3,84.9,109.5,86.6,110.2,86.3"/>
	<path class="st0" d="M119.7,80.7c-0.6,0.7-0.5-2-0.7-0.5c-0.5,0.5-0.7-1.3-0.4-1.6c-1.2-0.2-0.9-0.8-2.3-1c-0.3-0.8,2-0.6,0.3-1.1
		c-1.2-0.5,1.4-0.4,1.6,0.5c0.4-0.3,0-0.5-0.2-0.3c-0.1-0.9,1.3-2.1,1.9-0.6c-2,0.2,1.7,1.4,2.7,0.8C121.6,78.2,121,79.5,119.7,80.7
		"/>
	<path class="st0" d="M104.3,78.8c-1.4,0.6-2.1-1.2-3,0.3c0.1-0.7-0.1-1-0.9-0.8C100.8,77.7,103.6,77.3,104.3,78.8"/>
	<path class="st0" d="M99.6,79.2c-1.4-0.6-3.7-1.4-3.9-0.6c-0.7-0.4-0.1-2.1-2.2-1.5c-0.5-0.9,3.3-0.4,4.5-0.7
		C96.4,78.4,99,77,99.6,79.2"/>
	<path class="st0" d="M73.6,92.2c0-1.6,1.3-3.1,2.8-1.5C75.3,90.3,74.2,91.5,73.6,92.2"/>
	<path class="st0" d="M64.8,83.5c1.2,0.2-0.6,0.4-1,0.6c0.7,0.6,1.6,0.5,2.5,0.4c-0.1,0.7-0.5,1.2-0.8,1.8c0.6,0.3,1.3,0.2,1.9,0.3
		c0.6-0.4,0.5-1-0.1-1.8c1-0.2,2.2-0.8,2.8,0.2c-0.6,0.3-1.1,0.6-1.7,0.9c0.8,0.8,2.2-0.4,2.7,1.7c-1.5-0.3-1.7,0.2-2.8-0.2
		c0.8,1.8,0.3,2.1,1.2,2.9c-0.2,1.4-2.5,1.3-3.1,0.8c-0.3-1.2,1.2-0.4,1.7-0.9c-0.2-1.3-1.3,0.3-1.4-1c-0.7,0.4-1.4,0.8-2.1,1.1
		c-0.7-2.3-3-3.4-1.1-6.1c-0.7-0.4-1.7,0.6-2.3-0.1c0.5-0.4,0.1-0.9,1.3-1.6c-2.1,0.4-3.5-1.8-6-0.3c-1.2-0.9,1.1-0.9,0.5-1.6
		c-0.5-0.7-1.5,0.7-2.3,0.8c-0.3-1-0.8-1.2-1.6-0.5c0-0.4,0.1-0.8-0.4-0.7c1.3-1.1,2.3,0.7,5.1-0.6c0.2,1.3,0.3,1,1.3,1.5
		c0.7-0.4-0.1-1.2,1-1.4C61.5,80.5,62.6,83.1,64.8,83.5"/>
	<path class="st0" d="M75.7,83.8c0-0.5,0.6-0.8,0.1-1.4c1.2-0.3,2.2,0.3,3.5-0.1c0.3-0.3-0.2-2.3-0.6-1.9c-0.9-1.5,2.2,1.8,2.3,0.1
		c1.1,0.2-1.7,1.6-0.8,2.7C77.3,84.4,77.3,81.9,75.7,83.8"/>
	<path class="st0" d="M86.2,78.5c-0.1,0.9-3,0-4.5,0.7C82.5,77.3,84.8,79.1,86.2,78.5"/>
	<path class="st0" d="M72.3,83.4c-0.8,0.6-1.1-0.2-1.9,0.6c-0.4-0.9-1.1-0.8-1.6-1.3c0.4,1.5,0.4,0.8-1.5,1.3
		c-0.2-1.3-0.6-1.3-0.6-2.8c0.5-0.3,2.1,0.5,1.9-0.6c1.9,0.5-0.4,1.8-1.2,1.1C68.5,84,71.2,80.9,72.3,83.4"/>
	<path class="st0" d="M79.4,79.1c-1,0.1-0.8,0.3-2.3,0.8c0.2-1.5-2.3-0.2-3.4-0.4C74.7,78.5,77.9,78.4,79.4,79.1"/>
	<path class="st0" d="M58.5,88.4c-1-1.1-2.8,0.5-3.9-0.6c0.6-0.6,1.6,0.4,0.8-0.9c1.4-0.4,2.4,0.2,3.9-0.3c0.7,1.1-0.8,1.5-1,2.3
		C60.5,90.2,57,89.6,58.5,88.4"/>
	<path class="st0" d="M65.8,81.2c0.2,0.4-0.2,0.4-0.3,0.2c-1.1,0.3-0.6,1-1.5,1.3c-0.4-0.2-0.8-0.6-1.1-1.2c0.6,0.2,0.9-0.1,0.5-0.7
		C64.2,80.8,65,81,65.8,81.2"/>
	<path class="st0" d="M67.8,79.2c0.7,0.4-0.7-0.2-1.3-1.5c-1.1,0.2-0.6,1-1.5,1.3c-0.3-1.1-1.1-0.3-1.6-0.5c0-0.4,0.1-0.8-0.4-0.7
		c1.9-0.9,4.8-1.1,6.5,0.4C69,78.8,67.5,78,67.8,79.2"/>
	<path class="st0" d="M53.4,85.7c0-1.1-0.3-2.2,1.1-2.9c-0.1,0.4,0,1.2,0.6,1c0.2,0.3,0,0.4-0.2,0.5C53.4,84.2,54.7,84.2,53.4,85.7"
		/>
	<path class="st0" d="M42.3,88.3c-0.4,0.1-0.4-0.2-0.2-0.3c-0.8-0.9-0.6,0.7-1.4,0.8c-1.3,0-1.7-2.1-0.1-1.8
		c0.1,0.4-0.6,0.6-0.3,1.1c0.9,0.4,1-1,2.3-0.8C42.7,87.6,42.1,87.8,42.3,88.3"/>
	<path class="st0" d="M114.1,36.3c-2.4,0.7-9.2,1.6-10.2,0.2C106.3,36.9,110.8,35.9,114.1,36.3"/>
	<path class="st0" d="M98.1,37.4c-1.3-0.1-7.9,0.6-11.1,0.3C89.8,37,95,36.4,98.1,37.4"/>
	<path class="st0" d="M19.7,73.3c0,0.4-0.1,0.8,0.4,0.7c0,1-2.3,1.4-3.3,2.2c-0.3-0.5,1.9-1.7,0.5-1.6C17.1,74.1,19,74.2,19.7,73.3"
		/>
	<path class="st0" d="M86.4,37.2c-0.7,1.4-3.2,0.5-4.5,0.7C82.4,37,85,37.6,86.4,37.2"/>
	<path class="st0" d="M76.8,40.2c-1,1.1-3.8-0.1-5.6,0.4C72.3,39.1,75,40.8,76.8,40.2"/>
	<path class="st0" d="M26.3,66.6c-0.1-0.6,0.5-0.1,1-0.6c0,0.4-0.1,0.8,0.2,1.2c-0.7,0.3-1.3,0.4-1.8,0.1C24,67.4,28,66.7,26.3,66.6
		"/>
	<path class="st0" d="M77.8,37.9C72.6,38.6,73.1,36.9,77.8,37.9"/>
	<path class="st0" d="M12,46.2c0.2,0.4,0.4,0.6,0.7,0.5c-0.5,0.8-3.2,0.6-4.5,0.7C8.6,46,10.6,47.6,12,46.2"/>
	<path class="st0" d="M7.5,46.9c-0.3,1.4-2.4,0.2-3.3,0.5C3.3,46.8,6.6,47,7.5,46.9"/>
	<path class="st0" d="M155,84.6c-0.3,0.2-0.7,0.4-1,0.6c-0.4-1.2-1.1-1.4-2.1-0.6c0.1-0.5-0.1-1-0.4-1.6
		C152.5,83.9,154.2,82.7,155,84.6"/>
	<g>
		<path class="st1" d="M93.8,54.8c0.9,0,1.6,0,2.1,0c0.5,0,0.9,0.3,0.9,0.8v1.9c-0.1,0.7-0.3,1-0.8,1h-2.4c-0.5-0.1-0.7-0.6-0.5-1.7
			v-1C93.1,55.3,93.3,55,93.8,54.8z"/>
		<path class="st1" d="M105.1,44.5l0.8,0.1h1c0.5,0,1,0,1.6-0.1c0.1,0.1,0.2,0.1,0.3,0.1c0.1,0,0.2,0,0.3-0.1c1,0.1,1.8,0.1,2.5,0.1
			h0.9c0.2,0,0.5,0,0.9-0.1c0.6,0.2,0.9,0.4,0.9,0.8v2.2c0,0.6-0.5,0.9-1.4,0.9h-1.9v18.4c-0.1,0.6-0.4,0.8-0.8,0.8H108
			c-0.2-0.1-0.4-0.4-0.6-0.8c0-0.2,0-0.5,0.1-0.8c-0.1-1-0.1-1.6-0.1-1.9c0-0.7,0-1.3,0.1-1.9c-0.1-1-0.1-1.9-0.1-2.6s0-2,0.1-4
			c-0.1-0.7-0.1-1.2-0.1-1.5l0.1-0.8c0-0.1,0-0.2-0.1-0.3c0.1-0.5,0.1-0.9,0.1-1.2v-2.4c0-0.1-0.1-0.5-0.3-1.1h-2
			c-0.5,0-0.9-0.2-1-0.7l0.1-0.2c0-0.1,0-0.1-0.1-0.2l0.1-0.4c0-0.2-0.1-0.7-0.2-1.4C104.4,44.8,104.7,44.5,105.1,44.5z M106.3,47.1
			L106.3,47.1c0,0.2,0.1,0.2,0.2,0.2v-0.2H106.3z M107.3,46.1c0,0.1-0.1,0.2-0.2,0.4h0.4v-0.3C107.5,46.2,107.4,46.1,107.3,46.1z
			 M107.6,47.5c0.2,0,0.3,0.2,0.3,0.5h0.2l0.1-0.4v-0.2l-0.1-0.2C107.8,47.3,107.6,47.4,107.6,47.5z M108.5,47.1L108.5,47.1
			L108.5,47.1c0.5,0.1,0.7,0,0.8-0.2v-0.1C108.7,47,108.5,47.1,108.5,47.1z M108.5,58.2v0.2h0.3v-0.2H108.5z M108.8,57.1l-0.1,0.4
			v0.1c0.1,0,0.2-0.1,0.2-0.3C108.9,57.3,108.9,57.2,108.8,57.1L108.8,57.1z M108.8,48.5L108.8,48.5l0.6,0.2c0-0.1-0.1-0.2-0.3-0.3
			H109C108.9,48.4,108.8,48.4,108.8,48.5z M109,50.4L109,50.4l0.3,0.1v-0.1H109z M109.1,60L109.1,60l0.3,0.1v-0.3
			C109.3,59.9,109.1,60,109.1,60z M109.1,54.6v0.3h0.1c0.1,0,0.2-0.1,0.2-0.2v-0.2h-0.1C109.2,54.4,109.1,54.5,109.1,54.6z
			 M109.4,47v0.4h0.1L109.4,47L109.4,47z M109.4,50.3L109.4,50.3c0,0.2,0.1,0.2,0.2,0.2v-0.2H109.4z M109.4,65.2L109.4,65.2l0.3,0.1
			l-0.1-0.2C109.5,65.2,109.5,65.2,109.4,65.2z M109.5,48.2L109.5,48.2l0.2,0.1v-0.1H109.5z M109.6,54.3L109.6,54.3
			c0.2,0,0.2-0.1,0.2-0.2c0,0-0.1,0-0.1-0.1c0.1,0,0.2-0.1,0.2-0.2v-0.3C109.9,53.6,109.7,53.8,109.6,54.3z M109.7,48.5
			c0,0.1,0.1,0.2,0.2,0.3h0.1v-0.3c0-0.1-0.1-0.2-0.2-0.2C109.8,48.4,109.7,48.4,109.7,48.5z M109.7,54.9L109.7,54.9l0.2,0.1v-0.1
			H109.7z M110,47c-0.1,0.1-0.1,0.2-0.1,0.2c0.1,0.2,0.2,0.3,0.2,0.4c-0.1,0-0.1,0-0.1,0.1h0.3l-0.1-0.2c0.1,0,0.2-0.1,0.2-0.2v-0.3
			L110,47z M110.7,47.2L110.7,47.2c0.1,0.3,0.1,0.3,0.2,0.3c0.1,0,0.2-0.1,0.3-0.1c0-0.1-0.1-0.2-0.3-0.3H110.7z M111.3,45.8V46h0.2
			C111.4,45.9,111.4,45.8,111.3,45.8z M112.3,46.9c0,0.1,0.1,0.2,0.2,0.2v-0.2H112.3z"/>
		<path class="st1" d="M121,44.6c2.5,0,4.1,1.3,4.9,3.8c0.1,0.6,0.2,1.3,0.2,2.1v11c0,2.8-1,4.7-3,5.7c-0.8,0.3-1.6,0.5-2.4,0.5
			c-1.2,0-2.4-0.5-3.6-1.5c-1-1.2-1.4-2.4-1.4-3.4c0.1-1.4,0.1-2.3,0.1-2.5c0-0.2,0-0.7-0.1-1.4c0,0,0-0.2,0.1-0.5
			c-0.1-0.5-0.1-0.8-0.1-0.9c0.1-1.4,0.1-2.3,0.1-2.6l-0.1-0.2c0.1-0.1,0.1-0.2,0.1-0.3v-0.3c0-0.5,0-0.8-0.1-1
			c0.1-0.5,0.1-0.9,0.1-1.3v-2.3c0-0.9,0.5-2,1.4-3.2c1.3-1,2.4-1.5,3.4-1.5H121z M117,59v0.3c0.1-0.1,0.2-0.2,0.3-0.2
			c0-0.1-0.1-0.2-0.2-0.2H117z M117.1,57.9L117.1,57.9l0.2,0.1v-0.1H117.1z M117.3,49.1L117.3,49.1c0,0.2,0.1,0.3,0.2,0.3h0.2v-0.2
			L117.3,49.1z M117.5,51.7L117.5,51.7c0,0.2,0.1,0.3,0.2,0.3h0.1c0.1,0,0.2-0.1,0.2-0.2l-0.2-0.1H117.5z M117.5,53.9L117.5,53.9
			l0.2,0.1v-0.1H117.5z M117.5,61.6h0.2v-0.2h-0.1C117.5,61.4,117.5,61.5,117.5,61.6z M117.5,61.7v0.2h0.1L117.5,61.7L117.5,61.7z
			 M117.6,60.2L117.6,60.2c0,0.5,0.1,0.7,0.2,0.7c0.1-0.1,0.2-0.1,0.3-0.1v-0.1C117.7,60.5,117.6,60.4,117.6,60.2L117.6,60.2z
			 M117.6,53.1L117.6,53.1l0.2,0.1v-0.1H117.6z M117.8,55.3L117.8,55.3c0.1,0.1,0.2,0,0.2-0.1v-0.1
			C117.9,55.2,117.8,55.2,117.8,55.3z M118,50L118,50L118,50c0.2,0.1,0.2,0,0.3-0.2h-0.2C118,49.8,118,49.9,118,50z M118,50.3v0.2
			h0.1L118,50.3L118,50.3z M118,56.6v0.2h0.1L118,56.6L118,56.6z M118,58.6L118,58.6l0.3,0.1v-0.2h-0.1
			C118.1,58.6,118,58.6,118,58.6z M118.1,59.1l-0.1,0.2c0.1,0.2,0.2,0.3,0.2,0.4h0.1v-0.4C118.2,59.2,118.2,59.1,118.1,59.1z
			 M118,59.9v0.2h0.1L118,59.9L118,59.9z M118.1,48c0,0.1,0.1,0.2,0.2,0.2h0.2V48H118.1z M118.3,63.9c-0.2,0.2-0.2,0.4-0.2,0.5h0.1
			c0.3,0,0.4-0.1,0.4-0.2C118.6,64.1,118.5,64,118.3,63.9z M118.1,62.9v0.4h0.2v-0.1C118.3,63.1,118.2,62.9,118.1,62.9L118.1,62.9z
			 M118.2,51.1v0.2h0.1L118.2,51.1L118.2,51.1z M118.4,53.4v0.2h0.1L118.4,53.4L118.4,53.4z M118.4,64.9L118.4,64.9l0.3,0.1v-0.1
			H118.4z M118.7,48.1L118.7,48.1l0.2,0.1v-0.1H118.7z M119.1,46.7L119.1,46.7l0.2,0.1v-0.1H119.1z M119.1,64.7v0.3l0.3,0.1l0.1-0.2
			C119.5,64.8,119.4,64.8,119.1,64.7z M119.6,50v12.5c0.2,1.1,0.7,1.6,1.4,1.6h0.1c0.4,0,0.8-0.3,1.2-1c0.1-1.6,0.1-2.9,0.1-3.9
			c0-0.3,0-0.5-0.1-0.8c0.1-0.3,0.1-0.6,0.1-1v-0.1c0-0.5,0-1-0.1-1.6c0.1-0.3,0.2-0.5,0.2-0.6c-0.1-0.4-0.2-0.7-0.2-1
			c0-0.5,0-1.4,0.1-2.8c0,0,0-0.2-0.1-0.5c0.1-0.3,0.1-0.6,0.1-1v-0.1c0-0.6-0.5-0.9-1.5-1.2C120,48.4,119.6,48.9,119.6,50z
			 M119.7,65.9v0.2h0.1L119.7,65.9L119.7,65.9z M120.1,64.7L120.1,64.7c0,0.2,0.1,0.2,0.2,0.3v-0.3H120.1z M120.4,46.5v0.2
			c0.1,0,0.1,0,0.3,0.1v-0.2C120.6,46.6,120.5,46.5,120.4,46.5z M120.5,65.5l-0.1,0.4h0.3c0-0.1,0.1-0.2,0.2-0.3l-0.2-0.1H120.5z
			 M121.4,46.8V47h0.1L121.4,46.8L121.4,46.8z M121.4,47.1v0.2h0.2v-0.2H121.4z M121.6,65.6L121.6,65.6l0.3,0.1v-0.1H121.6z
			 M122,46.4L122,46.4c0,0.2,0.1,0.3,0.2,0.3h0.3v-0.1c0-0.1-0.1-0.2-0.2-0.2H122z M122.3,65.3l0.3,0.2h0.2v-0.2h0.1
			c0,0,0.1,0,0.1,0.1c0.1-0.1,0.2-0.1,0.3-0.1v-0.2c-0.1,0-0.2-0.1-0.3-0.2C122.5,65.1,122.3,65.2,122.3,65.3z M122.5,64.6v0.2h0.1
			L122.5,64.6L122.5,64.6z M122.8,64.3h0.2V64C123,64,122.9,64.1,122.8,64.3z M123.2,64.5v0.2c0.1,0,0.2-0.1,0.2-0.2H123.2z
			 M123.6,62.9L123.6,62.9l0.2,0.1v-0.1H123.6z M123.7,61.2c0,0.1,0.1,0.2,0.2,0.2V61C123.7,61,123.7,61.1,123.7,61.2z M123.8,50.4
			v0.2h0.1L123.8,50.4L123.8,50.4z M123.8,59.4L123.8,59.4l0.2,0.1v-0.1H123.8z M124,53.6L124,53.6l0.2,0.1v-0.1H124z M124.3,48.3
			c0,0.1,0,0.1-0.1,0.2c0.1,0.2,0.2,0.3,0.3,0.3v-0.4C124.4,48.3,124.4,48.3,124.3,48.3z M124.2,56.8V57h0.2v-0.2H124.2z
			 M124.3,61.1v0.2h0.1L124.3,61.1L124.3,61.1z M124.3,56L124.3,56c0.1,0.2,0.1,0.3,0.1,0.3h0.1V56H124.3z M124.4,61.2v0.3
			c0.1,0,0.2-0.1,0.2-0.2C124.6,61.3,124.5,61.2,124.4,61.2z M124.4,62.2v0.2l0.4-0.1v-0.2C124.7,62.2,124.6,62.2,124.4,62.2z
			 M124.5,55.3v0.2h0.2v-0.1C124.7,55.4,124.6,55.3,124.5,55.3z M124.5,56.8V57h0.2v-0.1C124.7,56.8,124.6,56.8,124.5,56.8z
			 M124.6,51.3L124.6,51.3l0.2,0.1v-0.1H124.6z M124.6,59.2c0.1,0,0.2,0.1,0.2,0.3h0.1c0.1,0,0.2-0.1,0.2-0.2v-0.1
			c0-0.1-0.1-0.2-0.2-0.2h-0.1C124.6,59.1,124.6,59.1,124.6,59.2z M124.8,55.1v0.2h0.1L124.8,55.1L124.8,55.1z M124.8,62.7
			c0,0.1,0.1,0.2,0.2,0.2v-0.2H124.8z"/>
		<path class="st1" d="M131,44.6c0.3,0,1,0.1,2.1,0.2c0.3,0,0.7-0.1,1.2-0.1h0.4c1,0.1,1.8,0.3,2.4,0.7c1.6,1.1,2.5,2.6,2.5,4.5
			v12.5c0,2.7-1.4,4.4-4.1,5.3c-0.6,0.1-1,0.1-1.3,0.1h-3.9c-0.6,0-0.9-0.4-1-1.3c0-0.3,0-0.6,0.1-0.9c-0.1-0.8-0.1-1.6-0.1-2.3
			v-0.1c0-0.3,0-0.8,0.1-1.4l-0.1-0.2l0.1-0.4c0-0.4,0-0.7-0.1-0.9c0.1-0.8,0.1-1.4,0.1-1.9V58c0-0.6,0-1.2-0.1-1.9
			c0.1-0.3,0.1-0.6,0.1-1c0-0.1,0-0.1-0.1-0.2c0-0.1,0-0.1,0.1-0.3c-0.1-1.7-0.1-2.9-0.1-3.4l0.1-2.7l-0.1-0.2l0.1-0.5v-1.1
			c0-0.2,0-0.5-0.1-0.8C129.2,45.1,129.8,44.6,131,44.6z M130.9,50.8l-0.1,0.2c0,0.1,0.1,0.2,0.2,0.2l0.1-0.2
			C131.1,50.8,131,50.8,130.9,50.8z M130.8,56.4c0,0.3,0.1,0.5,0.4,0.7v-0.3C131.2,56.9,131.1,56.7,130.8,56.4L130.8,56.4z
			 M130.9,53.5L130.9,53.5L130.9,53.5c0.3,0,0.4-0.2,0.4-0.6h-0.1C131.2,52.9,131.1,53.1,130.9,53.5z M130.9,62.3v0.4
			c0.1,0,0.2-0.1,0.2-0.2C131,62.4,131,62.3,130.9,62.3L130.9,62.3z M131,47.2c0.2,0.4,0.5,0.6,0.8,0.6v-0.1
			c-0.3-0.3-0.4-0.5-0.4-0.6C131.2,47.2,131.1,47.2,131,47.2z M131,54v0.2c0,0.1,0.1,0.2,0.2,0.2l0.1-0.2
			C131.3,54.1,131.2,54,131,54L131,54z M131,60.5v0.2h0.1L131,60.5L131,60.5z M131.3,56.3c0,0.1,0.1,0.2,0.4,0.2v-0.1
			c0-0.1-0.1-0.2-0.2-0.2H131.3z M131.3,63.2L131.3,63.2l0.2,0.1c0.1,0,0.2-0.1,0.2-0.2V63h-0.1C131.4,63,131.3,63,131.3,63.2z
			 M131.3,47.9v0.2h0.1L131.3,47.9L131.3,47.9z M131.3,58L131.3,58c0.2,0,0.3-0.1,0.3-0.2h-0.1C131.4,57.8,131.3,57.9,131.3,58z
			 M131.6,51v0.2h0.1L131.6,51L131.6,51z M131.6,51.4v0.3c0.1,0,0.2-0.1,0.2-0.2C131.8,51.4,131.7,51.4,131.6,51.4z M131.8,66.1v0.2
			h0.1L131.8,66.1L131.8,66.1z M131.8,46.6v0.2c0,0.1,0.1,0.2,0.2,0.2h0.1c0-0.1,0-0.2,0.1-0.3H131.8z M131.8,48v0.2h0.1L131.8,48
			L131.8,48z M131.8,48.3v0.6h0.1l0.3-0.2c0,0.1,0,0.1,0.1,0.1v-0.4L131.8,48.3z M131.8,64.9L131.8,64.9c0,0.2,0.1,0.3,0.3,0.3
			c0.3-0.1,0.4-0.1,0.4-0.2v-0.2L131.8,64.9z M132.2,47.1c0,0.1-0.1,0.2-0.2,0.3c0,0.1,0.1,0.2,0.2,0.2h0.2v-0.5H132.2z M132,63.8
			c0,0.1,0.1,0.2,0.2,0.2v-0.2H132z M132,64.4L132,64.4l0.2,0.1v-0.1H132z M132.3,66L132.3,66l0.2,0.1V66H132.3z M132.8,65.3v0.3
			c0.1,0,0.2-0.1,0.2-0.2v-0.1H132.8z M132.9,65.8c0,0.1,0.1,0.2,0.2,0.2v-0.2H132.9z M133.1,47.4v0.2h0.2v-0.1
			C133.3,47.5,133.2,47.4,133.1,47.4z M133.1,48.4v15.4c0.4,0.1,0.7,0.2,0.8,0.2h0.7c0.5,0,0.9-0.4,1.1-1.2V62l0.1-0.5
			c0,0,0-0.1-0.1-0.1l0.1-0.8c0-0.3,0-1.6-0.1-3.9c0-0.2,0-1,0.1-2.5l-0.1-0.8c0.1-0.3,0.1-0.8,0.1-1.3c0-0.1,0-0.1-0.1-0.2
			c0-0.1,0.1-0.4,0.2-0.9c0-1.7-0.6-2.6-1.7-2.6H133.1z M133.6,65.5L133.6,65.5l0.3,0.1v-0.1H133.6z M134.6,64.8
			c0,0.1,0.1,0.2,0.2,0.2v-0.2H134.6z M134.6,65.1L134.6,65.1l0.2,0.1v-0.1H134.6z M135.1,66.1L135.1,66.1c0,0.2,0.1,0.2,0.2,0.2
			h0.1v-0.2H135.1z M135.3,46.9L135.3,46.9l0.2,0.1v-0.1H135.3z M136.1,65.2v0.3c0,0.1,0.1,0.2,0.2,0.2c0.1,0,0.2-0.1,0.2-0.2
			C136.5,65.4,136.4,65.3,136.1,65.2z M136.2,47c0.1,0.1,0.1,0.2,0.1,0.2h0.2c0-0.1-0.1-0.2-0.1-0.2H136.2z M136.8,49.7
			c0,0.1,0.1,0.2,0.2,0.2h0.3v-0.1c-0.2,0-0.3-0.1-0.3-0.3C136.9,49.5,136.8,49.6,136.8,49.7z M137.1,48.5v0.3
			c0.1,0,0.2-0.1,0.3-0.3v-0.1C137.2,48.5,137.1,48.5,137.1,48.5z M137.2,63v0.4h0.2V63H137.2z M137.4,57l-0.1,0.4
			c0.1,0,0.2,0.1,0.2,0.3h0.3v-0.4C137.8,57.2,137.7,57.1,137.4,57L137.4,57z M137.4,62.2c0,0.1,0.1,0.2,0.2,0.2v-0.2H137.4z
			 M137.5,52.8L137.5,52.8l0.2,0.1v-0.1H137.5z M137.7,49.3v0.2h0.2v-0.2H137.7z M137.8,49.9L137.8,49.9l0.2,0.1v-0.1H137.8z
			 M137.8,54.1L137.8,54.1c0.1,0.1,0.2,0.1,0.3,0.2h0.1v-0.1c-0.1,0-0.1,0-0.3-0.1H137.8z M138.1,50.6L138.1,50.6l0.3,0.1v-0.1
			H138.1z"/>
		<path class="st1" d="M147.4,44.6c2.5,0,4.1,1.3,4.9,3.8c0.1,0.6,0.2,1.3,0.2,2.1v11c0,2.8-1,4.7-3,5.7c-0.8,0.3-1.6,0.5-2.4,0.5
			c-1.2,0-2.4-0.5-3.6-1.5c-1-1.2-1.4-2.4-1.4-3.4c0.1-1.4,0.1-2.3,0.1-2.5c0-0.2,0-0.7-0.1-1.4c0,0,0-0.2,0.1-0.5
			c-0.1-0.5-0.1-0.8-0.1-0.9c0.1-1.4,0.1-2.3,0.1-2.6l-0.1-0.2c0.1-0.1,0.1-0.2,0.1-0.3v-0.3c0-0.5,0-0.8-0.1-1
			c0.1-0.5,0.1-0.9,0.1-1.3v-2.3c0-0.9,0.5-2,1.4-3.2c1.3-1,2.4-1.5,3.4-1.5H147.4z M143.4,59v0.3c0.1-0.1,0.2-0.2,0.3-0.2
			c0-0.1-0.1-0.2-0.2-0.2H143.4z M143.5,57.9L143.5,57.9l0.2,0.1v-0.1H143.5z M143.7,49.1L143.7,49.1c0,0.2,0.1,0.3,0.2,0.3h0.2
			v-0.2L143.7,49.1z M143.9,51.7L143.9,51.7c0,0.2,0.1,0.3,0.2,0.3h0.1c0.1,0,0.2-0.1,0.2-0.2l-0.2-0.1H143.9z M143.9,53.9
			L143.9,53.9L144,54v-0.1H143.9z M143.9,61.6h0.2v-0.2H144C143.9,61.4,143.9,61.5,143.9,61.6z M143.9,61.7v0.2h0.1L143.9,61.7
			L143.9,61.7z M143.9,60.2L143.9,60.2c0,0.5,0.1,0.7,0.2,0.7c0.1-0.1,0.2-0.1,0.3-0.1v-0.1C144.1,60.5,144,60.4,143.9,60.2
			L143.9,60.2z M144,53.1L144,53.1l0.2,0.1v-0.1H144z M144.2,55.3L144.2,55.3c0.1,0.1,0.2,0,0.2-0.1v-0.1
			C144.3,55.2,144.2,55.2,144.2,55.3z M144.4,50L144.4,50L144.4,50c0.2,0.1,0.2,0,0.3-0.2h-0.2C144.4,49.8,144.4,49.9,144.4,50z
			 M144.4,50.3v0.2h0.1L144.4,50.3L144.4,50.3z M144.4,56.6v0.2h0.1L144.4,56.6L144.4,56.6z M144.4,58.6L144.4,58.6l0.3,0.1v-0.2
			h-0.1C144.5,58.6,144.4,58.6,144.4,58.6z M144.5,59.1l-0.1,0.2c0.1,0.2,0.2,0.3,0.2,0.4h0.1v-0.4
			C144.6,59.2,144.6,59.1,144.5,59.1z M144.4,59.9v0.2h0.1L144.4,59.9L144.4,59.9z M144.5,48c0,0.1,0.1,0.2,0.2,0.2h0.2V48H144.5z
			 M144.7,63.9c-0.2,0.2-0.2,0.4-0.2,0.5h0.1c0.3,0,0.4-0.1,0.4-0.2C145,64.1,144.9,64,144.7,63.9z M144.5,62.9v0.4h0.2v-0.1
			C144.7,63.1,144.6,62.9,144.5,62.9L144.5,62.9z M144.6,51.1v0.2h0.1L144.6,51.1L144.6,51.1z M144.8,53.4v0.2h0.1L144.8,53.4
			L144.8,53.4z M144.8,64.9L144.8,64.9l0.3,0.1v-0.1H144.8z M145.1,48.1L145.1,48.1l0.2,0.1v-0.1H145.1z M145.5,46.7L145.5,46.7
			l0.2,0.1v-0.1H145.5z M145.5,64.7v0.3l0.3,0.1l0.1-0.2C145.9,64.8,145.8,64.8,145.5,64.7z M146,50v12.5c0.2,1.1,0.7,1.6,1.4,1.6
			h0.1c0.4,0,0.8-0.3,1.2-1c0.1-1.6,0.1-2.9,0.1-3.9c0-0.3,0-0.5-0.1-0.8c0.1-0.3,0.1-0.6,0.1-1v-0.1c0-0.5,0-1-0.1-1.6
			c0.1-0.3,0.2-0.5,0.2-0.6c-0.1-0.4-0.2-0.7-0.2-1c0-0.5,0-1.4,0.1-2.8c0,0,0-0.2-0.1-0.5c0.1-0.3,0.1-0.6,0.1-1v-0.1
			c0-0.6-0.5-0.9-1.5-1.2C146.4,48.4,146,48.9,146,50z M146.1,65.9v0.2h0.1L146.1,65.9L146.1,65.9z M146.5,64.7L146.5,64.7
			c0,0.2,0.1,0.2,0.2,0.3v-0.3H146.5z M146.8,46.5v0.2c0.1,0,0.1,0,0.3,0.1v-0.2C147,46.6,146.9,46.5,146.8,46.5z M146.9,65.5
			l-0.1,0.4h0.3c0-0.1,0.1-0.2,0.2-0.3l-0.2-0.1H146.9z M147.8,46.8V47h0.1L147.8,46.8L147.8,46.8z M147.8,47.1v0.2h0.2v-0.2H147.8z
			 M148,65.6L148,65.6l0.3,0.1v-0.1H148z M148.4,46.4L148.4,46.4c0,0.2,0.1,0.3,0.2,0.3h0.3v-0.1c0-0.1-0.1-0.2-0.2-0.2H148.4z
			 M148.7,65.3l0.3,0.2h0.2v-0.2h0.1c0,0,0.1,0,0.1,0.1c0.1-0.1,0.2-0.1,0.3-0.1v-0.2c-0.1,0-0.2-0.1-0.3-0.2
			C148.9,65.1,148.7,65.2,148.7,65.3z M148.9,64.6v0.2h0.1L148.9,64.6L148.9,64.6z M149.2,64.3h0.2V64
			C149.4,64,149.3,64.1,149.2,64.3z M149.6,64.5v0.2c0.1,0,0.2-0.1,0.2-0.2H149.6z M150,62.9L150,62.9l0.2,0.1v-0.1H150z
			 M150.1,61.2c0,0.1,0.1,0.2,0.2,0.2V61C150.1,61,150.1,61.1,150.1,61.2z M150.2,50.4v0.2h0.1L150.2,50.4L150.2,50.4z M150.2,59.4
			L150.2,59.4l0.2,0.1v-0.1H150.2z M150.4,53.6L150.4,53.6l0.2,0.1v-0.1H150.4z M150.6,48.3c0,0.1,0,0.1-0.1,0.2
			c0.1,0.2,0.2,0.3,0.3,0.3v-0.4C150.8,48.3,150.8,48.3,150.6,48.3z M150.6,56.8V57h0.2v-0.2H150.6z M150.6,61.1v0.2h0.1L150.6,61.1
			L150.6,61.1z M150.7,56L150.7,56c0.1,0.2,0.1,0.3,0.1,0.3h0.1V56H150.7z M150.8,61.2v0.3c0.1,0,0.2-0.1,0.2-0.2
			C151,61.3,150.9,61.2,150.8,61.2z M150.8,62.2v0.2l0.4-0.1v-0.2C151.1,62.2,151,62.2,150.8,62.2z M150.9,55.3v0.2h0.2v-0.1
			C151.1,55.4,151,55.3,150.9,55.3z M150.9,56.8V57h0.2v-0.1C151.1,56.8,151,56.8,150.9,56.8z M151,51.3L151,51.3l0.2,0.1v-0.1H151z
			 M151,59.2c0.1,0,0.2,0.1,0.2,0.3h0.1c0.1,0,0.2-0.1,0.2-0.2v-0.1c0-0.1-0.1-0.2-0.2-0.2h-0.1C151,59.1,151,59.1,151,59.2z
			 M151.2,55.1v0.2h0.1L151.2,55.1L151.2,55.1z M151.2,62.7c0,0.1,0.1,0.2,0.2,0.2v-0.2H151.2z"/>
		<path class="st1" d="M162.3,44.6h1.4c0.4,0,0.6,0,0.7,0.1c0.4-0.1,0.7-0.1,0.9-0.1h3.1c0.7,0,1.1,0.3,1.1,0.8v1.9
			c-0.1,0.7-0.4,1.1-0.9,1.1h-3.5v5.8c2.1,0.1,3.2,0.4,3.2,0.8v2.3c0,0.6-0.5,0.9-1.4,0.9h-1.9v5.7c0.4,0.2,0.6,0.2,0.8,0.2h1.3
			c0.3,0,0.7,0,1.2-0.1c0.7,0.1,1,0.4,1,0.9v1.6c0,0.9-0.4,1.4-0.9,1.4h-6.4c-0.4,0-0.7-0.3-0.8-0.9v-0.8c0-0.4,0-0.7,0.1-1.1
			c-0.1-0.2-0.1-0.4-0.1-0.7c0,0,0-0.2,0.1-0.5l-0.1-0.2l0.1-0.3c0-0.1,0-0.4-0.1-0.9c0.1-0.7,0.1-1.1,0.1-1.1c0-0.1,0-0.4-0.1-0.7
			c0.1-0.7,0.1-1.3,0.1-1.9v-0.4c0-0.3,0-0.6-0.1-0.8c0.1-0.3,0.1-0.6,0.1-0.8v-0.6c0-0.4,0-0.8-0.1-1.2c0.1-0.3,0.1-0.6,0.1-1.1
			v-0.2c0-0.1,0-0.2-0.1-0.3c0.1-0.1,0.1-0.2,0.1-0.2c0-0.4,0-0.7-0.1-1c0.1-0.8,0.1-1.6,0.1-2.3c0-0.3,0-0.7-0.1-1.3
			c0.1-0.1,0.1-0.4,0.2-0.8c0-0.3-0.1-0.5-0.2-0.5l0.1-0.5l-0.1-1.2C161.6,44.9,161.9,44.6,162.3,44.6z M162.6,47.8
			c0,0.1,0.1,0.2,0.2,0.2v-0.3C162.6,47.6,162.6,47.7,162.6,47.8z M162.7,58.5v0.4h0.2C162.8,58.7,162.7,58.5,162.7,58.5L162.7,58.5
			z M163,54.2v0.2h0.1c0.1,0,0.2-0.1,0.2-0.2H163z M163.1,63.7l-0.1,0.2l0.2,0.1l0.1-0.2L163.1,63.7z M163,64.8V65
			c0,0.1,0.1,0.2,0.2,0.2l0.2-0.3H163z M163.1,56.5c0.1,0,0.3,0.1,0.8,0.2v-0.2c-0.3,0-0.5-0.1-0.5-0.3h-0.1
			C163.1,56.1,163.1,56.2,163.1,56.5z M163.2,51.7L163.2,51.7l0.2,0.1v-0.1H163.2z M163.2,60.1v0.3h0.2v-0.1
			C163.3,60.2,163.3,60.1,163.2,60.1z M163.2,61v0.4h0.2v-0.2C163.3,61.1,163.3,61,163.2,61z M163.2,51.9v0.2h0.1L163.2,51.9
			L163.2,51.9z M163.3,58.5v0.3c0.1,0,0.2-0.1,0.2-0.2v-0.2H163.3z M163.3,63.7v0.2h0.2v-0.2H163.3z M163.4,47.5L163.4,47.5
			c0,0.2,0.1,0.3,0.3,0.4l0.2-0.3v-0.2L163.4,47.5z M163.6,49.7v0.2h0.2v-0.3C163.6,49.6,163.6,49.6,163.6,49.7z M164,55.4
			c0-0.1-0.1-0.2-0.2-0.2h-0.1c-0.1,0-0.2,0.1-0.2,0.2c0,0.1,0.2,0.2,0.5,0.4h0.1c0.3-0.2,0.5-0.3,0.5-0.3v-0.2
			c0-0.1-0.1-0.2-0.2-0.2C164.3,55.3,164.1,55.4,164,55.4z M163.8,57.4c0,0.1-0.1,0.3-0.2,0.4l0.3,0.1l0.1-0.2
			c-0.1-0.1-0.1-0.2-0.1-0.3H163.8z M163.7,46.5v0.2h0.4v-0.3C164,46.5,163.9,46.5,163.7,46.5z M163.8,48.6v0.2
			c0.1,0,0.2-0.1,0.2-0.2H163.8z M163.8,52.3v0.2h0.3v-0.2H163.8z M163.8,65.2v0.2h0.1L163.8,65.2L163.8,65.2z M164,46.3h0.2
			c0.1,0,0.2-0.1,0.2-0.2h-0.2C164.1,46.2,164,46.2,164,46.3z M164,56.3v0.2h0.3v-0.1L164,56.3z M164,57.4L164,57.4l0.2,0.1v-0.1
			H164z M164.1,58.5v0.2h0.1L164.1,58.5L164.1,58.5z M164.1,65.1c0,0.3,0.1,0.5,0.4,0.7l0.1-0.4v-0.1c-0.1,0-0.2-0.1-0.3-0.2H164.1z
			 M164.2,46.7v0.3h0.2c0.1,0,0.2-0.1,0.2-0.2l-0.2-0.1H164.2z M164.2,64.6L164.2,64.6l0.2,0.1v-0.1H164.2z M164.3,47.3L164.3,47.3
			l0.3,0.1v-0.1H164.3z M164.3,57.3v0.2h0.1L164.3,57.3L164.3,57.3z M164.6,65.8c-0.1,0.2-0.2,0.3-0.2,0.4l0.2,0.1
			c0.1,0,0.2-0.1,0.2-0.3C164.9,66,164.8,65.9,164.6,65.8z M164.8,55.8V56h0.2c0.1,0,0.2-0.1,0.2-0.2c0-0.1-0.1-0.2-0.2-0.2h-0.1
			C164.8,55.7,164.8,55.7,164.8,55.8z M164.9,64.9v0.2h0.1L164.9,64.9L164.9,64.9z M164.9,65.1v0.2h0.1L164.9,65.1L164.9,65.1z
			 M165.2,47L165.2,47c0,0.2,0.1,0.3,0.2,0.3v-0.2C165.4,47,165.4,47,165.2,47L165.2,47z M165.3,56.1L165.3,56.1
			c0,0.2,0.1,0.3,0.2,0.3c0.1-0.1,0.3-0.2,0.3-0.2v-0.3C165.6,56,165.4,56.1,165.3,56.1z M165.4,65.3v0.3c0.1,0,0.2-0.1,0.3-0.3
			L165.4,65.3L165.4,65.3z M165.6,56.6v0.2h0.2v-0.2H165.6z M165.7,46.7h0.2v-0.2C165.8,46.5,165.7,46.6,165.7,46.7z M165.7,56.2
			v0.2h0.1L165.7,56.2L165.7,56.2z M166,66.1v0.2h0.1L166,66.1L166,66.1z M166.2,47l-0.1,0.2v0.1h0.3v-0.1
			C166.4,47,166.3,47,166.2,47z M166.2,56.9h0.2v-0.2C166.3,56.8,166.2,56.8,166.2,56.9z M166.3,46.6v0.2h0.1L166.3,46.6L166.3,46.6
			z M166.5,65.9L166.5,65.9l0.2,0.1v-0.1H166.5z"/>
		<path class="st1" d="M173.3,44.6h0.2c0.3,0,0.7,0,1.2,0.1c0.1-0.1,0.2-0.1,0.3-0.1c0.6,0.1,0.9,0.4,0.9,0.9v18.3
			c0.1,0,0.3,0.1,0.7,0.2c0.1,0,0.1,0,0.3-0.1c0.6,0.1,1,0.1,1.3,0.1l1.4-0.1c0.5,0.1,0.8,0.4,0.8,0.8v2c-0.1,0.6-0.4,0.9-0.9,0.9
			h-6.3c-0.6,0-0.8-0.5-0.8-1.4c0-0.5,0-1,0.1-1.4l-0.1-0.8c0,0,0-0.7,0.1-2c0-0.5,0-1.2-0.1-2.1c0.1-0.8,0.1-1.5,0.1-2
			c0-0.3,0-0.8-0.1-1.4c0.1-0.5,0.1-1.3,0.1-2.2c0-0.3,0-0.5-0.1-0.6c0.1-0.3,0.1-0.6,0.1-0.8V53c0-1,0-1.8-0.1-2.5
			c0.1-0.5,0.1-1.1,0.1-1.8c0-0.5-0.1-0.9-0.2-1.3c0.1-0.3,0.1-0.6,0.1-0.8v-1.1C172,45.1,172.4,44.7,173.3,44.6z M173.5,53.1
			c0,0.1,0.1,0.2,0.2,0.2h0.1v-0.4C173.7,52.9,173.6,53,173.5,53.1z M173.5,53.7L173.5,53.7l0.2,0.1v-0.1H173.5z M173.6,49.4v0.2
			h0.1L173.6,49.4L173.6,49.4z M173.6,63.6L173.6,63.6c0.2,0.1,0.3,0.2,0.3,0.3h0.1c0.1,0,0.2-0.1,0.2-0.2c-0.1-0.1-0.2-0.2-0.3-0.2
			C173.8,63.6,173.7,63.6,173.6,63.6z M173.9,57.3v0.2h0.1c0.1,0,0.2-0.1,0.2-0.2v-0.1H173.9z M174,58.7l-0.1,0.2v0.2h0.2
			c0.1,0,0.2-0.1,0.2-0.2L174,58.7z M174,60.7L174,60.7l0.2,0.1v-0.1H174z M174.2,63.1c0,0.1,0.1,0.2,0.2,0.2v-0.2H174.2z
			 M174.3,47.6v0.3h0.1L174.3,47.6L174.3,47.6z M174.3,64.7v0.2c0.3,0,0.5-0.1,0.5-0.2v-0.1h-0.3C174.3,64.6,174.3,64.6,174.3,64.7z
			 M174.5,65.2L174.5,65.2l0.2,0.1v-0.1H174.5z M175.3,65.2c0,0.1-0.2,0.2-0.5,0.3v0.1h0.5C175.3,65.5,175.3,65.4,175.3,65.2
			L175.3,65.2L175.3,65.2z M175,64.2l-0.1,0.4l0.2,0.1h0.1v-0.1L175,64.2L175,64.2z M175.8,64.7v0.2h0.1L175.8,64.7L175.8,64.7z
			 M175.8,64.9L175.8,64.9L176,65v-0.1H175.8z M176.1,65.7L176.1,65.7l0.2,0.1v-0.1H176.1z M176.2,65.8V66h0.1L176.2,65.8
			L176.2,65.8z"/>
		<path class="st1" d="M193.5,44.5c1.2,0,1.9,0.6,1.9,1.8c2.9,13.3,4.4,20.2,4.4,20.6c0,0.5-0.3,0.8-1,0.8h-2c-0.5,0-0.9-0.6-1-1.7
			c-0.2-0.1-0.3-0.2-0.3-0.5h-4.6c-0.2,1.5-0.6,2.2-1.2,2.2h-2.2c-0.3,0-0.6-0.3-0.8-0.8l1.1-4.6c0-0.3,0.3-1.9,1-4.8
			c0-0.4,0.1-1.2,0.4-2.2l2.1-9.6c0.2-0.7,0.6-1,1-1C192.3,44.6,192.7,44.6,193.5,44.5z M188.6,65.2v0.4h0.2L188.6,65.2L188.6,65.2z
			 M188.8,63.5v0.2c0.1,0,0.2-0.1,0.2-0.2H188.8z M189,62.7v0.2h0.1L189,62.7L189,62.7z M189,64L189,64l0.2,0.1V64H189z M189.3,64.2
			c0.1,0.4,0.2,0.6,0.2,0.7h0.2v-0.1l-0.1-0.6H189.3z M189.5,60.3L189.5,60.3c0,0.2,0.1,0.2,0.2,0.2h0.1v-0.2H189.5z M189.6,61.1
			v0.2h0.2v-0.2H189.6z M189.6,65v0.2h0.1L189.6,65L189.6,65z M189.8,63.5c0,0.1,0.1,0.2,0.2,0.2h0.2v-0.4
			C189.9,63.4,189.8,63.5,189.8,63.5z M189.8,63.9v0.2c0.1,0,0.2,0.1,0.3,0.2l-0.1,0.2v0.1h0.2v-0.1c-0.1-0.1-0.1-0.2-0.1-0.2h0.1
			c-0.1-0.1-0.1-0.2-0.1-0.4L189.8,63.9z M189.9,62.1v0.3c0,0.1,0.1,0.2,0.3,0.3h0.1v-0.4C190.1,62.3,190,62.2,189.9,62.1z
			 M190.2,62.8c0,0.1,0.1,0.2,0.2,0.2c0.1,0,0.2-0.1,0.2-0.2H190.2z M190.5,62.4l0.5,0.3V63c0.1,0,0.2-0.2,0.2-0.6l-0.2-0.1
			C190.9,62.4,190.7,62.4,190.5,62.4z M190.6,63.4l0.1,0.4h0.1c0.1,0,0.2-0.1,0.2-0.2v-0.1c0-0.1-0.1-0.2-0.2-0.2H190.6z
			 M190.7,59.1v0.2h0.1L190.7,59.1L190.7,59.1z M190.7,61.4v0.2h0.1L190.7,61.4L190.7,61.4z M190.7,61.8L190.7,61.8l0.2,0.1v-0.1
			H190.7z M191,56.4L191,56.4c0.1,0.1,0.2,0,0.2-0.1v-0.1C191,56.2,191,56.3,191,56.4z M191.2,56.9h0.2v-0.2
			C191.3,56.7,191.2,56.8,191.2,56.9z M191.2,63.5h0.3v-0.2h-0.1C191.3,63.3,191.2,63.4,191.2,63.5z M191.3,57.9L191.3,57.9l0.2,0.1
			v-0.1H191.3z M191.4,53.7L191.4,53.7l0.2,0.1v-0.1H191.4z M191.6,53.9v0.2l0.3,0.3v0.1c0,0,0,0.1-0.1,0.1l0.1,0.2
			c-0.1,0.2-0.1,0.4-0.1,0.6c0.2-0.1,0.4-0.2,0.5-0.2v-0.8c-0.2-0.3-0.4-0.5-0.4-0.5H191.6z M191.7,51.2c0,0.1,0.1,0.2,0.2,0.2h0.2
			c0-0.1,0-0.2,0.1-0.2c0-0.1-0.1-0.2-0.1-0.3C191.8,51,191.7,51.1,191.7,51.2z M191.7,55.9V56h0.3c0-0.1-0.1-0.2-0.2-0.2H191.7z
			 M193.1,55.1l-1.4,6.6h0.1l0.8,0.2h0.1c0.3,0,1-0.1,1.9-0.2v-0.8c-0.6-3-1-4.7-1.2-5.1C193.4,55.3,193.3,55.1,193.1,55.1
			L193.1,55.1z M191.7,63.5V64h0.3v-0.1C191.9,63.7,191.8,63.5,191.7,63.5z M191.8,56.2L191.8,56.2l0.2,0.1v-0.1H191.8z M191.9,51.8
			V52h0.1L191.9,51.8L191.9,51.8z M192.1,53.4v0.2c0.1,0,0.2-0.1,0.2-0.2L192.1,53.4z M192.3,48.4c0.1,0,0.2,0.1,0.3,0.1l0.3-0.2
			l0.5,0.1h0.2c0.1,0,0.2-0.1,0.2-0.2v-0.1c0-0.1-0.1-0.2-0.2-0.2H193c0,0.2-0.1,0.2-0.2,0.2l-0.1-0.2c0.1,0,0.1,0,0.1-0.1
			C192.5,48,192.3,48.1,192.3,48.4z M193.4,50.1c0,0.1-0.2,0.4-0.7,0.7V51c0.2,0,0.3,0.2,0.5,0.7c0.2,0,0.3,0.1,0.3,0.2v0.3
			c-0.1,0-0.3,0.1-0.4,0.2h-0.2v-0.2l0.2-0.3v-0.2h-0.3c-0.1,0-0.2,0.1-0.2,0.2v0.2l0.1,0.2c-0.1,0.1-0.2,0.1-0.3,0.1l0.2,0.3
			c0,0.1,0,0.1-0.1,0.1c0,0,0,0.1,0.1,0.1l-0.1,0.4v0.2c0,0.1,0.1,0.2,0.2,0.2c0-0.1,0-0.1,0.1-0.1l0.2,0.2c0.1,0,0.2-0.1,0.4-0.1
			v-0.2c-0.3,0-0.4-0.2-0.4-0.5c0-0.1,0.3-0.2,0.8-0.4c0.3,0,0.5,0.2,0.7,0.7h0.1V53h0.2l-0.1,0.2h0.4v-0.1l-0.2-0.3l0.1-0.6
			l-0.2-0.1l-0.3,0.3c-0.1,0-0.2-0.1-0.2-0.2v-0.2l0.2-0.3v-0.1c-0.5,0-0.7-0.3-0.7-0.8l-0.2,0.1h-0.1c-0.1,0-0.2-0.1-0.2-0.2
			c0.3-0.2,0.5-0.3,0.7-0.3l-0.1-0.2h0.2c0.1,0,0.2,0.1,0.2,0.3v0.2h-0.2v0.3c0.2,0.4,0.4,0.6,0.8,0.6v-0.3
			c-0.3-0.1-0.4-0.2-0.4-0.3c0-0.1,0-0.3,0.1-0.8h-0.2C193.9,50.1,193.6,50.1,193.4,50.1z M192.3,63.9v0.2h0.3v-0.2H192.3z
			 M192.4,47.5v0.2c0.1,0,0.2-0.1,0.2-0.2H192.4z M192.4,49.9v0.3h0.1L192.4,49.9L192.4,49.9z M192.4,51.1v0.2h0.1L192.4,51.1
			L192.4,51.1z M192.4,54h0.5c0-0.1-0.1-0.2-0.2-0.2h-0.2C192.5,53.9,192.4,53.9,192.4,54z M192.6,49.2l0.1,0.4h0.2v-0.4H192.6z
			 M193.1,49v0.4c0,0.2-0.1,0.3-0.3,0.3v0.1c0,0.1,0,0.1,0.1,0.1c-0.1,0.2-0.2,0.4-0.2,0.5h0.2c0-0.3,0.1-0.4,0.2-0.4
			c0.1,0,0.2-0.3,0.5-0.8C193.3,49.1,193.2,49,193.1,49z M193,54.4v0.2h0.1L193,54.4L193,54.4z M193.2,53.2c0.1,0,0.2,0.1,0.3,0.4
			c-0.2,0.3-0.3,0.5-0.3,0.6c0.1,0,0.1,0,0.1,0.1l0.3-0.1l0.4,0.1c0.2,0,0.4-0.1,0.8-0.3c0.1,0.1,0.2,0.1,0.3,0.1v-0.2h-0.6
			c-0.1,0-0.2-0.1-0.2-0.2l0.1-0.4h-0.2v0.1c0.1,0.1,0.1,0.2,0.1,0.2l-0.2,0.1c0-0.1,0-0.1-0.1-0.1c0,0.1,0,0.1-0.1,0.1
			c-0.1-0.2-0.3-0.4-0.4-0.4l0.1-0.2v-0.4h-0.2C193.3,52.8,193.2,53,193.2,53.2z M193.3,47.2v0.3c0.1,0,0.2-0.1,0.2-0.2L193.3,47.2
			L193.3,47.2z M193.4,54.4v0.2h0.1L193.4,54.4L193.4,54.4z M193.4,63v0.3h0.2V63H193.4z M194.2,54.9l0.1,0.2v0.1
			c0,0.2-0.1,0.3-0.3,0.3v0.2l0.2-0.1l0.2,0.1c0-0.1,0.1-0.2,0.2-0.2l0.3,0.2h0.2c0.1,0,0.2-0.1,0.3-0.3v-0.1h-0.1
			c-0.2,0.1-0.3,0.2-0.4,0.2c0-0.1-0.1-0.2-0.4-0.4H194.2z M193.9,55.7L193.9,55.7l0.3,0.1v-0.1H193.9z M194.4,63.2
			c0,0.1-0.1,0.3-0.2,0.4h0.2c0.1,0,0.2-0.1,0.2-0.3L194.4,63.2L194.4,63.2z M194.8,52.5v0.4h0.1c0-0.1,0.1-0.3,0.3-0.4H194.8z
			 M195.1,63.7v0.2c0,0.1,0.1,0.2,0.2,0.3c0-0.1,0.1-0.3,0.2-0.4l-0.1-0.4C195.4,63.3,195.3,63.4,195.1,63.7z M195.4,53.2v0.3h0.1
			L195.4,53.2L195.4,53.2z M195.4,53.7v0.2h0.1L195.4,53.7L195.4,53.7z M195.5,61.6v0.3l0.3,0.1v-0.3H195.5z M195.6,63.5
			c0,0.1,0.1,0.2,0.2,0.3v-0.3H195.6z M196,57v0.4h0.1c0-0.1,0.1-0.2,0.2-0.3L196,57L196,57z M196,64.3v0.2c0,0.1,0.1,0.2,0.2,0.2
			l0.1-0.2C196.2,64.4,196.2,64.3,196,64.3L196,64.3z M196.1,60.5v0.2c0,0.1,0.1,0.2,0.2,0.2v-0.3C196.2,60.6,196.2,60.5,196.1,60.5
			z M196.1,62.7c0.1,0.5,0.2,0.9,0.5,1.2v0.3c0,0.1-0.1,0.2-0.3,0.2v0.1l0.4,0.8h0.1c0.1,0,0.2-0.1,0.2-0.2c0-0.1-0.1-0.3-0.3-0.6
			c0-0.3,0.1-0.5,0.3-0.5v-0.8c0-0.1-0.1-0.2-0.2-0.2v0.5h-0.3c-0.1,0-0.2-0.2-0.3-0.7h-0.1l0.1-0.2v-0.1h-0.1
			C196.2,62.6,196.1,62.6,196.1,62.7z M196.3,61.8L196.3,61.8l0.2,0.1v-0.1H196.3z M196.6,57.9v0.2h0.1L196.6,57.9L196.6,57.9z
			 M196.6,59.2v0.2h0.1L196.6,59.2L196.6,59.2z M196.8,62v0.2h0.1L196.8,62L196.8,62z M196.9,65.2L196.9,65.2l0.2,0.1v-0.1H196.9z
			 M198,64.6v0.2c0.1,0,0.2-0.1,0.2-0.2H198z"/>
		<path class="st1" d="M202,44.5c0.7,0.1,1.1,0.1,1.2,0.1c0,0,0.2,0,0.5-0.1c1,0,1.5,0.5,1.7,1.4l3,8.7h0.1l0.2-0.1
			c-0.1-0.1-0.1-0.2-0.1-0.2c0,0,0-0.2,0.1-0.5l-0.1-0.2c0.1-0.3,0.2-0.6,0.2-1.1v-0.3c0-1.1,0-1.9-0.1-2.3c0-0.6,0.1-1.5,0.1-2.5
			v-0.3c0-0.5,0-1-0.1-1.6c0.2-0.7,0.6-1,1-1h1.7c0.5,0,0.8,0.2,1.1,0.6v21.8c-0.1,0.6-0.4,0.8-0.8,0.8h-2.1c-0.6,0-1.1-1-1.5-3.1
			c-0.5-1.1-1.2-3.1-2.1-5.9c-0.2,0-0.4-0.5-0.7-1.4c-0.1,0-0.2-0.1-0.2-0.3h-0.1v9.6c0,0.1,0,0.3,0.1,0.3c-0.2,0.6-0.5,0.9-0.9,0.9
			h-2.3c-0.2,0-0.4-0.3-0.7-0.8c0.1-0.6,0.1-1,0.1-1.3v-3.3l0.1-0.5c-0.1,0-0.1-0.9-0.2-2.8l0.1-0.2c0-0.1,0-0.2-0.1-0.3
			c0.1-0.9,0.1-1.7,0.1-2.2c0-0.8,0-1.6-0.1-2.4l0.2-1.7l-0.2-0.7c0.1-0.5,0.1-0.9,0.1-1.2v-0.8c0-0.1,0-0.2-0.1-0.3
			c0.1-0.1,0.1-0.2,0.1-0.3c0-0.8-0.1-2-0.2-3.4C201.1,45,201.5,44.5,202,44.5z M209.2,37.5c1.3,0.2,2,0.6,2,1.2v2
			c0,0.3-0.2,0.6-0.7,0.8H210c-0.8-0.3-1.3-0.4-1.5-0.4h-0.1c-2.1,0.4-3.4,0.6-3.9,0.6c-1.6,0-2.5-0.5-2.5-1.5c0-0.7,0-1.1-0.1-1.1
			c0.1-1,0.5-1.5,1.1-1.5c1,0.4,1.8,0.6,2.2,0.6l0.2-0.1c0.1,0.1,0.2,0.1,0.4,0.1C205.8,37.9,207,37.7,209.2,37.5z M202.4,61.6v0.2
			c0,0.1,0.1,0.2,0.2,0.2h0.1v-0.2C202.6,61.6,202.6,61.6,202.4,61.6L202.4,61.6z M202.5,55.5L202.5,55.5l0.2,0.1v-0.1H202.5z
			 M202.6,46.7L202.6,46.7l0.1,0.7h0.2c-0.1-0.2-0.2-0.4-0.2-0.7H202.6z M204.4,53.4c-0.1,0.2-0.3,0.3-0.6,0.3v0.4l-0.6,0.7h-0.1
			l-0.6-0.1v0.2c0.2,0,0.3,0.1,0.3,0.2l0.2-0.1l0.4,0.2l0.3-0.2c0.1,0,0.2,0.1,0.2,0.2v0.1c0,0.1-0.1,0.2-0.2,0.3h-0.2l-0.2-0.2
			h-0.1v0.8l0.2,0.3h-0.1c0.1,0.2,0.2,0.3,0.3,0.3c0-0.1,0-0.1,0.1-0.1l-0.1-0.4v-0.1l0.5,0.3v-0.2c0,0-0.1-0.3-0.2-0.7l0.2-0.1
			c0,0.1,0.1,0.2,0.3,0.3h0.3l-0.2-0.2v-0.1c0.3,0,0.5,0.1,0.5,0.4h0.3c0.1,0,0.2-0.2,0.2-0.7c-0.4-0.2-0.6-0.2-0.8-0.2l-0.5,0.1
			l-0.2-0.3c0.5-0.2,0.7-0.2,0.8-0.2c0.1,0.1,0.1,0.2,0.1,0.2h0.1c0-0.2,0.1-0.2,0.3-0.2v-0.1c-0.3-0.1-0.5-0.1-0.5-0.3v-0.2
			c0-0.1,0.1-0.2,0.2-0.2v-0.1c-0.2-0.1-0.4-0.1-0.6-0.1v-0.2h0.3v-0.1L204.4,53.4z M202.6,59v0.2h0.2C202.7,59.1,202.7,59,202.6,59
			z M202.6,65.3v0.2h0.1L202.6,65.3L202.6,65.3z M202.6,48.8L202.6,48.8c0,0.2,0.1,0.2,0.2,0.2v-0.2H202.6z M202.6,53.1v0.3h0.1
			L202.6,53.1L202.6,53.1z M202.6,60.8c0,0.1,0.1,0.2,0.2,0.2h0.1v-0.2H202.6z M202.8,46.5h0.2v-0.2
			C202.9,46.3,202.8,46.4,202.8,46.5z M203.4,47.2l-0.2,0.5l-0.2-0.1h-0.2c0.1,0.3,0.2,0.4,0.3,0.4h0.7l-0.2-0.2v-0.1
			c0.1-0.2,0.3-0.3,0.4-0.3v-0.1c-0.1,0-0.2,0-0.2-0.1l-0.2,0.1C203.5,47.2,203.5,47.2,203.4,47.2z M202.8,50.7v0.2h0.2v-0.2H202.8z
			 M202.8,51.7h0.3l0.1-0.4v-0.2C202.9,51.3,202.8,51.5,202.8,51.7z M202.8,56.8L202.8,56.8c0,0.2,0.1,0.2,0.2,0.2l0.1-0.2v-0.1
			H202.8z M203.1,65.1c0,0.1-0.1,0.2-0.3,0.2v0.1c0,0.1,0.2,0.2,0.5,0.3c0-0.1,0-0.1,0.1-0.1C203.3,65.2,203.2,65.1,203.1,65.1z
			 M202.9,64.2L202.9,64.2c0,0.2,0.1,0.2,0.2,0.2l0.1-0.2c-0.1-0.1-0.1-0.2-0.1-0.3C202.9,64.1,202.9,64.1,202.9,64.2z M203.1,58.2
			L203.1,58.2c0.1,0.1,0.4,0.2,0.7,0.4c0-0.1,0.1-0.2,0.2-0.2v-0.3l-0.2,0.1h-0.3l-0.2-0.2C203.2,58.2,203.1,58.2,203.1,58.2z
			 M203.1,52.6L203.1,52.6c0.5,0,0.7-0.3,0.7-0.8c-0.1-0.1-0.2-0.1-0.3-0.1C203.4,51.7,203.3,52,203.1,52.6z M203.1,60.5v0.2h0.2
			C203.3,60.5,203.3,60.5,203.1,60.5z M203.2,48.9v0.2h0.2v-0.2H203.2z M203.3,52.9c0,0.3,0,0.4-0.1,0.5c0.1,0,0.2,0.1,0.2,0.3h0.2
			c0.1,0,0.2-0.2,0.2-0.5L203.3,52.9L203.3,52.9z M203.2,57.3L203.2,57.3c0.1,0.1,0.2,0.2,0.4,0.4l0.2-0.3v-0.3
			C203.9,57.2,203.6,57.2,203.2,57.3z M203.4,59.8V60l0.4,0.1v-0.4C203.7,59.7,203.5,59.8,203.4,59.8z M203.6,49.9l-0.1,0.3l0.3,0.3
			l0.1-0.2v-0.4l-0.2,0.1L203.6,49.9z M204.3,50.3c0,0.3-0.1,0.4-0.3,0.4c0-0.1-0.1-0.2-0.2-0.2c-0.1,0-0.2,0.1-0.3,0.1v0.2
			c0.1,0,0.3,0.1,0.4,0.2h0.2c0.3-0.2,0.5-0.4,0.5-0.4v-0.1c0-0.1-0.1-0.2-0.2-0.2H204.3z M203.5,51.2L203.5,51.2
			c0.1,0.3,0.2,0.4,0.3,0.4h0.3v-0.3c0-0.1-0.1-0.2-0.2-0.2H203.5z M203.7,49.4c0.1,0.1,0.2,0.2,0.2,0.3c0.2-0.3,0.3-0.4,0.4-0.4
			c0-0.1-0.1-0.2-0.2-0.2h-0.2C203.8,49.1,203.7,49.2,203.7,49.4z M204.7,51.1c0,0.3-0.1,0.4-0.4,0.4v0.2l-0.1,0.6
			c0.1,0,0.1,0,0.1,0.1c-0.2,0.1-0.3,0.2-0.3,0.3c0.1,0.1,0.1,0.2,0.1,0.2c-0.1,0.1-0.1,0.2-0.1,0.3h0.3c0.1,0,0.2-0.1,0.2-0.3
			l-0.2-0.4h0.1l0.3,0.2l-0.1,0.2V53c0.1,0.3,0.3,0.4,0.3,0.4l0.4-0.1v-0.1c-0.3,0-0.4-0.1-0.4-0.2l0.3-0.9l-0.3,0.2h-0.2l-0.2-0.1
			c0.2-0.3,0.3-0.5,0.3-0.6l-0.1-0.6H204.7z M204.3,54.4l0.1,0.2l-0.2,0.1l-0.1-0.2L204.3,54.4z M204.2,57.3v0.3h0.1
			c0.1,0,0.2-0.1,0.2-0.3H204.2z M204.3,48.9v0.2h0.1c0.1,0,0.2-0.1,0.2-0.2v-0.2h-0.1C204.4,48.7,204.3,48.8,204.3,48.9z
			 M204.3,49.4L204.3,49.4c0,0.2,0.1,0.2,0.2,0.2h0.1c0.1,0,0.2-0.1,0.2-0.2v-0.1c0-0.1-0.1-0.2-0.2-0.2h-0.1
			C204.4,49.2,204.3,49.3,204.3,49.4z M204.8,56.2v0.2c0.1,0,0.2-0.1,0.2-0.2v-0.1H204.8z M205.1,39.5v0.2h0.2
			C205.3,39.6,205.2,39.5,205.1,39.5z M205.1,51.7l0.1,0.4h0.3v-0.3L205.1,51.7z M205.3,54v0.3c0,0.1,0.1,0.2,0.2,0.2h0.1l0.2-0.8
			v-0.2h-0.1C205.6,53.6,205.5,53.8,205.3,54z M205.4,39.5v0.2h0.1L205.4,39.5L205.4,39.5z M205.5,53.4L205.5,53.4l0.2,0.1v-0.1
			H205.5z M206.4,54.5c0,0.1-0.1,0.2-0.3,0.4c0.3,0,0.4,0.1,0.4,0.2v0.1l-0.4-0.1c0,0.1,0,0.1,0.1,0.1l-0.1,0.4v0.2l0.2,0.2
			c-0.1,0-0.1,0-0.1,0.1l-0.2-0.1c-0.1,0-0.3,0.2-0.5,0.6c0.1,0.2,0.1,0.3,0.2,0.3c0,0,0.3-0.2,0.9-0.6v0.1l-0.1,0.4
			c0.1,0,0.1,0,0.1,0.1l0.4-0.1h0.1l0.2,0.1l0.3-0.3c-0.3-0.1-0.5-0.2-0.5-0.4H207l-0.2,0.1c0-0.1-0.1-0.2-0.3-0.4
			c0-0.2,0.1-0.5,0.4-0.9C207,54.9,206.8,54.7,206.4,54.5z M205.6,54.9v0.2h0.2C205.8,54.9,205.7,54.9,205.6,54.9z M205.6,57.3v0.2
			h0.1L205.6,57.3L205.6,57.3z M205.9,52.2L205.9,52.2l0.2,0.1v-0.1H205.9z M205.9,54.5v0.3c0.2-0.1,0.3-0.2,0.3-0.2
			C206.1,54.6,206,54.6,205.9,54.5z M206.2,39.3v0.2c0,0.1,0.1,0.2,0.2,0.2h0.3v-0.1C206.7,39.4,206.5,39.3,206.2,39.3z M206.5,57.4
			v0.4h0.1c0-0.1,0.1-0.2,0.2-0.3L206.5,57.4L206.5,57.4z M206.9,58.1v0.2c0,0.1,0.1,0.2,0.2,0.2h0.2v-0.2
			C207.2,58.3,207.1,58.2,206.9,58.1z M207,54.1v0.2h0.1L207,54.1L207,54.1z M207.2,57.3l-0.1,0.2c0,0.1,0.1,0.2,0.2,0.2l0.1-0.2
			C207.4,57.3,207.3,57.3,207.2,57.3z M207.1,59c0,0.1,0.1,0.2,0.2,0.2V59H207.1z M207.2,54.3h0.2v-0.2
			C207.3,54.1,207.2,54.2,207.2,54.3z M207.4,54.5c-0.1,0.2-0.2,0.4-0.2,0.5v0.1c0,0.1,0.1,0.2,0.3,0.2h0.1c0-0.1,0-0.4,0.1-0.7
			L207.4,54.5z M208.8,55.3v0.2l0.2,0.3V56c0,0.1-0.3,0.2-0.8,0.4l-0.1-0.2v-0.1c0-0.1,0.1-0.2,0.3-0.2v-0.2h-0.1
			c-0.2,0.1-0.3,0.2-0.4,0.2l-0.1-0.2c0.1,0,0.2-0.1,0.2-0.2v-0.1h-0.4c0,0.1-0.1,0.3-0.2,0.4V56c0.7,0.5,1,1,1,1.5v0.2
			c0,0.1-0.1,0.2-0.2,0.2c-0.1,0-0.2-0.1-0.2-0.4H208v0.2c0.1,0.1,0.1,0.2,0.1,0.3c-0.1,0-0.2,0.1-0.3,0.3v0.1
			c0.2,0.3,0.3,0.4,0.3,0.4l-0.1,0.2V59h0.7c0.1,0,0.2-0.2,0.3-0.7v-0.1h-0.3c-0.3,0.3-0.4,0.4-0.5,0.4l-0.2-0.2
			c0-0.2,0.2-0.3,0.6-0.5h0.2l0.3,0.2h0.2v-0.1c-0.2-0.2-0.2-0.4-0.2-0.6v-0.1h0.2c0,0.2,0.2,0.4,0.5,0.5h0.1v-0.5
			c0.3-0.3,0.4-0.7,0.4-1.1h-0.1l-0.2,0.1c-0.3-0.1-0.5-0.3-0.5-0.3c0.1-0.2,0.3-0.3,0.8-0.5c0-0.1,0.1-0.2,0.3-0.2v-0.1
			c-0.4,0-0.6-0.1-0.8-0.3h-0.1l-0.3,0.5h-0.2l0.1-0.4v-0.2C209.1,54.8,209,55,208.8,55.3z M207.7,56.8V57h0.1L207.7,56.8
			L207.7,56.8z M208.1,59.6L208,60l0.2,0.1l0.1-0.2v-0.2C208.2,59.6,208.2,59.6,208.1,59.6z M208.1,61.4l0.3,0.3
			c0.2-0.1,0.3-0.2,0.3-0.2C208.6,61.5,208.4,61.5,208.1,61.4z M208.2,39.2c0,0.1,0.1,0.2,0.2,0.2l0.1-0.2H208.2z M208.3,59.7
			l0.2,0.1h0.3v-0.3h-0.2C208.5,59.5,208.4,59.5,208.3,59.7z M210.3,58.1c0,0.2-0.1,0.3-0.2,0.3c-0.1-0.1-0.2-0.1-0.3-0.1l-0.2,0.1
			c-0.1-0.1-0.2-0.1-0.3-0.1l-0.3,0.5c-0.1,0-0.2,0.1-0.2,0.2c0.2,0.1,0.3,0.3,0.3,0.4l0.2-0.1l0.2,0.1c0-0.1,0-0.1,0.1-0.1l0.1,0.2
			c-0.6,0.5-1,0.8-1,0.8v0.2c0.3,0,0.4,0.1,0.5,0.3c-0.1,0.1-0.3,0.1-0.6,0.1V61c0.2,0,0.3,0,0.4,0.1c-0.1,0.2-0.2,0.4-0.2,0.5h0.1
			l0.4-0.4l0.3,0.2h0.1c0-0.3,0.3-0.6,0.8-0.9l-0.1-0.2l-0.4,0.1h-0.1l-0.2-0.1c0,0.1-0.1,0.2-0.2,0.2h-0.2c-0.1,0-0.2-0.1-0.2-0.3
			c0-0.1,0.2-0.2,0.5-0.2c0,0.1,0.1,0.2,0.4,0.2c0-0.1,0.1-0.2,0.3-0.2v-0.3c-0.3,0-0.4-0.1-0.4-0.2c0-0.5,0.2-0.9,0.6-1.5H210.3z
			 M209.8,61.5c0,0.3-0.2,0.5-0.6,0.7h-0.1c-0.1-0.1-0.1-0.2-0.1-0.3c-0.1,0-0.2,0.1-0.4,0.4h0.5v0.3h0.3c0.1-0.2,0.4-0.4,0.9-0.7
			v-0.2L209.8,61.5z M209,54.6L209,54.6l0.2,0.1v-0.1H209z M209.2,56.3c0.3,0.1,0.4,0.2,0.4,0.3v0.1c0,0.1-0.1,0.2-0.2,0.2
			c0,0-0.2-0.2-0.5-0.5C209.1,56.4,209.2,56.3,209.2,56.3z M209.5,62.9l0.1,0.3c0,0-0.1,0.2-0.3,0.5v0.1c0,0.1,0.1,0.2,0.2,0.2
			c0-0.1,0.2-0.2,0.6-0.4c0.1-0.2,0.2-0.4,0.2-0.5v-0.1c0-0.1-0.1-0.2-0.3-0.3h-0.2C209.6,62.6,209.5,62.7,209.5,62.9z M209.6,53.2
			l0.4,0.3c0-0.1,0-0.1,0.1-0.1c-0.1-0.2-0.2-0.3-0.2-0.4h-0.2C209.7,53,209.6,53.1,209.6,53.2z M209.6,65.1L209.6,65.1l0.2,0.1
			v-0.1H209.6z M209.7,58.8L209.7,58.8l0.1,0.2h-0.1V58.8z M209.7,64.4c0,0.1,0.3,0.2,0.8,0.5l0.1-0.2v-0.2l-0.2-0.2
			C210.1,64.4,209.9,64.4,209.7,64.4z M210,54c-0.1,0.3-0.2,0.6-0.2,0.7l0.2,0.1l0.4-0.1v-0.1C210.2,54.6,210.1,54.4,210,54L210,54z
			 M209.9,63.7V64c0,0.1,0.1,0.2,0.2,0.2c0.1,0,0.2-0.1,0.2-0.2L209.9,63.7z M210.4,57l-0.3,0.4c0.1,0,0.2,0.1,0.2,0.2h0.2
			c0-0.2,0.1-0.3,0.3-0.3C210.8,57.3,210.6,57.2,210.4,57z M210.2,46.8V47h0.2v-0.2H210.2z M210.3,47.1v0.2h0.1L210.3,47.1
			L210.3,47.1z M210.3,61.2v0.2h0.7v-0.1c0-0.1-0.1-0.2-0.2-0.2h-0.3C210.3,61,210.3,61.1,210.3,61.2z M210.3,62.9l0.3,0.2h0.2v-0.4
			h-0.1C210.4,62.8,210.3,62.9,210.3,62.9z M210.3,65.3v0.2h0.1L210.3,65.3L210.3,65.3z M210.4,49.8V50h0.1L210.4,49.8L210.4,49.8z
			 M210.4,56.5v0.3h0.2v-0.3H210.4z M210.5,62.3v0.3h0.1L210.5,62.3L210.5,62.3z M210.6,59.6v0.2c0.2,0,0.2,0.1,0.2,0.3h0.1
			c0.1,0,0.2-0.1,0.2-0.2v-0.1c0-0.1-0.1-0.2-0.2-0.2H210.6z M210.6,60.1v0.3h0.3v-0.3C210.9,60.1,210.7,60.1,210.6,60.1z
			 M210.6,63.3v0.3h0.1L210.6,63.3L210.6,63.3z M210.7,52.1v0.2h0.1L210.7,52.1L210.7,52.1z M210.7,56.9v0.2h0.1
			c0.1,0,0.2-0.1,0.2-0.2H210.7z M210.8,46.7v0.2h0.1L210.8,46.7L210.8,46.7z M210.8,62.2L210.8,62.2c0,0.2,0.1,0.2,0.2,0.2l0.1-0.2
			L210.8,62.2L210.8,62.2z M210.8,64v0.3c0.1,0,0.2-0.1,0.2-0.2V64H210.8z M210.9,48c0,0.2,0,0.3-0.1,0.4l0.2,0.1
			c0.1,0,0.2-0.1,0.2-0.2V48H210.9z M210.9,55.1c0,0.1,0.1,0.2,0.2,0.2v-0.2H210.9z M211,60.5L211,60.5l0.2,0.1v-0.1H211z"/>
		<path class="st1" d="M222.8,44.6c2.5,0,4.1,1.3,4.9,3.8c0.1,0.6,0.2,1.3,0.2,2.1v11c0,2.8-1,4.7-3,5.7c-0.8,0.3-1.6,0.5-2.4,0.5
			c-1.2,0-2.4-0.5-3.6-1.5c-1-1.2-1.4-2.4-1.4-3.4c0.1-1.4,0.1-2.3,0.1-2.5c0-0.2,0-0.7-0.1-1.4c0,0,0-0.2,0.1-0.5
			c-0.1-0.5-0.1-0.8-0.1-0.9c0.1-1.4,0.1-2.3,0.1-2.6l-0.1-0.2c0.1-0.1,0.1-0.2,0.1-0.3v-0.3c0-0.5,0-0.8-0.1-1
			c0.1-0.5,0.1-0.9,0.1-1.3v-2.3c0-0.9,0.5-2,1.4-3.2c1.3-1,2.4-1.5,3.4-1.5H222.8z M218.9,59v0.3c0.1-0.1,0.2-0.2,0.3-0.2
			c0-0.1-0.1-0.2-0.2-0.2H218.9z M218.9,57.9L218.9,57.9l0.2,0.1v-0.1H218.9z M219.1,49.1L219.1,49.1c0,0.2,0.1,0.3,0.2,0.3h0.2
			v-0.2L219.1,49.1z M219.3,51.7L219.3,51.7c0,0.2,0.1,0.3,0.2,0.3h0.1c0.1,0,0.2-0.1,0.2-0.2l-0.2-0.1H219.3z M219.3,53.9
			L219.3,53.9l0.2,0.1v-0.1H219.3z M219.3,61.6h0.2v-0.2h-0.1C219.3,61.4,219.3,61.5,219.3,61.6z M219.3,61.7v0.2h0.1L219.3,61.7
			L219.3,61.7z M219.4,60.2L219.4,60.2c0,0.5,0.1,0.7,0.2,0.7c0.1-0.1,0.2-0.1,0.3-0.1v-0.1C219.5,60.5,219.4,60.4,219.4,60.2
			L219.4,60.2z M219.4,53.1L219.4,53.1l0.2,0.1v-0.1H219.4z M219.6,55.3L219.6,55.3c0.1,0.1,0.2,0,0.2-0.1v-0.1
			C219.7,55.2,219.6,55.2,219.6,55.3z M219.8,50L219.8,50L219.8,50c0.2,0.1,0.2,0,0.3-0.2H220C219.8,49.8,219.8,49.9,219.8,50z
			 M219.8,50.3v0.2h0.1L219.8,50.3L219.8,50.3z M219.8,56.6v0.2h0.1L219.8,56.6L219.8,56.6z M219.8,58.6L219.8,58.6l0.3,0.1v-0.2
			H220C219.9,58.6,219.8,58.6,219.8,58.6z M219.9,59.1l-0.1,0.2c0.1,0.2,0.2,0.3,0.2,0.4h0.1v-0.4C220,59.2,220,59.1,219.9,59.1z
			 M219.8,59.9v0.2h0.1L219.8,59.9L219.8,59.9z M219.9,48c0,0.1,0.1,0.2,0.2,0.2h0.2V48H219.9z M220.1,63.9
			c-0.2,0.2-0.2,0.4-0.2,0.5h0.1c0.3,0,0.4-0.1,0.4-0.2C220.4,64.1,220.3,64,220.1,63.9z M220,62.9v0.4h0.2v-0.1
			C220.1,63.1,220,62.9,220,62.9L220,62.9z M220,51.1v0.2h0.1L220,51.1L220,51.1z M220.2,53.4v0.2h0.1L220.2,53.4L220.2,53.4z
			 M220.2,64.9L220.2,64.9l0.3,0.1v-0.1H220.2z M220.5,48.1L220.5,48.1l0.2,0.1v-0.1H220.5z M220.9,46.7L220.9,46.7l0.2,0.1v-0.1
			H220.9z M220.9,64.7v0.3l0.3,0.1l0.1-0.2C221.3,64.8,221.2,64.8,220.9,64.7z M221.4,50v12.5c0.2,1.1,0.7,1.6,1.4,1.6h0.1
			c0.4,0,0.8-0.3,1.2-1c0.1-1.6,0.1-2.9,0.1-3.9c0-0.3,0-0.5-0.1-0.8c0.1-0.3,0.1-0.6,0.1-1v-0.1c0-0.5,0-1-0.1-1.6
			c0.1-0.3,0.2-0.5,0.2-0.6c-0.1-0.4-0.2-0.7-0.2-1c0-0.5,0-1.4,0.1-2.8c0,0,0-0.2-0.1-0.5c0.1-0.3,0.1-0.6,0.1-1v-0.1
			c0-0.6-0.5-0.9-1.5-1.2C221.8,48.4,221.4,48.9,221.4,50z M221.5,65.9v0.2h0.1L221.5,65.9L221.5,65.9z M221.9,64.7L221.9,64.7
			c0,0.2,0.1,0.2,0.2,0.3v-0.3H221.9z M222.2,46.5v0.2c0.1,0,0.1,0,0.3,0.1v-0.2C222.4,46.6,222.4,46.5,222.2,46.5z M222.3,65.5
			l-0.1,0.4h0.3c0-0.1,0.1-0.2,0.2-0.3l-0.2-0.1H222.3z M223.3,46.8V47h0.1L223.3,46.8L223.3,46.8z M223.3,47.1v0.2h0.2v-0.2H223.3z
			 M223.4,65.6L223.4,65.6l0.3,0.1v-0.1H223.4z M223.8,46.4L223.8,46.4c0,0.2,0.1,0.3,0.2,0.3h0.3v-0.1c0-0.1-0.1-0.2-0.2-0.2H223.8
			z M224.1,65.3l0.3,0.2h0.2v-0.2h0.1c0,0,0.1,0,0.1,0.1c0.1-0.1,0.2-0.1,0.3-0.1v-0.2c-0.1,0-0.2-0.1-0.3-0.2
			C224.3,65.1,224.1,65.2,224.1,65.3z M224.3,64.6v0.2h0.1L224.3,64.6L224.3,64.6z M224.6,64.3h0.2V64
			C224.8,64,224.7,64.1,224.6,64.3z M225,64.5v0.2c0.1,0,0.2-0.1,0.2-0.2H225z M225.4,62.9L225.4,62.9l0.2,0.1v-0.1H225.4z
			 M225.5,61.2c0,0.1,0.1,0.2,0.2,0.2V61C225.5,61,225.5,61.1,225.5,61.2z M225.6,50.4v0.2h0.1L225.6,50.4L225.6,50.4z M225.6,59.4
			L225.6,59.4l0.2,0.1v-0.1H225.6z M225.8,53.6L225.8,53.6l0.2,0.1v-0.1H225.8z M226.1,48.3c0,0.1,0,0.1-0.1,0.2
			c0.1,0.2,0.2,0.3,0.3,0.3v-0.4C226.2,48.3,226.2,48.3,226.1,48.3z M226,56.8V57h0.2v-0.2H226z M226.1,61.1v0.2h0.1L226.1,61.1
			L226.1,61.1z M226.1,56L226.1,56c0.1,0.2,0.1,0.3,0.1,0.3h0.1V56H226.1z M226.2,61.2v0.3c0.1,0,0.2-0.1,0.2-0.2
			C226.4,61.3,226.3,61.2,226.2,61.2z M226.2,62.2v0.2l0.4-0.1v-0.2C226.6,62.2,226.4,62.2,226.2,62.2z M226.3,55.3v0.2h0.2v-0.1
			C226.5,55.4,226.4,55.3,226.3,55.3z M226.3,56.8V57h0.2v-0.1C226.5,56.8,226.4,56.8,226.3,56.8z M226.4,51.3L226.4,51.3l0.2,0.1
			v-0.1H226.4z M226.4,59.2c0.1,0,0.2,0.1,0.2,0.3h0.1c0.1,0,0.2-0.1,0.2-0.2v-0.1c0-0.1-0.1-0.2-0.2-0.2h-0.1
			C226.4,59.1,226.4,59.1,226.4,59.2z M226.7,55.1v0.2h0.1L226.7,55.1L226.7,55.1z M226.7,62.7c0,0.1,0.1,0.2,0.2,0.2v-0.2H226.7z"
			/>
		<path class="st1" d="M237.6,54.8c0.9,0,1.6,0,2.1,0c0.5,0,0.9,0.3,0.9,0.8v1.9c-0.1,0.7-0.3,1-0.8,1h-2.4
			c-0.5-0.1-0.7-0.6-0.5-1.7v-1C236.9,55.3,237.1,55,237.6,54.8z"/>
	</g>
</g>
</svg>
